%
M48
M72
T01C0.0236
T02C0.0320
T03C0.0400
T04C0.1102
%
T01
X17660Y10660
T02
X36160Y12660
X36160Y14660
X7160Y11160
X7160Y10160
X20660Y2660
X22660Y2660
X23660Y4160
X23660Y5160
X23660Y10160
X23660Y11160
X23660Y6160
X23660Y7160
X23660Y9160
X23660Y8160
X20660Y11160
X20660Y10160
X20660Y9160
X20660Y8160
X20660Y7160
X20660Y6160
X20660Y5160
X20660Y4160
X4660Y5660
X4660Y6660
X32160Y1660
X32160Y2660
X35160Y1660
X35160Y2660
X5660Y15660
X5660Y16660
X34160Y5160
X34160Y6160
X29160Y12160
X29160Y13160
X19160Y12160
X19160Y13160
X23160Y13160
X27160Y13160
X3160Y1660
X7160Y1660
X29660Y9160
X25660Y9160
X11160Y6160
X15160Y6160
X31160Y13160
X31160Y17160
X9160Y7660
X13160Y7660
X32660Y13160
X32660Y17160
X29660Y5160
X25660Y5160
X29660Y6160
X25660Y6160
X3160Y3160
X7160Y3160
X29660Y7660
X25660Y7660
T03
X14380Y5050
X14380Y3270
X16940Y5050
X16940Y3270
X9880Y5050
X9880Y3270
X12440Y5050
X12440Y3270
X16361Y15160
X17361Y15160
X18361Y15160
X19361Y15160
X20361Y15160
X21361Y15160
X7514Y18129
X8333Y17556
X9152Y16982
X9971Y16409
X10790Y15835
X11609Y15261
X25995Y15445
X26861Y15945
X27727Y16445
X28593Y16945
X29459Y17445
X30325Y17945
X3660Y8160
X3660Y9160
X3660Y10160
X3660Y11160
X3660Y12160
X3660Y13160
X34062Y13160
X34062Y12160
X34062Y11160
X34062Y10160
X34062Y9160
X34062Y8160
X15160Y13428
X14160Y13428
X13160Y13428
X12160Y13428
X11160Y13428
X10160Y13428
X9160Y13428
X8160Y13428
X7160Y13428
T04
X1735Y16302
X18566Y4156
X35987Y16302
M30
