G75*
G70*
%OFA0B0*%
%FSLAX24Y24*%
%IPPOS*%
%LPD*%
%AMOC8*
5,1,8,0,0,1.08239X$1,22.5*
%
%ADD10C,0.0100*%
%ADD11C,0.0000*%
%ADD12C,0.1182*%
%ADD13OC8,0.0600*%
%ADD14OC8,0.0710*%
%ADD15C,0.0710*%
%ADD16C,0.0600*%
%ADD17C,0.0680*%
%ADD18R,0.0476X0.0476*%
D10*
X000160Y000160D02*
X037562Y000160D01*
X037562Y019845D01*
X000160Y019845D01*
X000160Y000160D01*
D11*
X018015Y004156D02*
X018017Y004203D01*
X018023Y004249D01*
X018033Y004295D01*
X018046Y004340D01*
X018064Y004383D01*
X018085Y004425D01*
X018109Y004465D01*
X018137Y004502D01*
X018168Y004537D01*
X018202Y004570D01*
X018238Y004599D01*
X018277Y004625D01*
X018318Y004648D01*
X018361Y004667D01*
X018405Y004683D01*
X018450Y004695D01*
X018496Y004703D01*
X018543Y004707D01*
X018589Y004707D01*
X018636Y004703D01*
X018682Y004695D01*
X018727Y004683D01*
X018771Y004667D01*
X018814Y004648D01*
X018855Y004625D01*
X018894Y004599D01*
X018930Y004570D01*
X018964Y004537D01*
X018995Y004502D01*
X019023Y004465D01*
X019047Y004425D01*
X019068Y004383D01*
X019086Y004340D01*
X019099Y004295D01*
X019109Y004249D01*
X019115Y004203D01*
X019117Y004156D01*
X019115Y004109D01*
X019109Y004063D01*
X019099Y004017D01*
X019086Y003972D01*
X019068Y003929D01*
X019047Y003887D01*
X019023Y003847D01*
X018995Y003810D01*
X018964Y003775D01*
X018930Y003742D01*
X018894Y003713D01*
X018855Y003687D01*
X018814Y003664D01*
X018771Y003645D01*
X018727Y003629D01*
X018682Y003617D01*
X018636Y003609D01*
X018589Y003605D01*
X018543Y003605D01*
X018496Y003609D01*
X018450Y003617D01*
X018405Y003629D01*
X018361Y003645D01*
X018318Y003664D01*
X018277Y003687D01*
X018238Y003713D01*
X018202Y003742D01*
X018168Y003775D01*
X018137Y003810D01*
X018109Y003847D01*
X018085Y003887D01*
X018064Y003929D01*
X018046Y003972D01*
X018033Y004017D01*
X018023Y004063D01*
X018017Y004109D01*
X018015Y004156D01*
X001184Y016302D02*
X001186Y016349D01*
X001192Y016395D01*
X001202Y016441D01*
X001215Y016486D01*
X001233Y016529D01*
X001254Y016571D01*
X001278Y016611D01*
X001306Y016648D01*
X001337Y016683D01*
X001371Y016716D01*
X001407Y016745D01*
X001446Y016771D01*
X001487Y016794D01*
X001530Y016813D01*
X001574Y016829D01*
X001619Y016841D01*
X001665Y016849D01*
X001712Y016853D01*
X001758Y016853D01*
X001805Y016849D01*
X001851Y016841D01*
X001896Y016829D01*
X001940Y016813D01*
X001983Y016794D01*
X002024Y016771D01*
X002063Y016745D01*
X002099Y016716D01*
X002133Y016683D01*
X002164Y016648D01*
X002192Y016611D01*
X002216Y016571D01*
X002237Y016529D01*
X002255Y016486D01*
X002268Y016441D01*
X002278Y016395D01*
X002284Y016349D01*
X002286Y016302D01*
X002284Y016255D01*
X002278Y016209D01*
X002268Y016163D01*
X002255Y016118D01*
X002237Y016075D01*
X002216Y016033D01*
X002192Y015993D01*
X002164Y015956D01*
X002133Y015921D01*
X002099Y015888D01*
X002063Y015859D01*
X002024Y015833D01*
X001983Y015810D01*
X001940Y015791D01*
X001896Y015775D01*
X001851Y015763D01*
X001805Y015755D01*
X001758Y015751D01*
X001712Y015751D01*
X001665Y015755D01*
X001619Y015763D01*
X001574Y015775D01*
X001530Y015791D01*
X001487Y015810D01*
X001446Y015833D01*
X001407Y015859D01*
X001371Y015888D01*
X001337Y015921D01*
X001306Y015956D01*
X001278Y015993D01*
X001254Y016033D01*
X001233Y016075D01*
X001215Y016118D01*
X001202Y016163D01*
X001192Y016209D01*
X001186Y016255D01*
X001184Y016302D01*
X035436Y016302D02*
X035438Y016349D01*
X035444Y016395D01*
X035454Y016441D01*
X035467Y016486D01*
X035485Y016529D01*
X035506Y016571D01*
X035530Y016611D01*
X035558Y016648D01*
X035589Y016683D01*
X035623Y016716D01*
X035659Y016745D01*
X035698Y016771D01*
X035739Y016794D01*
X035782Y016813D01*
X035826Y016829D01*
X035871Y016841D01*
X035917Y016849D01*
X035964Y016853D01*
X036010Y016853D01*
X036057Y016849D01*
X036103Y016841D01*
X036148Y016829D01*
X036192Y016813D01*
X036235Y016794D01*
X036276Y016771D01*
X036315Y016745D01*
X036351Y016716D01*
X036385Y016683D01*
X036416Y016648D01*
X036444Y016611D01*
X036468Y016571D01*
X036489Y016529D01*
X036507Y016486D01*
X036520Y016441D01*
X036530Y016395D01*
X036536Y016349D01*
X036538Y016302D01*
X036536Y016255D01*
X036530Y016209D01*
X036520Y016163D01*
X036507Y016118D01*
X036489Y016075D01*
X036468Y016033D01*
X036444Y015993D01*
X036416Y015956D01*
X036385Y015921D01*
X036351Y015888D01*
X036315Y015859D01*
X036276Y015833D01*
X036235Y015810D01*
X036192Y015791D01*
X036148Y015775D01*
X036103Y015763D01*
X036057Y015755D01*
X036010Y015751D01*
X035964Y015751D01*
X035917Y015755D01*
X035871Y015763D01*
X035826Y015775D01*
X035782Y015791D01*
X035739Y015810D01*
X035698Y015833D01*
X035659Y015859D01*
X035623Y015888D01*
X035589Y015921D01*
X035558Y015956D01*
X035530Y015993D01*
X035506Y016033D01*
X035485Y016075D01*
X035467Y016118D01*
X035454Y016163D01*
X035444Y016209D01*
X035438Y016255D01*
X035436Y016302D01*
D12*
X035987Y016302D03*
X018566Y004156D03*
X001735Y016302D03*
D13*
X005660Y016660D03*
X005660Y015660D03*
X019160Y013160D03*
X019160Y012160D03*
X023160Y013160D03*
X027160Y013160D03*
X029160Y013160D03*
X029160Y012160D03*
X031160Y013160D03*
X032660Y013160D03*
X036160Y012660D03*
X036160Y014660D03*
X032660Y017160D03*
X031160Y017160D03*
X029660Y009160D03*
X029660Y007660D03*
X029660Y006160D03*
X029660Y005160D03*
X025660Y005160D03*
X025660Y006160D03*
X025660Y007660D03*
X025660Y009160D03*
X034160Y006160D03*
X034160Y005160D03*
X035160Y002660D03*
X035160Y001660D03*
X032160Y001660D03*
X032160Y002660D03*
X022660Y002660D03*
X020660Y002660D03*
X015160Y006160D03*
X013160Y007660D03*
X011160Y006160D03*
X009160Y007660D03*
X004660Y006660D03*
X004660Y005660D03*
X003160Y003160D03*
X003160Y001660D03*
X007160Y001660D03*
X007160Y003160D03*
D14*
X007160Y011160D03*
D15*
X007160Y010160D03*
D16*
X020400Y010160D02*
X020920Y010160D01*
X020920Y009160D02*
X020400Y009160D01*
X020400Y008160D02*
X020920Y008160D01*
X020920Y007160D02*
X020400Y007160D01*
X020400Y006160D02*
X020920Y006160D01*
X020920Y005160D02*
X020400Y005160D01*
X020400Y004160D02*
X020920Y004160D01*
X023400Y004160D02*
X023920Y004160D01*
X023920Y005160D02*
X023400Y005160D01*
X023400Y006160D02*
X023920Y006160D01*
X023920Y007160D02*
X023400Y007160D01*
X023400Y008160D02*
X023920Y008160D01*
X023920Y009160D02*
X023400Y009160D01*
X023400Y010160D02*
X023920Y010160D01*
X023920Y011160D02*
X023400Y011160D01*
X020920Y011160D02*
X020400Y011160D01*
D17*
X015160Y013128D02*
X015160Y013728D01*
X014160Y013728D02*
X014160Y013128D01*
X013160Y013128D02*
X013160Y013728D01*
X012160Y013728D02*
X012160Y013128D01*
X011160Y013128D02*
X011160Y013728D01*
X010160Y013728D02*
X010160Y013128D01*
X009160Y013128D02*
X009160Y013728D01*
X008160Y013728D02*
X008160Y013128D01*
X007160Y013128D02*
X007160Y013728D01*
X003960Y013160D02*
X003360Y013160D01*
X003360Y012160D02*
X003960Y012160D01*
X003960Y011160D02*
X003360Y011160D01*
X003360Y010160D02*
X003960Y010160D01*
X003960Y009160D02*
X003360Y009160D01*
X003360Y008160D02*
X003960Y008160D01*
X009580Y005050D02*
X010180Y005050D01*
X012140Y005050D02*
X012740Y005050D01*
X014080Y005050D02*
X014680Y005050D01*
X016640Y005050D02*
X017240Y005050D01*
X017240Y003270D02*
X016640Y003270D01*
X014680Y003270D02*
X014080Y003270D01*
X012740Y003270D02*
X012140Y003270D01*
X010180Y003270D02*
X009580Y003270D01*
X016361Y014860D02*
X016361Y015460D01*
X017361Y015460D02*
X017361Y014860D01*
X018361Y014860D02*
X018361Y015460D01*
X019361Y015460D02*
X019361Y014860D01*
X020361Y014860D02*
X020361Y015460D01*
X021361Y015460D02*
X021361Y014860D01*
X025845Y015705D02*
X026145Y015186D01*
X027011Y015686D02*
X026711Y016205D01*
X027577Y016705D02*
X027877Y016186D01*
X028743Y016686D02*
X028443Y017205D01*
X029309Y017705D02*
X029609Y017186D01*
X030475Y017686D02*
X030175Y018205D01*
X033762Y013160D02*
X034362Y013160D01*
X034362Y012160D02*
X033762Y012160D01*
X033762Y011160D02*
X034362Y011160D01*
X034362Y010160D02*
X033762Y010160D01*
X033762Y009160D02*
X034362Y009160D01*
X034362Y008160D02*
X033762Y008160D01*
X011782Y015507D02*
X011437Y015016D01*
X010618Y015589D02*
X010962Y016081D01*
X010143Y016654D02*
X009799Y016163D01*
X008980Y016736D02*
X009324Y017228D01*
X008505Y017802D02*
X008161Y017310D01*
X007342Y017884D02*
X007686Y018375D01*
D18*
X017660Y010660D03*
M02*
