G75*
G70*
%OFA0B0*%
%FSLAX24Y24*%
%IPPOS*%
%LPD*%
%AMOC8*
5,1,8,0,0,1.08239X$1,22.5*
%
%ADD10C,0.0100*%
%ADD11C,0.0000*%
%ADD12C,0.0060*%
%ADD13C,0.0120*%
%ADD14C,0.0050*%
%ADD15C,0.0080*%
%ADD16R,0.0340X0.0240*%
%ADD17R,0.0240X0.0340*%
%ADD18C,0.0020*%
D10*
X000160Y000160D02*
X037562Y000160D01*
X037562Y019845D01*
X000160Y019845D01*
X000160Y000160D01*
X003910Y007160D02*
X003856Y007117D01*
X003804Y007071D01*
X003755Y007022D01*
X003708Y006970D01*
X003665Y006916D01*
X003624Y006860D01*
X003587Y006801D01*
X003553Y006741D01*
X003523Y006678D01*
X003496Y006615D01*
X003472Y006549D01*
X003452Y006483D01*
X003436Y006415D01*
X003424Y006347D01*
X003416Y006278D01*
X003411Y006209D01*
X003410Y006139D01*
X003413Y006070D01*
X003420Y006001D01*
X003431Y005933D01*
X003445Y005865D01*
X003464Y005798D01*
X003486Y005732D01*
X003511Y005667D01*
X003540Y005604D01*
X003573Y005543D01*
X003609Y005484D01*
X003648Y005427D01*
X003690Y005371D01*
X003735Y005319D01*
X003783Y005269D01*
X003834Y005222D01*
X003888Y005177D01*
X003943Y005136D01*
X004001Y005098D01*
X004061Y005063D01*
X004123Y005031D01*
X004186Y005003D01*
X004251Y004979D01*
X004317Y004958D01*
X004385Y004941D01*
X004453Y004927D01*
X004522Y004918D01*
X004591Y004912D01*
X004660Y004910D01*
X004729Y004912D01*
X004798Y004918D01*
X004867Y004927D01*
X004935Y004941D01*
X005003Y004958D01*
X005069Y004979D01*
X005134Y005003D01*
X005197Y005031D01*
X005259Y005063D01*
X005319Y005098D01*
X005377Y005136D01*
X005432Y005177D01*
X005486Y005222D01*
X005537Y005269D01*
X005585Y005319D01*
X005630Y005371D01*
X005672Y005427D01*
X005711Y005484D01*
X005747Y005543D01*
X005780Y005604D01*
X005809Y005667D01*
X005834Y005732D01*
X005856Y005798D01*
X005875Y005865D01*
X005889Y005933D01*
X005900Y006001D01*
X005907Y006070D01*
X005910Y006139D01*
X005909Y006209D01*
X005904Y006278D01*
X005896Y006347D01*
X005884Y006415D01*
X005868Y006483D01*
X005848Y006549D01*
X005824Y006615D01*
X005797Y006678D01*
X005767Y006741D01*
X005733Y006801D01*
X005696Y006860D01*
X005655Y006916D01*
X005612Y006970D01*
X005565Y007022D01*
X005516Y007071D01*
X005464Y007117D01*
X005410Y007160D01*
X018410Y013660D02*
X018356Y013617D01*
X018304Y013571D01*
X018255Y013522D01*
X018208Y013470D01*
X018165Y013416D01*
X018124Y013360D01*
X018087Y013301D01*
X018053Y013241D01*
X018023Y013178D01*
X017996Y013115D01*
X017972Y013049D01*
X017952Y012983D01*
X017936Y012915D01*
X017924Y012847D01*
X017916Y012778D01*
X017911Y012709D01*
X017910Y012639D01*
X017913Y012570D01*
X017920Y012501D01*
X017931Y012433D01*
X017945Y012365D01*
X017964Y012298D01*
X017986Y012232D01*
X018011Y012167D01*
X018040Y012104D01*
X018073Y012043D01*
X018109Y011984D01*
X018148Y011927D01*
X018190Y011871D01*
X018235Y011819D01*
X018283Y011769D01*
X018334Y011722D01*
X018388Y011677D01*
X018443Y011636D01*
X018501Y011598D01*
X018561Y011563D01*
X018623Y011531D01*
X018686Y011503D01*
X018751Y011479D01*
X018817Y011458D01*
X018885Y011441D01*
X018953Y011427D01*
X019022Y011418D01*
X019091Y011412D01*
X019160Y011410D01*
X019229Y011412D01*
X019298Y011418D01*
X019367Y011427D01*
X019435Y011441D01*
X019503Y011458D01*
X019569Y011479D01*
X019634Y011503D01*
X019697Y011531D01*
X019759Y011563D01*
X019819Y011598D01*
X019877Y011636D01*
X019932Y011677D01*
X019986Y011722D01*
X020037Y011769D01*
X020085Y011819D01*
X020130Y011871D01*
X020172Y011927D01*
X020211Y011984D01*
X020247Y012043D01*
X020280Y012104D01*
X020309Y012167D01*
X020334Y012232D01*
X020356Y012298D01*
X020375Y012365D01*
X020389Y012433D01*
X020400Y012501D01*
X020407Y012570D01*
X020410Y012639D01*
X020409Y012709D01*
X020404Y012778D01*
X020396Y012847D01*
X020384Y012915D01*
X020368Y012983D01*
X020348Y013049D01*
X020324Y013115D01*
X020297Y013178D01*
X020267Y013241D01*
X020233Y013301D01*
X020196Y013360D01*
X020155Y013416D01*
X020112Y013470D01*
X020065Y013522D01*
X020016Y013571D01*
X019964Y013617D01*
X019910Y013660D01*
X028410Y013660D02*
X028356Y013617D01*
X028304Y013571D01*
X028255Y013522D01*
X028208Y013470D01*
X028165Y013416D01*
X028124Y013360D01*
X028087Y013301D01*
X028053Y013241D01*
X028023Y013178D01*
X027996Y013115D01*
X027972Y013049D01*
X027952Y012983D01*
X027936Y012915D01*
X027924Y012847D01*
X027916Y012778D01*
X027911Y012709D01*
X027910Y012639D01*
X027913Y012570D01*
X027920Y012501D01*
X027931Y012433D01*
X027945Y012365D01*
X027964Y012298D01*
X027986Y012232D01*
X028011Y012167D01*
X028040Y012104D01*
X028073Y012043D01*
X028109Y011984D01*
X028148Y011927D01*
X028190Y011871D01*
X028235Y011819D01*
X028283Y011769D01*
X028334Y011722D01*
X028388Y011677D01*
X028443Y011636D01*
X028501Y011598D01*
X028561Y011563D01*
X028623Y011531D01*
X028686Y011503D01*
X028751Y011479D01*
X028817Y011458D01*
X028885Y011441D01*
X028953Y011427D01*
X029022Y011418D01*
X029091Y011412D01*
X029160Y011410D01*
X029229Y011412D01*
X029298Y011418D01*
X029367Y011427D01*
X029435Y011441D01*
X029503Y011458D01*
X029569Y011479D01*
X029634Y011503D01*
X029697Y011531D01*
X029759Y011563D01*
X029819Y011598D01*
X029877Y011636D01*
X029932Y011677D01*
X029986Y011722D01*
X030037Y011769D01*
X030085Y011819D01*
X030130Y011871D01*
X030172Y011927D01*
X030211Y011984D01*
X030247Y012043D01*
X030280Y012104D01*
X030309Y012167D01*
X030334Y012232D01*
X030356Y012298D01*
X030375Y012365D01*
X030389Y012433D01*
X030400Y012501D01*
X030407Y012570D01*
X030410Y012639D01*
X030409Y012709D01*
X030404Y012778D01*
X030396Y012847D01*
X030384Y012915D01*
X030368Y012983D01*
X030348Y013049D01*
X030324Y013115D01*
X030297Y013178D01*
X030267Y013241D01*
X030233Y013301D01*
X030196Y013360D01*
X030155Y013416D01*
X030112Y013470D01*
X030065Y013522D01*
X030016Y013571D01*
X029964Y013617D01*
X029910Y013660D01*
X033410Y006660D02*
X033356Y006617D01*
X033304Y006571D01*
X033255Y006522D01*
X033208Y006470D01*
X033165Y006416D01*
X033124Y006360D01*
X033087Y006301D01*
X033053Y006241D01*
X033023Y006178D01*
X032996Y006115D01*
X032972Y006049D01*
X032952Y005983D01*
X032936Y005915D01*
X032924Y005847D01*
X032916Y005778D01*
X032911Y005709D01*
X032910Y005639D01*
X032913Y005570D01*
X032920Y005501D01*
X032931Y005433D01*
X032945Y005365D01*
X032964Y005298D01*
X032986Y005232D01*
X033011Y005167D01*
X033040Y005104D01*
X033073Y005043D01*
X033109Y004984D01*
X033148Y004927D01*
X033190Y004871D01*
X033235Y004819D01*
X033283Y004769D01*
X033334Y004722D01*
X033388Y004677D01*
X033443Y004636D01*
X033501Y004598D01*
X033561Y004563D01*
X033623Y004531D01*
X033686Y004503D01*
X033751Y004479D01*
X033817Y004458D01*
X033885Y004441D01*
X033953Y004427D01*
X034022Y004418D01*
X034091Y004412D01*
X034160Y004410D01*
X034229Y004412D01*
X034298Y004418D01*
X034367Y004427D01*
X034435Y004441D01*
X034503Y004458D01*
X034569Y004479D01*
X034634Y004503D01*
X034697Y004531D01*
X034759Y004563D01*
X034819Y004598D01*
X034877Y004636D01*
X034932Y004677D01*
X034986Y004722D01*
X035037Y004769D01*
X035085Y004819D01*
X035130Y004871D01*
X035172Y004927D01*
X035211Y004984D01*
X035247Y005043D01*
X035280Y005104D01*
X035309Y005167D01*
X035334Y005232D01*
X035356Y005298D01*
X035375Y005365D01*
X035389Y005433D01*
X035400Y005501D01*
X035407Y005570D01*
X035410Y005639D01*
X035409Y005709D01*
X035404Y005778D01*
X035396Y005847D01*
X035384Y005915D01*
X035368Y005983D01*
X035348Y006049D01*
X035324Y006115D01*
X035297Y006178D01*
X035267Y006241D01*
X035233Y006301D01*
X035196Y006360D01*
X035155Y006416D01*
X035112Y006470D01*
X035065Y006522D01*
X035016Y006571D01*
X034964Y006617D01*
X034910Y006660D01*
X034410Y003160D02*
X034356Y003117D01*
X034304Y003071D01*
X034255Y003022D01*
X034208Y002970D01*
X034165Y002916D01*
X034124Y002860D01*
X034087Y002801D01*
X034053Y002741D01*
X034023Y002678D01*
X033996Y002615D01*
X033972Y002549D01*
X033952Y002483D01*
X033936Y002415D01*
X033924Y002347D01*
X033916Y002278D01*
X033911Y002209D01*
X033910Y002139D01*
X033913Y002070D01*
X033920Y002001D01*
X033931Y001933D01*
X033945Y001865D01*
X033964Y001798D01*
X033986Y001732D01*
X034011Y001667D01*
X034040Y001604D01*
X034073Y001543D01*
X034109Y001484D01*
X034148Y001427D01*
X034190Y001371D01*
X034235Y001319D01*
X034283Y001269D01*
X034334Y001222D01*
X034388Y001177D01*
X034443Y001136D01*
X034501Y001098D01*
X034561Y001063D01*
X034623Y001031D01*
X034686Y001003D01*
X034751Y000979D01*
X034817Y000958D01*
X034885Y000941D01*
X034953Y000927D01*
X035022Y000918D01*
X035091Y000912D01*
X035160Y000910D01*
X035229Y000912D01*
X035298Y000918D01*
X035367Y000927D01*
X035435Y000941D01*
X035503Y000958D01*
X035569Y000979D01*
X035634Y001003D01*
X035697Y001031D01*
X035759Y001063D01*
X035819Y001098D01*
X035877Y001136D01*
X035932Y001177D01*
X035986Y001222D01*
X036037Y001269D01*
X036085Y001319D01*
X036130Y001371D01*
X036172Y001427D01*
X036211Y001484D01*
X036247Y001543D01*
X036280Y001604D01*
X036309Y001667D01*
X036334Y001732D01*
X036356Y001798D01*
X036375Y001865D01*
X036389Y001933D01*
X036400Y002001D01*
X036407Y002070D01*
X036410Y002139D01*
X036409Y002209D01*
X036404Y002278D01*
X036396Y002347D01*
X036384Y002415D01*
X036368Y002483D01*
X036348Y002549D01*
X036324Y002615D01*
X036297Y002678D01*
X036267Y002741D01*
X036233Y002801D01*
X036196Y002860D01*
X036155Y002916D01*
X036112Y002970D01*
X036065Y003022D01*
X036016Y003071D01*
X035964Y003117D01*
X035910Y003160D01*
X032910Y003160D02*
X032964Y003117D01*
X033016Y003071D01*
X033065Y003022D01*
X033112Y002970D01*
X033155Y002916D01*
X033196Y002860D01*
X033233Y002801D01*
X033267Y002741D01*
X033297Y002678D01*
X033324Y002615D01*
X033348Y002549D01*
X033368Y002483D01*
X033384Y002415D01*
X033396Y002347D01*
X033404Y002278D01*
X033409Y002209D01*
X033410Y002139D01*
X033407Y002070D01*
X033400Y002001D01*
X033389Y001933D01*
X033375Y001865D01*
X033356Y001798D01*
X033334Y001732D01*
X033309Y001667D01*
X033280Y001604D01*
X033247Y001543D01*
X033211Y001484D01*
X033172Y001427D01*
X033130Y001371D01*
X033085Y001319D01*
X033037Y001269D01*
X032986Y001222D01*
X032932Y001177D01*
X032877Y001136D01*
X032819Y001098D01*
X032759Y001063D01*
X032697Y001031D01*
X032634Y001003D01*
X032569Y000979D01*
X032503Y000958D01*
X032435Y000941D01*
X032367Y000927D01*
X032298Y000918D01*
X032229Y000912D01*
X032160Y000910D01*
X032091Y000912D01*
X032022Y000918D01*
X031953Y000927D01*
X031885Y000941D01*
X031817Y000958D01*
X031751Y000979D01*
X031686Y001003D01*
X031623Y001031D01*
X031561Y001063D01*
X031501Y001098D01*
X031443Y001136D01*
X031388Y001177D01*
X031334Y001222D01*
X031283Y001269D01*
X031235Y001319D01*
X031190Y001371D01*
X031148Y001427D01*
X031109Y001484D01*
X031073Y001543D01*
X031040Y001604D01*
X031011Y001667D01*
X030986Y001732D01*
X030964Y001798D01*
X030945Y001865D01*
X030931Y001933D01*
X030920Y002001D01*
X030913Y002070D01*
X030910Y002139D01*
X030911Y002209D01*
X030916Y002278D01*
X030924Y002347D01*
X030936Y002415D01*
X030952Y002483D01*
X030972Y002549D01*
X030996Y002615D01*
X031023Y002678D01*
X031053Y002741D01*
X031087Y002801D01*
X031124Y002860D01*
X031165Y002916D01*
X031208Y002970D01*
X031255Y003022D01*
X031304Y003071D01*
X031356Y003117D01*
X031410Y003160D01*
X006410Y017160D02*
X006464Y017117D01*
X006516Y017071D01*
X006565Y017022D01*
X006612Y016970D01*
X006655Y016916D01*
X006696Y016860D01*
X006733Y016801D01*
X006767Y016741D01*
X006797Y016678D01*
X006824Y016615D01*
X006848Y016549D01*
X006868Y016483D01*
X006884Y016415D01*
X006896Y016347D01*
X006904Y016278D01*
X006909Y016209D01*
X006910Y016139D01*
X006907Y016070D01*
X006900Y016001D01*
X006889Y015933D01*
X006875Y015865D01*
X006856Y015798D01*
X006834Y015732D01*
X006809Y015667D01*
X006780Y015604D01*
X006747Y015543D01*
X006711Y015484D01*
X006672Y015427D01*
X006630Y015371D01*
X006585Y015319D01*
X006537Y015269D01*
X006486Y015222D01*
X006432Y015177D01*
X006377Y015136D01*
X006319Y015098D01*
X006259Y015063D01*
X006197Y015031D01*
X006134Y015003D01*
X006069Y014979D01*
X006003Y014958D01*
X005935Y014941D01*
X005867Y014927D01*
X005798Y014918D01*
X005729Y014912D01*
X005660Y014910D01*
X005591Y014912D01*
X005522Y014918D01*
X005453Y014927D01*
X005385Y014941D01*
X005317Y014958D01*
X005251Y014979D01*
X005186Y015003D01*
X005123Y015031D01*
X005061Y015063D01*
X005001Y015098D01*
X004943Y015136D01*
X004888Y015177D01*
X004834Y015222D01*
X004783Y015269D01*
X004735Y015319D01*
X004690Y015371D01*
X004648Y015427D01*
X004609Y015484D01*
X004573Y015543D01*
X004540Y015604D01*
X004511Y015667D01*
X004486Y015732D01*
X004464Y015798D01*
X004445Y015865D01*
X004431Y015933D01*
X004420Y016001D01*
X004413Y016070D01*
X004410Y016139D01*
X004411Y016209D01*
X004416Y016278D01*
X004424Y016347D01*
X004436Y016415D01*
X004452Y016483D01*
X004472Y016549D01*
X004496Y016615D01*
X004523Y016678D01*
X004553Y016741D01*
X004587Y016801D01*
X004624Y016860D01*
X004665Y016916D01*
X004708Y016970D01*
X004755Y017022D01*
X004804Y017071D01*
X004856Y017117D01*
X004910Y017160D01*
D11*
X001184Y016302D02*
X001186Y016349D01*
X001192Y016395D01*
X001202Y016441D01*
X001215Y016486D01*
X001233Y016529D01*
X001254Y016571D01*
X001278Y016611D01*
X001306Y016648D01*
X001337Y016683D01*
X001371Y016716D01*
X001407Y016745D01*
X001446Y016771D01*
X001487Y016794D01*
X001530Y016813D01*
X001574Y016829D01*
X001619Y016841D01*
X001665Y016849D01*
X001712Y016853D01*
X001758Y016853D01*
X001805Y016849D01*
X001851Y016841D01*
X001896Y016829D01*
X001940Y016813D01*
X001983Y016794D01*
X002024Y016771D01*
X002063Y016745D01*
X002099Y016716D01*
X002133Y016683D01*
X002164Y016648D01*
X002192Y016611D01*
X002216Y016571D01*
X002237Y016529D01*
X002255Y016486D01*
X002268Y016441D01*
X002278Y016395D01*
X002284Y016349D01*
X002286Y016302D01*
X002284Y016255D01*
X002278Y016209D01*
X002268Y016163D01*
X002255Y016118D01*
X002237Y016075D01*
X002216Y016033D01*
X002192Y015993D01*
X002164Y015956D01*
X002133Y015921D01*
X002099Y015888D01*
X002063Y015859D01*
X002024Y015833D01*
X001983Y015810D01*
X001940Y015791D01*
X001896Y015775D01*
X001851Y015763D01*
X001805Y015755D01*
X001758Y015751D01*
X001712Y015751D01*
X001665Y015755D01*
X001619Y015763D01*
X001574Y015775D01*
X001530Y015791D01*
X001487Y015810D01*
X001446Y015833D01*
X001407Y015859D01*
X001371Y015888D01*
X001337Y015921D01*
X001306Y015956D01*
X001278Y015993D01*
X001254Y016033D01*
X001233Y016075D01*
X001215Y016118D01*
X001202Y016163D01*
X001192Y016209D01*
X001186Y016255D01*
X001184Y016302D01*
X018015Y004156D02*
X018017Y004203D01*
X018023Y004249D01*
X018033Y004295D01*
X018046Y004340D01*
X018064Y004383D01*
X018085Y004425D01*
X018109Y004465D01*
X018137Y004502D01*
X018168Y004537D01*
X018202Y004570D01*
X018238Y004599D01*
X018277Y004625D01*
X018318Y004648D01*
X018361Y004667D01*
X018405Y004683D01*
X018450Y004695D01*
X018496Y004703D01*
X018543Y004707D01*
X018589Y004707D01*
X018636Y004703D01*
X018682Y004695D01*
X018727Y004683D01*
X018771Y004667D01*
X018814Y004648D01*
X018855Y004625D01*
X018894Y004599D01*
X018930Y004570D01*
X018964Y004537D01*
X018995Y004502D01*
X019023Y004465D01*
X019047Y004425D01*
X019068Y004383D01*
X019086Y004340D01*
X019099Y004295D01*
X019109Y004249D01*
X019115Y004203D01*
X019117Y004156D01*
X019115Y004109D01*
X019109Y004063D01*
X019099Y004017D01*
X019086Y003972D01*
X019068Y003929D01*
X019047Y003887D01*
X019023Y003847D01*
X018995Y003810D01*
X018964Y003775D01*
X018930Y003742D01*
X018894Y003713D01*
X018855Y003687D01*
X018814Y003664D01*
X018771Y003645D01*
X018727Y003629D01*
X018682Y003617D01*
X018636Y003609D01*
X018589Y003605D01*
X018543Y003605D01*
X018496Y003609D01*
X018450Y003617D01*
X018405Y003629D01*
X018361Y003645D01*
X018318Y003664D01*
X018277Y003687D01*
X018238Y003713D01*
X018202Y003742D01*
X018168Y003775D01*
X018137Y003810D01*
X018109Y003847D01*
X018085Y003887D01*
X018064Y003929D01*
X018046Y003972D01*
X018033Y004017D01*
X018023Y004063D01*
X018017Y004109D01*
X018015Y004156D01*
X035436Y016302D02*
X035438Y016349D01*
X035444Y016395D01*
X035454Y016441D01*
X035467Y016486D01*
X035485Y016529D01*
X035506Y016571D01*
X035530Y016611D01*
X035558Y016648D01*
X035589Y016683D01*
X035623Y016716D01*
X035659Y016745D01*
X035698Y016771D01*
X035739Y016794D01*
X035782Y016813D01*
X035826Y016829D01*
X035871Y016841D01*
X035917Y016849D01*
X035964Y016853D01*
X036010Y016853D01*
X036057Y016849D01*
X036103Y016841D01*
X036148Y016829D01*
X036192Y016813D01*
X036235Y016794D01*
X036276Y016771D01*
X036315Y016745D01*
X036351Y016716D01*
X036385Y016683D01*
X036416Y016648D01*
X036444Y016611D01*
X036468Y016571D01*
X036489Y016529D01*
X036507Y016486D01*
X036520Y016441D01*
X036530Y016395D01*
X036536Y016349D01*
X036538Y016302D01*
X036536Y016255D01*
X036530Y016209D01*
X036520Y016163D01*
X036507Y016118D01*
X036489Y016075D01*
X036468Y016033D01*
X036444Y015993D01*
X036416Y015956D01*
X036385Y015921D01*
X036351Y015888D01*
X036315Y015859D01*
X036276Y015833D01*
X036235Y015810D01*
X036192Y015791D01*
X036148Y015775D01*
X036103Y015763D01*
X036057Y015755D01*
X036010Y015751D01*
X035964Y015751D01*
X035917Y015755D01*
X035871Y015763D01*
X035826Y015775D01*
X035782Y015791D01*
X035739Y015810D01*
X035698Y015833D01*
X035659Y015859D01*
X035623Y015888D01*
X035589Y015921D01*
X035558Y015956D01*
X035530Y015993D01*
X035506Y016033D01*
X035485Y016075D01*
X035467Y016118D01*
X035454Y016163D01*
X035444Y016209D01*
X035438Y016255D01*
X035436Y016302D01*
D12*
X033110Y016310D02*
X033110Y016160D01*
X033060Y016110D01*
X033060Y014210D01*
X033110Y014160D01*
X033110Y014010D01*
X033108Y013993D01*
X033104Y013976D01*
X033097Y013960D01*
X033087Y013946D01*
X033074Y013933D01*
X033060Y013923D01*
X033044Y013916D01*
X033027Y013912D01*
X033010Y013910D01*
X032310Y013910D01*
X032293Y013912D01*
X032276Y013916D01*
X032260Y013923D01*
X032246Y013933D01*
X032233Y013946D01*
X032223Y013960D01*
X032216Y013976D01*
X032212Y013993D01*
X032210Y014010D01*
X032210Y014160D01*
X032260Y014210D01*
X032260Y016110D01*
X032210Y016160D01*
X032210Y016310D01*
X032212Y016327D01*
X032216Y016344D01*
X032223Y016360D01*
X032233Y016374D01*
X032246Y016387D01*
X032260Y016397D01*
X032276Y016404D01*
X032293Y016408D01*
X032310Y016410D01*
X033010Y016410D01*
X033027Y016408D01*
X033044Y016404D01*
X033060Y016397D01*
X033074Y016387D01*
X033087Y016374D01*
X033097Y016360D01*
X033104Y016344D01*
X033108Y016327D01*
X033110Y016310D01*
X031610Y016310D02*
X031610Y016160D01*
X031560Y016110D01*
X031560Y014210D01*
X031610Y014160D01*
X031610Y014010D01*
X031608Y013993D01*
X031604Y013976D01*
X031597Y013960D01*
X031587Y013946D01*
X031574Y013933D01*
X031560Y013923D01*
X031544Y013916D01*
X031527Y013912D01*
X031510Y013910D01*
X030810Y013910D01*
X030793Y013912D01*
X030776Y013916D01*
X030760Y013923D01*
X030746Y013933D01*
X030733Y013946D01*
X030723Y013960D01*
X030716Y013976D01*
X030712Y013993D01*
X030710Y014010D01*
X030710Y014160D01*
X030760Y014210D01*
X030760Y016110D01*
X030710Y016160D01*
X030710Y016310D01*
X030712Y016327D01*
X030716Y016344D01*
X030723Y016360D01*
X030733Y016374D01*
X030746Y016387D01*
X030760Y016397D01*
X030776Y016404D01*
X030793Y016408D01*
X030810Y016410D01*
X031510Y016410D01*
X031527Y016408D01*
X031544Y016404D01*
X031560Y016397D01*
X031574Y016387D01*
X031587Y016374D01*
X031597Y016360D01*
X031604Y016344D01*
X031608Y016327D01*
X031610Y016310D01*
X029926Y017137D02*
X029493Y016887D01*
X029151Y016979D01*
X029060Y016637D01*
X028627Y016387D01*
X028285Y016479D01*
X028193Y016137D01*
X027760Y015887D01*
X027419Y015979D01*
X027327Y015637D01*
X026894Y015387D01*
X026553Y015479D01*
X026461Y015137D01*
X026028Y014887D01*
X025687Y014979D01*
X025437Y015412D01*
X025528Y015753D01*
X025961Y016003D01*
X026303Y015912D01*
X026394Y016253D01*
X026827Y016503D01*
X027169Y016412D01*
X027419Y015979D01*
X026553Y015479D02*
X026303Y015912D01*
X027169Y016412D02*
X027260Y016753D01*
X027693Y017003D01*
X028035Y016912D01*
X028127Y017253D01*
X028560Y017503D01*
X028901Y017412D01*
X028993Y017753D01*
X029426Y018003D01*
X029767Y017912D01*
X029859Y018253D01*
X030292Y018503D01*
X030633Y018412D01*
X030883Y017979D01*
X030792Y017637D01*
X030359Y017387D01*
X030017Y017479D01*
X029926Y017137D01*
X030017Y017479D02*
X029767Y017912D01*
X028901Y017412D02*
X029151Y016979D01*
X028285Y016479D02*
X028035Y016912D01*
X026310Y013610D02*
X026160Y013610D01*
X026110Y013560D01*
X024210Y013560D01*
X024160Y013610D01*
X024010Y013610D01*
X023993Y013608D01*
X023976Y013604D01*
X023960Y013597D01*
X023946Y013587D01*
X023933Y013574D01*
X023923Y013560D01*
X023916Y013544D01*
X023912Y013527D01*
X023910Y013510D01*
X023910Y012810D01*
X023912Y012793D01*
X023916Y012776D01*
X023923Y012760D01*
X023933Y012746D01*
X023946Y012733D01*
X023960Y012723D01*
X023976Y012716D01*
X023993Y012712D01*
X024010Y012710D01*
X024160Y012710D01*
X024210Y012760D01*
X026110Y012760D01*
X026160Y012710D01*
X026310Y012710D01*
X026327Y012712D01*
X026344Y012716D01*
X026360Y012723D01*
X026374Y012733D01*
X026387Y012746D01*
X026397Y012760D01*
X026404Y012776D01*
X026408Y012793D01*
X026410Y012810D01*
X026410Y013510D01*
X026408Y013527D01*
X026404Y013544D01*
X026397Y013560D01*
X026387Y013574D01*
X026374Y013587D01*
X026360Y013597D01*
X026344Y013604D01*
X026327Y013608D01*
X026310Y013610D01*
X028160Y012660D02*
X028162Y012723D01*
X028168Y012785D01*
X028178Y012847D01*
X028191Y012909D01*
X028209Y012969D01*
X028230Y013028D01*
X028255Y013086D01*
X028284Y013142D01*
X028316Y013196D01*
X028351Y013248D01*
X028389Y013297D01*
X028431Y013345D01*
X028475Y013389D01*
X028523Y013431D01*
X028572Y013469D01*
X028624Y013504D01*
X028678Y013536D01*
X028734Y013565D01*
X028792Y013590D01*
X028851Y013611D01*
X028911Y013629D01*
X028973Y013642D01*
X029035Y013652D01*
X029097Y013658D01*
X029160Y013660D01*
X029223Y013658D01*
X029285Y013652D01*
X029347Y013642D01*
X029409Y013629D01*
X029469Y013611D01*
X029528Y013590D01*
X029586Y013565D01*
X029642Y013536D01*
X029696Y013504D01*
X029748Y013469D01*
X029797Y013431D01*
X029845Y013389D01*
X029889Y013345D01*
X029931Y013297D01*
X029969Y013248D01*
X030004Y013196D01*
X030036Y013142D01*
X030065Y013086D01*
X030090Y013028D01*
X030111Y012969D01*
X030129Y012909D01*
X030142Y012847D01*
X030152Y012785D01*
X030158Y012723D01*
X030160Y012660D01*
X030158Y012597D01*
X030152Y012535D01*
X030142Y012473D01*
X030129Y012411D01*
X030111Y012351D01*
X030090Y012292D01*
X030065Y012234D01*
X030036Y012178D01*
X030004Y012124D01*
X029969Y012072D01*
X029931Y012023D01*
X029889Y011975D01*
X029845Y011931D01*
X029797Y011889D01*
X029748Y011851D01*
X029696Y011816D01*
X029642Y011784D01*
X029586Y011755D01*
X029528Y011730D01*
X029469Y011709D01*
X029409Y011691D01*
X029347Y011678D01*
X029285Y011668D01*
X029223Y011662D01*
X029160Y011660D01*
X029097Y011662D01*
X029035Y011668D01*
X028973Y011678D01*
X028911Y011691D01*
X028851Y011709D01*
X028792Y011730D01*
X028734Y011755D01*
X028678Y011784D01*
X028624Y011816D01*
X028572Y011851D01*
X028523Y011889D01*
X028475Y011931D01*
X028431Y011975D01*
X028389Y012023D01*
X028351Y012072D01*
X028316Y012124D01*
X028284Y012178D01*
X028255Y012234D01*
X028230Y012292D01*
X028209Y012351D01*
X028191Y012411D01*
X028178Y012473D01*
X028168Y012535D01*
X028162Y012597D01*
X028160Y012660D01*
X023310Y011660D02*
X021010Y011660D01*
X021010Y003660D01*
X021760Y003660D01*
X021762Y003699D01*
X021768Y003738D01*
X021777Y003776D01*
X021790Y003813D01*
X021807Y003849D01*
X021827Y003882D01*
X021851Y003914D01*
X021877Y003943D01*
X021906Y003969D01*
X021938Y003993D01*
X021971Y004013D01*
X022007Y004030D01*
X022044Y004043D01*
X022082Y004052D01*
X022121Y004058D01*
X022160Y004060D01*
X022199Y004058D01*
X022238Y004052D01*
X022276Y004043D01*
X022313Y004030D01*
X022349Y004013D01*
X022382Y003993D01*
X022414Y003969D01*
X022443Y003943D01*
X022469Y003914D01*
X022493Y003882D01*
X022513Y003849D01*
X022530Y003813D01*
X022543Y003776D01*
X022552Y003738D01*
X022558Y003699D01*
X022560Y003660D01*
X023310Y003660D01*
X023310Y011660D01*
X026510Y009610D02*
X026660Y009610D01*
X026710Y009560D01*
X028610Y009560D01*
X028660Y009610D01*
X028810Y009610D01*
X028827Y009608D01*
X028844Y009604D01*
X028860Y009597D01*
X028874Y009587D01*
X028887Y009574D01*
X028897Y009560D01*
X028904Y009544D01*
X028908Y009527D01*
X028910Y009510D01*
X028910Y008810D01*
X028908Y008793D01*
X028904Y008776D01*
X028897Y008760D01*
X028887Y008746D01*
X028874Y008733D01*
X028860Y008723D01*
X028844Y008716D01*
X028827Y008712D01*
X028810Y008710D01*
X028660Y008710D01*
X028610Y008760D01*
X026710Y008760D01*
X026660Y008710D01*
X026510Y008710D01*
X026493Y008712D01*
X026476Y008716D01*
X026460Y008723D01*
X026446Y008733D01*
X026433Y008746D01*
X026423Y008760D01*
X026416Y008776D01*
X026412Y008793D01*
X026410Y008810D01*
X026410Y009510D01*
X026412Y009527D01*
X026416Y009544D01*
X026423Y009560D01*
X026433Y009574D01*
X026446Y009587D01*
X026460Y009597D01*
X026476Y009604D01*
X026493Y009608D01*
X026510Y009610D01*
X026510Y008110D02*
X026660Y008110D01*
X026710Y008060D01*
X028610Y008060D01*
X028660Y008110D01*
X028810Y008110D01*
X028827Y008108D01*
X028844Y008104D01*
X028860Y008097D01*
X028874Y008087D01*
X028887Y008074D01*
X028897Y008060D01*
X028904Y008044D01*
X028908Y008027D01*
X028910Y008010D01*
X028910Y007310D01*
X028908Y007293D01*
X028904Y007276D01*
X028897Y007260D01*
X028887Y007246D01*
X028874Y007233D01*
X028860Y007223D01*
X028844Y007216D01*
X028827Y007212D01*
X028810Y007210D01*
X028660Y007210D01*
X028610Y007260D01*
X026710Y007260D01*
X026660Y007210D01*
X026510Y007210D01*
X026493Y007212D01*
X026476Y007216D01*
X026460Y007223D01*
X026446Y007233D01*
X026433Y007246D01*
X026423Y007260D01*
X026416Y007276D01*
X026412Y007293D01*
X026410Y007310D01*
X026410Y008010D01*
X026412Y008027D01*
X026416Y008044D01*
X026423Y008060D01*
X026433Y008074D01*
X026446Y008087D01*
X026460Y008097D01*
X026476Y008104D01*
X026493Y008108D01*
X026510Y008110D01*
X026510Y006610D02*
X026660Y006610D01*
X026710Y006560D01*
X028610Y006560D01*
X028660Y006610D01*
X028810Y006610D01*
X028827Y006608D01*
X028844Y006604D01*
X028860Y006597D01*
X028874Y006587D01*
X028887Y006574D01*
X028897Y006560D01*
X028904Y006544D01*
X028908Y006527D01*
X028910Y006510D01*
X028910Y005810D01*
X028908Y005793D01*
X028904Y005776D01*
X028897Y005760D01*
X028887Y005746D01*
X028874Y005733D01*
X028860Y005723D01*
X028844Y005716D01*
X028827Y005712D01*
X028810Y005710D01*
X028660Y005710D01*
X028610Y005760D01*
X026710Y005760D01*
X026660Y005710D01*
X026510Y005710D01*
X026510Y005610D02*
X026660Y005610D01*
X026710Y005560D01*
X028610Y005560D01*
X028660Y005610D01*
X028810Y005610D01*
X028827Y005608D01*
X028844Y005604D01*
X028860Y005597D01*
X028874Y005587D01*
X028887Y005574D01*
X028897Y005560D01*
X028904Y005544D01*
X028908Y005527D01*
X028910Y005510D01*
X028910Y004810D01*
X028908Y004793D01*
X028904Y004776D01*
X028897Y004760D01*
X028887Y004746D01*
X028874Y004733D01*
X028860Y004723D01*
X028844Y004716D01*
X028827Y004712D01*
X028810Y004710D01*
X028660Y004710D01*
X028610Y004760D01*
X026710Y004760D01*
X026660Y004710D01*
X026510Y004710D01*
X026493Y004712D01*
X026476Y004716D01*
X026460Y004723D01*
X026446Y004733D01*
X026433Y004746D01*
X026423Y004760D01*
X026416Y004776D01*
X026412Y004793D01*
X026410Y004810D01*
X026410Y005510D01*
X026412Y005527D01*
X026416Y005544D01*
X026423Y005560D01*
X026433Y005574D01*
X026446Y005587D01*
X026460Y005597D01*
X026476Y005604D01*
X026493Y005608D01*
X026510Y005610D01*
X026510Y005710D02*
X026493Y005712D01*
X026476Y005716D01*
X026460Y005723D01*
X026446Y005733D01*
X026433Y005746D01*
X026423Y005760D01*
X026416Y005776D01*
X026412Y005793D01*
X026410Y005810D01*
X026410Y006510D01*
X026412Y006527D01*
X026416Y006544D01*
X026423Y006560D01*
X026433Y006574D01*
X026446Y006587D01*
X026460Y006597D01*
X026476Y006604D01*
X026493Y006608D01*
X026510Y006610D01*
X022310Y003110D02*
X021010Y003110D01*
X020984Y003108D01*
X020958Y003103D01*
X020933Y003095D01*
X020910Y003083D01*
X020888Y003069D01*
X020869Y003051D01*
X020851Y003032D01*
X020837Y003010D01*
X020825Y002987D01*
X020817Y002962D01*
X020812Y002936D01*
X020810Y002910D01*
X021160Y002660D02*
X021540Y002660D01*
X021790Y002660D02*
X022160Y002660D01*
X022510Y002410D02*
X022508Y002384D01*
X022503Y002358D01*
X022495Y002333D01*
X022483Y002310D01*
X022469Y002288D01*
X022451Y002269D01*
X022432Y002251D01*
X022410Y002237D01*
X022387Y002225D01*
X022362Y002217D01*
X022336Y002212D01*
X022310Y002210D01*
X021010Y002210D01*
X020984Y002212D01*
X020958Y002217D01*
X020933Y002225D01*
X020910Y002237D01*
X020888Y002251D01*
X020869Y002269D01*
X020851Y002288D01*
X020837Y002310D01*
X020825Y002333D01*
X020817Y002358D01*
X020812Y002384D01*
X020810Y002410D01*
X022310Y003110D02*
X022336Y003108D01*
X022362Y003103D01*
X022387Y003095D01*
X022410Y003083D01*
X022432Y003069D01*
X022451Y003051D01*
X022469Y003032D01*
X022483Y003010D01*
X022495Y002987D01*
X022503Y002962D01*
X022508Y002936D01*
X022510Y002910D01*
X016960Y003860D02*
X016960Y004460D01*
X016860Y004460D01*
X016860Y004560D01*
X016860Y003860D02*
X016860Y003760D01*
X016860Y003860D02*
X016960Y003860D01*
X015560Y004160D02*
X015562Y004180D01*
X015568Y004198D01*
X015577Y004216D01*
X015589Y004231D01*
X015604Y004243D01*
X015622Y004252D01*
X015640Y004258D01*
X015660Y004260D01*
X015680Y004258D01*
X015698Y004252D01*
X015716Y004243D01*
X015731Y004231D01*
X015743Y004216D01*
X015752Y004198D01*
X015758Y004180D01*
X015760Y004160D01*
X015758Y004140D01*
X015752Y004122D01*
X015743Y004104D01*
X015731Y004089D01*
X015716Y004077D01*
X015698Y004068D01*
X015680Y004062D01*
X015660Y004060D01*
X015640Y004062D01*
X015622Y004068D01*
X015604Y004077D01*
X015589Y004089D01*
X015577Y004104D01*
X015568Y004122D01*
X015562Y004140D01*
X015560Y004160D01*
X014960Y004160D02*
X014962Y004212D01*
X014968Y004264D01*
X014978Y004316D01*
X014991Y004366D01*
X015008Y004416D01*
X015029Y004464D01*
X015054Y004510D01*
X015082Y004554D01*
X015113Y004596D01*
X015147Y004636D01*
X015184Y004673D01*
X015224Y004707D01*
X015266Y004738D01*
X015310Y004766D01*
X015356Y004791D01*
X015404Y004812D01*
X015454Y004829D01*
X015504Y004842D01*
X015556Y004852D01*
X015608Y004858D01*
X015660Y004860D01*
X015712Y004858D01*
X015764Y004852D01*
X015816Y004842D01*
X015866Y004829D01*
X015916Y004812D01*
X015964Y004791D01*
X016010Y004766D01*
X016054Y004738D01*
X016096Y004707D01*
X016136Y004673D01*
X016173Y004636D01*
X016207Y004596D01*
X016238Y004554D01*
X016266Y004510D01*
X016291Y004464D01*
X016312Y004416D01*
X016329Y004366D01*
X016342Y004316D01*
X016352Y004264D01*
X016358Y004212D01*
X016360Y004160D01*
X016358Y004108D01*
X016352Y004056D01*
X016342Y004004D01*
X016329Y003954D01*
X016312Y003904D01*
X016291Y003856D01*
X016266Y003810D01*
X016238Y003766D01*
X016207Y003724D01*
X016173Y003684D01*
X016136Y003647D01*
X016096Y003613D01*
X016054Y003582D01*
X016010Y003554D01*
X015964Y003529D01*
X015916Y003508D01*
X015866Y003491D01*
X015816Y003478D01*
X015764Y003468D01*
X015712Y003462D01*
X015660Y003460D01*
X015608Y003462D01*
X015556Y003468D01*
X015504Y003478D01*
X015454Y003491D01*
X015404Y003508D01*
X015356Y003529D01*
X015310Y003554D01*
X015266Y003582D01*
X015224Y003613D01*
X015184Y003647D01*
X015147Y003684D01*
X015113Y003724D01*
X015082Y003766D01*
X015054Y003810D01*
X015029Y003856D01*
X015008Y003904D01*
X014991Y003954D01*
X014978Y004004D01*
X014968Y004056D01*
X014962Y004108D01*
X014960Y004160D01*
X014460Y003860D02*
X014460Y003760D01*
X014460Y003860D02*
X014360Y003860D01*
X014360Y004460D01*
X014460Y004460D01*
X014460Y004560D01*
X014810Y005360D02*
X015160Y005360D01*
X016160Y005360D01*
X016510Y005360D01*
X014410Y005810D02*
X014410Y006510D01*
X014408Y006527D01*
X014404Y006544D01*
X014397Y006560D01*
X014387Y006574D01*
X014374Y006587D01*
X014360Y006597D01*
X014344Y006604D01*
X014327Y006608D01*
X014310Y006610D01*
X014160Y006610D01*
X014110Y006560D01*
X012210Y006560D01*
X012160Y006610D01*
X012010Y006610D01*
X011993Y006608D01*
X011976Y006604D01*
X011960Y006597D01*
X011946Y006587D01*
X011933Y006574D01*
X011923Y006560D01*
X011916Y006544D01*
X011912Y006527D01*
X011910Y006510D01*
X011910Y005810D01*
X011912Y005793D01*
X011916Y005776D01*
X011923Y005760D01*
X011933Y005746D01*
X011946Y005733D01*
X011960Y005723D01*
X011976Y005716D01*
X011993Y005712D01*
X012010Y005710D01*
X012160Y005710D01*
X012210Y005760D01*
X014110Y005760D01*
X014160Y005710D01*
X014310Y005710D01*
X014327Y005712D01*
X014344Y005716D01*
X014360Y005723D01*
X014374Y005733D01*
X014387Y005746D01*
X014397Y005760D01*
X014404Y005776D01*
X014408Y005793D01*
X014410Y005810D01*
X012460Y004460D02*
X012360Y004460D01*
X012360Y004560D01*
X012460Y004460D02*
X012460Y003860D01*
X012360Y003860D01*
X012360Y003760D01*
X011060Y004160D02*
X011062Y004180D01*
X011068Y004198D01*
X011077Y004216D01*
X011089Y004231D01*
X011104Y004243D01*
X011122Y004252D01*
X011140Y004258D01*
X011160Y004260D01*
X011180Y004258D01*
X011198Y004252D01*
X011216Y004243D01*
X011231Y004231D01*
X011243Y004216D01*
X011252Y004198D01*
X011258Y004180D01*
X011260Y004160D01*
X011258Y004140D01*
X011252Y004122D01*
X011243Y004104D01*
X011231Y004089D01*
X011216Y004077D01*
X011198Y004068D01*
X011180Y004062D01*
X011160Y004060D01*
X011140Y004062D01*
X011122Y004068D01*
X011104Y004077D01*
X011089Y004089D01*
X011077Y004104D01*
X011068Y004122D01*
X011062Y004140D01*
X011060Y004160D01*
X010460Y004160D02*
X010462Y004212D01*
X010468Y004264D01*
X010478Y004316D01*
X010491Y004366D01*
X010508Y004416D01*
X010529Y004464D01*
X010554Y004510D01*
X010582Y004554D01*
X010613Y004596D01*
X010647Y004636D01*
X010684Y004673D01*
X010724Y004707D01*
X010766Y004738D01*
X010810Y004766D01*
X010856Y004791D01*
X010904Y004812D01*
X010954Y004829D01*
X011004Y004842D01*
X011056Y004852D01*
X011108Y004858D01*
X011160Y004860D01*
X011212Y004858D01*
X011264Y004852D01*
X011316Y004842D01*
X011366Y004829D01*
X011416Y004812D01*
X011464Y004791D01*
X011510Y004766D01*
X011554Y004738D01*
X011596Y004707D01*
X011636Y004673D01*
X011673Y004636D01*
X011707Y004596D01*
X011738Y004554D01*
X011766Y004510D01*
X011791Y004464D01*
X011812Y004416D01*
X011829Y004366D01*
X011842Y004316D01*
X011852Y004264D01*
X011858Y004212D01*
X011860Y004160D01*
X011858Y004108D01*
X011852Y004056D01*
X011842Y004004D01*
X011829Y003954D01*
X011812Y003904D01*
X011791Y003856D01*
X011766Y003810D01*
X011738Y003766D01*
X011707Y003724D01*
X011673Y003684D01*
X011636Y003647D01*
X011596Y003613D01*
X011554Y003582D01*
X011510Y003554D01*
X011464Y003529D01*
X011416Y003508D01*
X011366Y003491D01*
X011316Y003478D01*
X011264Y003468D01*
X011212Y003462D01*
X011160Y003460D01*
X011108Y003462D01*
X011056Y003468D01*
X011004Y003478D01*
X010954Y003491D01*
X010904Y003508D01*
X010856Y003529D01*
X010810Y003554D01*
X010766Y003582D01*
X010724Y003613D01*
X010684Y003647D01*
X010647Y003684D01*
X010613Y003724D01*
X010582Y003766D01*
X010554Y003810D01*
X010529Y003856D01*
X010508Y003904D01*
X010491Y003954D01*
X010478Y004004D01*
X010468Y004056D01*
X010462Y004108D01*
X010460Y004160D01*
X009960Y003860D02*
X009960Y003760D01*
X009960Y003860D02*
X009860Y003860D01*
X009860Y004460D01*
X009960Y004460D01*
X009960Y004560D01*
X010310Y005360D02*
X010660Y005360D01*
X011660Y005360D01*
X012010Y005360D01*
X012160Y007210D02*
X012310Y007210D01*
X012327Y007212D01*
X012344Y007216D01*
X012360Y007223D01*
X012374Y007233D01*
X012387Y007246D01*
X012397Y007260D01*
X012404Y007276D01*
X012408Y007293D01*
X012410Y007310D01*
X012410Y008010D01*
X012408Y008027D01*
X012404Y008044D01*
X012397Y008060D01*
X012387Y008074D01*
X012374Y008087D01*
X012360Y008097D01*
X012344Y008104D01*
X012327Y008108D01*
X012310Y008110D01*
X012160Y008110D01*
X012110Y008060D01*
X010210Y008060D01*
X010160Y008110D01*
X010010Y008110D01*
X009993Y008108D01*
X009976Y008104D01*
X009960Y008097D01*
X009946Y008087D01*
X009933Y008074D01*
X009923Y008060D01*
X009916Y008044D01*
X009912Y008027D01*
X009910Y008010D01*
X009910Y007310D01*
X009912Y007293D01*
X009916Y007276D01*
X009923Y007260D01*
X009933Y007246D01*
X009946Y007233D01*
X009960Y007223D01*
X009976Y007216D01*
X009993Y007212D01*
X010010Y007210D01*
X010160Y007210D01*
X010210Y007260D01*
X012110Y007260D01*
X012160Y007210D01*
X007310Y009610D02*
X007010Y009610D01*
X007160Y009460D02*
X007160Y009760D01*
X005810Y010660D02*
X005812Y010733D01*
X005818Y010806D01*
X005828Y010878D01*
X005842Y010950D01*
X005859Y011021D01*
X005881Y011091D01*
X005906Y011160D01*
X005935Y011227D01*
X005967Y011292D01*
X006003Y011356D01*
X006043Y011418D01*
X006085Y011477D01*
X006131Y011534D01*
X006180Y011588D01*
X006232Y011640D01*
X006286Y011689D01*
X006343Y011735D01*
X006402Y011777D01*
X006464Y011817D01*
X006528Y011853D01*
X006593Y011885D01*
X006660Y011914D01*
X006729Y011939D01*
X006799Y011961D01*
X006870Y011978D01*
X006942Y011992D01*
X007014Y012002D01*
X007087Y012008D01*
X007160Y012010D01*
X007233Y012008D01*
X007306Y012002D01*
X007378Y011992D01*
X007450Y011978D01*
X007521Y011961D01*
X007591Y011939D01*
X007660Y011914D01*
X007727Y011885D01*
X007792Y011853D01*
X007856Y011817D01*
X007918Y011777D01*
X007977Y011735D01*
X008034Y011689D01*
X008088Y011640D01*
X008140Y011588D01*
X008189Y011534D01*
X008235Y011477D01*
X008277Y011418D01*
X008317Y011356D01*
X008353Y011292D01*
X008385Y011227D01*
X008414Y011160D01*
X008439Y011091D01*
X008461Y011021D01*
X008478Y010950D01*
X008492Y010878D01*
X008502Y010806D01*
X008508Y010733D01*
X008510Y010660D01*
X008508Y010587D01*
X008502Y010514D01*
X008492Y010442D01*
X008478Y010370D01*
X008461Y010299D01*
X008439Y010229D01*
X008414Y010160D01*
X008385Y010093D01*
X008353Y010028D01*
X008317Y009964D01*
X008277Y009902D01*
X008235Y009843D01*
X008189Y009786D01*
X008140Y009732D01*
X008088Y009680D01*
X008034Y009631D01*
X007977Y009585D01*
X007918Y009543D01*
X007856Y009503D01*
X007792Y009467D01*
X007727Y009435D01*
X007660Y009406D01*
X007591Y009381D01*
X007521Y009359D01*
X007450Y009342D01*
X007378Y009328D01*
X007306Y009318D01*
X007233Y009312D01*
X007160Y009310D01*
X007087Y009312D01*
X007014Y009318D01*
X006942Y009328D01*
X006870Y009342D01*
X006799Y009359D01*
X006729Y009381D01*
X006660Y009406D01*
X006593Y009435D01*
X006528Y009467D01*
X006464Y009503D01*
X006402Y009543D01*
X006343Y009585D01*
X006286Y009631D01*
X006232Y009680D01*
X006180Y009732D01*
X006131Y009786D01*
X006085Y009843D01*
X006043Y009902D01*
X006003Y009964D01*
X005967Y010028D01*
X005935Y010093D01*
X005906Y010160D01*
X005881Y010229D01*
X005859Y010299D01*
X005842Y010370D01*
X005828Y010442D01*
X005818Y010514D01*
X005812Y010587D01*
X005810Y010660D01*
X004160Y010410D02*
X004160Y009910D01*
X003910Y009660D01*
X004160Y009410D01*
X004160Y008910D01*
X003910Y008660D01*
X004160Y008410D01*
X004160Y007910D01*
X003910Y007660D01*
X003410Y007660D01*
X003160Y007910D01*
X003160Y008410D01*
X003410Y008660D01*
X003160Y008910D01*
X003160Y009410D01*
X003410Y009660D01*
X003910Y009660D01*
X003410Y009660D02*
X003160Y009910D01*
X003160Y010410D01*
X003410Y010660D01*
X003160Y010910D01*
X003160Y011410D01*
X003410Y011660D01*
X003160Y011910D01*
X003160Y012410D01*
X003410Y012660D01*
X003160Y012910D01*
X003160Y013410D01*
X003410Y013660D01*
X003910Y013660D01*
X004160Y013410D01*
X004160Y012910D01*
X003910Y012660D01*
X004160Y012410D01*
X004160Y011910D01*
X003910Y011660D01*
X004160Y011410D01*
X004160Y010910D01*
X003910Y010660D01*
X004160Y010410D01*
X003910Y010660D02*
X003410Y010660D01*
X003410Y011660D02*
X003910Y011660D01*
X003910Y012660D02*
X003410Y012660D01*
X006660Y013178D02*
X006660Y013678D01*
X006910Y013928D01*
X007410Y013928D01*
X007660Y013678D01*
X007910Y013928D01*
X008410Y013928D01*
X008660Y013678D01*
X008910Y013928D01*
X009410Y013928D01*
X009660Y013678D01*
X009910Y013928D01*
X010410Y013928D01*
X010660Y013678D01*
X010910Y013928D01*
X011410Y013928D01*
X011660Y013678D01*
X011910Y013928D01*
X012410Y013928D01*
X012660Y013678D01*
X012910Y013928D01*
X013410Y013928D01*
X013660Y013678D01*
X013910Y013928D01*
X014410Y013928D01*
X014660Y013678D01*
X014910Y013928D01*
X015410Y013928D01*
X015660Y013678D01*
X015660Y013178D01*
X015410Y012928D01*
X014910Y012928D01*
X014660Y013178D01*
X014410Y012928D01*
X013910Y012928D01*
X013660Y013178D01*
X013660Y013678D01*
X014660Y013678D02*
X014660Y013178D01*
X013660Y013178D02*
X013410Y012928D01*
X012910Y012928D01*
X012660Y013178D01*
X012410Y012928D01*
X011910Y012928D01*
X011660Y013178D01*
X011410Y012928D01*
X010910Y012928D01*
X010660Y013178D01*
X010660Y013678D01*
X011660Y013678D02*
X011660Y013178D01*
X010660Y013178D02*
X010410Y012928D01*
X009910Y012928D01*
X009660Y013178D01*
X009410Y012928D01*
X008910Y012928D01*
X008660Y013178D01*
X008410Y012928D01*
X007910Y012928D01*
X007660Y013178D01*
X007410Y012928D01*
X006910Y012928D01*
X006660Y013178D01*
X007660Y013178D02*
X007660Y013678D01*
X008660Y013678D02*
X008660Y013178D01*
X009660Y013178D02*
X009660Y013678D01*
X011118Y014995D02*
X011527Y014709D01*
X011876Y014770D01*
X012162Y015179D01*
X012101Y015528D01*
X011691Y015814D01*
X011343Y015753D01*
X011056Y015343D01*
X011118Y014995D01*
X011056Y015343D02*
X010708Y015282D01*
X010299Y015569D01*
X010237Y015917D01*
X009889Y015856D01*
X009480Y016142D01*
X009418Y016491D01*
X009070Y016429D01*
X008660Y016716D01*
X008599Y017064D01*
X008251Y017003D01*
X007841Y017290D01*
X007780Y017638D01*
X007432Y017576D01*
X007022Y017863D01*
X006961Y018211D01*
X007248Y018621D01*
X007596Y018682D01*
X008005Y018396D01*
X008067Y018047D01*
X008415Y018109D01*
X008824Y017822D01*
X008886Y017474D01*
X008599Y017064D01*
X008886Y017474D02*
X009234Y017535D01*
X009644Y017248D01*
X009705Y016900D01*
X010053Y016962D01*
X010463Y016675D01*
X010524Y016327D01*
X010872Y016388D01*
X011282Y016101D01*
X011343Y015753D01*
X010524Y016327D02*
X010237Y015917D01*
X009418Y016491D02*
X009705Y016900D01*
X008067Y018047D02*
X007780Y017638D01*
X004660Y016160D02*
X004662Y016223D01*
X004668Y016285D01*
X004678Y016347D01*
X004691Y016409D01*
X004709Y016469D01*
X004730Y016528D01*
X004755Y016586D01*
X004784Y016642D01*
X004816Y016696D01*
X004851Y016748D01*
X004889Y016797D01*
X004931Y016845D01*
X004975Y016889D01*
X005023Y016931D01*
X005072Y016969D01*
X005124Y017004D01*
X005178Y017036D01*
X005234Y017065D01*
X005292Y017090D01*
X005351Y017111D01*
X005411Y017129D01*
X005473Y017142D01*
X005535Y017152D01*
X005597Y017158D01*
X005660Y017160D01*
X005723Y017158D01*
X005785Y017152D01*
X005847Y017142D01*
X005909Y017129D01*
X005969Y017111D01*
X006028Y017090D01*
X006086Y017065D01*
X006142Y017036D01*
X006196Y017004D01*
X006248Y016969D01*
X006297Y016931D01*
X006345Y016889D01*
X006389Y016845D01*
X006431Y016797D01*
X006469Y016748D01*
X006504Y016696D01*
X006536Y016642D01*
X006565Y016586D01*
X006590Y016528D01*
X006611Y016469D01*
X006629Y016409D01*
X006642Y016347D01*
X006652Y016285D01*
X006658Y016223D01*
X006660Y016160D01*
X006658Y016097D01*
X006652Y016035D01*
X006642Y015973D01*
X006629Y015911D01*
X006611Y015851D01*
X006590Y015792D01*
X006565Y015734D01*
X006536Y015678D01*
X006504Y015624D01*
X006469Y015572D01*
X006431Y015523D01*
X006389Y015475D01*
X006345Y015431D01*
X006297Y015389D01*
X006248Y015351D01*
X006196Y015316D01*
X006142Y015284D01*
X006086Y015255D01*
X006028Y015230D01*
X005969Y015209D01*
X005909Y015191D01*
X005847Y015178D01*
X005785Y015168D01*
X005723Y015162D01*
X005660Y015160D01*
X005597Y015162D01*
X005535Y015168D01*
X005473Y015178D01*
X005411Y015191D01*
X005351Y015209D01*
X005292Y015230D01*
X005234Y015255D01*
X005178Y015284D01*
X005124Y015316D01*
X005072Y015351D01*
X005023Y015389D01*
X004975Y015431D01*
X004931Y015475D01*
X004889Y015523D01*
X004851Y015572D01*
X004816Y015624D01*
X004784Y015678D01*
X004755Y015734D01*
X004730Y015792D01*
X004709Y015851D01*
X004691Y015911D01*
X004678Y015973D01*
X004668Y016035D01*
X004662Y016097D01*
X004660Y016160D01*
X012660Y013678D02*
X012660Y013178D01*
X015861Y014910D02*
X016111Y014660D01*
X016611Y014660D01*
X016861Y014910D01*
X017111Y014660D01*
X017611Y014660D01*
X017861Y014910D01*
X017861Y015410D01*
X017611Y015660D01*
X017111Y015660D01*
X016861Y015410D01*
X016861Y014910D01*
X016861Y015410D02*
X016611Y015660D01*
X016111Y015660D01*
X015861Y015410D01*
X015861Y014910D01*
X017861Y014910D02*
X018111Y014660D01*
X018611Y014660D01*
X018861Y014910D01*
X019111Y014660D01*
X019611Y014660D01*
X019861Y014910D01*
X020111Y014660D01*
X020611Y014660D01*
X020861Y014910D01*
X021111Y014660D01*
X021611Y014660D01*
X021861Y014910D01*
X021861Y015410D01*
X021611Y015660D01*
X021111Y015660D01*
X020861Y015410D01*
X020861Y014910D01*
X020861Y015410D02*
X020611Y015660D01*
X020111Y015660D01*
X019861Y015410D01*
X019861Y014910D01*
X019861Y015410D02*
X019611Y015660D01*
X019111Y015660D01*
X018861Y015410D01*
X018861Y014910D01*
X018861Y015410D02*
X018611Y015660D01*
X018111Y015660D01*
X017861Y015410D01*
X018160Y012660D02*
X018162Y012723D01*
X018168Y012785D01*
X018178Y012847D01*
X018191Y012909D01*
X018209Y012969D01*
X018230Y013028D01*
X018255Y013086D01*
X018284Y013142D01*
X018316Y013196D01*
X018351Y013248D01*
X018389Y013297D01*
X018431Y013345D01*
X018475Y013389D01*
X018523Y013431D01*
X018572Y013469D01*
X018624Y013504D01*
X018678Y013536D01*
X018734Y013565D01*
X018792Y013590D01*
X018851Y013611D01*
X018911Y013629D01*
X018973Y013642D01*
X019035Y013652D01*
X019097Y013658D01*
X019160Y013660D01*
X019223Y013658D01*
X019285Y013652D01*
X019347Y013642D01*
X019409Y013629D01*
X019469Y013611D01*
X019528Y013590D01*
X019586Y013565D01*
X019642Y013536D01*
X019696Y013504D01*
X019748Y013469D01*
X019797Y013431D01*
X019845Y013389D01*
X019889Y013345D01*
X019931Y013297D01*
X019969Y013248D01*
X020004Y013196D01*
X020036Y013142D01*
X020065Y013086D01*
X020090Y013028D01*
X020111Y012969D01*
X020129Y012909D01*
X020142Y012847D01*
X020152Y012785D01*
X020158Y012723D01*
X020160Y012660D01*
X020158Y012597D01*
X020152Y012535D01*
X020142Y012473D01*
X020129Y012411D01*
X020111Y012351D01*
X020090Y012292D01*
X020065Y012234D01*
X020036Y012178D01*
X020004Y012124D01*
X019969Y012072D01*
X019931Y012023D01*
X019889Y011975D01*
X019845Y011931D01*
X019797Y011889D01*
X019748Y011851D01*
X019696Y011816D01*
X019642Y011784D01*
X019586Y011755D01*
X019528Y011730D01*
X019469Y011709D01*
X019409Y011691D01*
X019347Y011678D01*
X019285Y011668D01*
X019223Y011662D01*
X019160Y011660D01*
X019097Y011662D01*
X019035Y011668D01*
X018973Y011678D01*
X018911Y011691D01*
X018851Y011709D01*
X018792Y011730D01*
X018734Y011755D01*
X018678Y011784D01*
X018624Y011816D01*
X018572Y011851D01*
X018523Y011889D01*
X018475Y011931D01*
X018431Y011975D01*
X018389Y012023D01*
X018351Y012072D01*
X018316Y012124D01*
X018284Y012178D01*
X018255Y012234D01*
X018230Y012292D01*
X018209Y012351D01*
X018191Y012411D01*
X018178Y012473D01*
X018168Y012535D01*
X018162Y012597D01*
X018160Y012660D01*
X003660Y006160D02*
X003662Y006223D01*
X003668Y006285D01*
X003678Y006347D01*
X003691Y006409D01*
X003709Y006469D01*
X003730Y006528D01*
X003755Y006586D01*
X003784Y006642D01*
X003816Y006696D01*
X003851Y006748D01*
X003889Y006797D01*
X003931Y006845D01*
X003975Y006889D01*
X004023Y006931D01*
X004072Y006969D01*
X004124Y007004D01*
X004178Y007036D01*
X004234Y007065D01*
X004292Y007090D01*
X004351Y007111D01*
X004411Y007129D01*
X004473Y007142D01*
X004535Y007152D01*
X004597Y007158D01*
X004660Y007160D01*
X004723Y007158D01*
X004785Y007152D01*
X004847Y007142D01*
X004909Y007129D01*
X004969Y007111D01*
X005028Y007090D01*
X005086Y007065D01*
X005142Y007036D01*
X005196Y007004D01*
X005248Y006969D01*
X005297Y006931D01*
X005345Y006889D01*
X005389Y006845D01*
X005431Y006797D01*
X005469Y006748D01*
X005504Y006696D01*
X005536Y006642D01*
X005565Y006586D01*
X005590Y006528D01*
X005611Y006469D01*
X005629Y006409D01*
X005642Y006347D01*
X005652Y006285D01*
X005658Y006223D01*
X005660Y006160D01*
X005658Y006097D01*
X005652Y006035D01*
X005642Y005973D01*
X005629Y005911D01*
X005611Y005851D01*
X005590Y005792D01*
X005565Y005734D01*
X005536Y005678D01*
X005504Y005624D01*
X005469Y005572D01*
X005431Y005523D01*
X005389Y005475D01*
X005345Y005431D01*
X005297Y005389D01*
X005248Y005351D01*
X005196Y005316D01*
X005142Y005284D01*
X005086Y005255D01*
X005028Y005230D01*
X004969Y005209D01*
X004909Y005191D01*
X004847Y005178D01*
X004785Y005168D01*
X004723Y005162D01*
X004660Y005160D01*
X004597Y005162D01*
X004535Y005168D01*
X004473Y005178D01*
X004411Y005191D01*
X004351Y005209D01*
X004292Y005230D01*
X004234Y005255D01*
X004178Y005284D01*
X004124Y005316D01*
X004072Y005351D01*
X004023Y005389D01*
X003975Y005431D01*
X003931Y005475D01*
X003889Y005523D01*
X003851Y005572D01*
X003816Y005624D01*
X003784Y005678D01*
X003755Y005734D01*
X003730Y005792D01*
X003709Y005851D01*
X003691Y005911D01*
X003678Y005973D01*
X003668Y006035D01*
X003662Y006097D01*
X003660Y006160D01*
X004010Y003610D02*
X004160Y003610D01*
X004210Y003560D01*
X006110Y003560D01*
X006160Y003610D01*
X006310Y003610D01*
X006327Y003608D01*
X006344Y003604D01*
X006360Y003597D01*
X006374Y003587D01*
X006387Y003574D01*
X006397Y003560D01*
X006404Y003544D01*
X006408Y003527D01*
X006410Y003510D01*
X006410Y002810D01*
X006408Y002793D01*
X006404Y002776D01*
X006397Y002760D01*
X006387Y002746D01*
X006374Y002733D01*
X006360Y002723D01*
X006344Y002716D01*
X006327Y002712D01*
X006310Y002710D01*
X006160Y002710D01*
X006110Y002760D01*
X004210Y002760D01*
X004160Y002710D01*
X004010Y002710D01*
X003993Y002712D01*
X003976Y002716D01*
X003960Y002723D01*
X003946Y002733D01*
X003933Y002746D01*
X003923Y002760D01*
X003916Y002776D01*
X003912Y002793D01*
X003910Y002810D01*
X003910Y003510D01*
X003912Y003527D01*
X003916Y003544D01*
X003923Y003560D01*
X003933Y003574D01*
X003946Y003587D01*
X003960Y003597D01*
X003976Y003604D01*
X003993Y003608D01*
X004010Y003610D01*
X004010Y002110D02*
X004160Y002110D01*
X004210Y002060D01*
X006110Y002060D01*
X006160Y002110D01*
X006310Y002110D01*
X006327Y002108D01*
X006344Y002104D01*
X006360Y002097D01*
X006374Y002087D01*
X006387Y002074D01*
X006397Y002060D01*
X006404Y002044D01*
X006408Y002027D01*
X006410Y002010D01*
X006410Y001310D01*
X006408Y001293D01*
X006404Y001276D01*
X006397Y001260D01*
X006387Y001246D01*
X006374Y001233D01*
X006360Y001223D01*
X006344Y001216D01*
X006327Y001212D01*
X006310Y001210D01*
X006160Y001210D01*
X006110Y001260D01*
X004210Y001260D01*
X004160Y001210D01*
X004010Y001210D01*
X003993Y001212D01*
X003976Y001216D01*
X003960Y001223D01*
X003946Y001233D01*
X003933Y001246D01*
X003923Y001260D01*
X003916Y001276D01*
X003912Y001293D01*
X003910Y001310D01*
X003910Y002010D01*
X003912Y002027D01*
X003916Y002044D01*
X003923Y002060D01*
X003933Y002074D01*
X003946Y002087D01*
X003960Y002097D01*
X003976Y002104D01*
X003993Y002108D01*
X004010Y002110D01*
X010310Y002960D02*
X010660Y002960D01*
X011610Y002960D01*
X012010Y002960D01*
X014810Y002960D02*
X015160Y002960D01*
X016110Y002960D01*
X016510Y002960D01*
X003910Y008660D02*
X003410Y008660D01*
X031160Y002160D02*
X031162Y002223D01*
X031168Y002285D01*
X031178Y002347D01*
X031191Y002409D01*
X031209Y002469D01*
X031230Y002528D01*
X031255Y002586D01*
X031284Y002642D01*
X031316Y002696D01*
X031351Y002748D01*
X031389Y002797D01*
X031431Y002845D01*
X031475Y002889D01*
X031523Y002931D01*
X031572Y002969D01*
X031624Y003004D01*
X031678Y003036D01*
X031734Y003065D01*
X031792Y003090D01*
X031851Y003111D01*
X031911Y003129D01*
X031973Y003142D01*
X032035Y003152D01*
X032097Y003158D01*
X032160Y003160D01*
X032223Y003158D01*
X032285Y003152D01*
X032347Y003142D01*
X032409Y003129D01*
X032469Y003111D01*
X032528Y003090D01*
X032586Y003065D01*
X032642Y003036D01*
X032696Y003004D01*
X032748Y002969D01*
X032797Y002931D01*
X032845Y002889D01*
X032889Y002845D01*
X032931Y002797D01*
X032969Y002748D01*
X033004Y002696D01*
X033036Y002642D01*
X033065Y002586D01*
X033090Y002528D01*
X033111Y002469D01*
X033129Y002409D01*
X033142Y002347D01*
X033152Y002285D01*
X033158Y002223D01*
X033160Y002160D01*
X033158Y002097D01*
X033152Y002035D01*
X033142Y001973D01*
X033129Y001911D01*
X033111Y001851D01*
X033090Y001792D01*
X033065Y001734D01*
X033036Y001678D01*
X033004Y001624D01*
X032969Y001572D01*
X032931Y001523D01*
X032889Y001475D01*
X032845Y001431D01*
X032797Y001389D01*
X032748Y001351D01*
X032696Y001316D01*
X032642Y001284D01*
X032586Y001255D01*
X032528Y001230D01*
X032469Y001209D01*
X032409Y001191D01*
X032347Y001178D01*
X032285Y001168D01*
X032223Y001162D01*
X032160Y001160D01*
X032097Y001162D01*
X032035Y001168D01*
X031973Y001178D01*
X031911Y001191D01*
X031851Y001209D01*
X031792Y001230D01*
X031734Y001255D01*
X031678Y001284D01*
X031624Y001316D01*
X031572Y001351D01*
X031523Y001389D01*
X031475Y001431D01*
X031431Y001475D01*
X031389Y001523D01*
X031351Y001572D01*
X031316Y001624D01*
X031284Y001678D01*
X031255Y001734D01*
X031230Y001792D01*
X031209Y001851D01*
X031191Y001911D01*
X031178Y001973D01*
X031168Y002035D01*
X031162Y002097D01*
X031160Y002160D01*
X034160Y002160D02*
X034162Y002223D01*
X034168Y002285D01*
X034178Y002347D01*
X034191Y002409D01*
X034209Y002469D01*
X034230Y002528D01*
X034255Y002586D01*
X034284Y002642D01*
X034316Y002696D01*
X034351Y002748D01*
X034389Y002797D01*
X034431Y002845D01*
X034475Y002889D01*
X034523Y002931D01*
X034572Y002969D01*
X034624Y003004D01*
X034678Y003036D01*
X034734Y003065D01*
X034792Y003090D01*
X034851Y003111D01*
X034911Y003129D01*
X034973Y003142D01*
X035035Y003152D01*
X035097Y003158D01*
X035160Y003160D01*
X035223Y003158D01*
X035285Y003152D01*
X035347Y003142D01*
X035409Y003129D01*
X035469Y003111D01*
X035528Y003090D01*
X035586Y003065D01*
X035642Y003036D01*
X035696Y003004D01*
X035748Y002969D01*
X035797Y002931D01*
X035845Y002889D01*
X035889Y002845D01*
X035931Y002797D01*
X035969Y002748D01*
X036004Y002696D01*
X036036Y002642D01*
X036065Y002586D01*
X036090Y002528D01*
X036111Y002469D01*
X036129Y002409D01*
X036142Y002347D01*
X036152Y002285D01*
X036158Y002223D01*
X036160Y002160D01*
X036158Y002097D01*
X036152Y002035D01*
X036142Y001973D01*
X036129Y001911D01*
X036111Y001851D01*
X036090Y001792D01*
X036065Y001734D01*
X036036Y001678D01*
X036004Y001624D01*
X035969Y001572D01*
X035931Y001523D01*
X035889Y001475D01*
X035845Y001431D01*
X035797Y001389D01*
X035748Y001351D01*
X035696Y001316D01*
X035642Y001284D01*
X035586Y001255D01*
X035528Y001230D01*
X035469Y001209D01*
X035409Y001191D01*
X035347Y001178D01*
X035285Y001168D01*
X035223Y001162D01*
X035160Y001160D01*
X035097Y001162D01*
X035035Y001168D01*
X034973Y001178D01*
X034911Y001191D01*
X034851Y001209D01*
X034792Y001230D01*
X034734Y001255D01*
X034678Y001284D01*
X034624Y001316D01*
X034572Y001351D01*
X034523Y001389D01*
X034475Y001431D01*
X034431Y001475D01*
X034389Y001523D01*
X034351Y001572D01*
X034316Y001624D01*
X034284Y001678D01*
X034255Y001734D01*
X034230Y001792D01*
X034209Y001851D01*
X034191Y001911D01*
X034178Y001973D01*
X034168Y002035D01*
X034162Y002097D01*
X034160Y002160D01*
X033160Y005660D02*
X033162Y005723D01*
X033168Y005785D01*
X033178Y005847D01*
X033191Y005909D01*
X033209Y005969D01*
X033230Y006028D01*
X033255Y006086D01*
X033284Y006142D01*
X033316Y006196D01*
X033351Y006248D01*
X033389Y006297D01*
X033431Y006345D01*
X033475Y006389D01*
X033523Y006431D01*
X033572Y006469D01*
X033624Y006504D01*
X033678Y006536D01*
X033734Y006565D01*
X033792Y006590D01*
X033851Y006611D01*
X033911Y006629D01*
X033973Y006642D01*
X034035Y006652D01*
X034097Y006658D01*
X034160Y006660D01*
X034223Y006658D01*
X034285Y006652D01*
X034347Y006642D01*
X034409Y006629D01*
X034469Y006611D01*
X034528Y006590D01*
X034586Y006565D01*
X034642Y006536D01*
X034696Y006504D01*
X034748Y006469D01*
X034797Y006431D01*
X034845Y006389D01*
X034889Y006345D01*
X034931Y006297D01*
X034969Y006248D01*
X035004Y006196D01*
X035036Y006142D01*
X035065Y006086D01*
X035090Y006028D01*
X035111Y005969D01*
X035129Y005909D01*
X035142Y005847D01*
X035152Y005785D01*
X035158Y005723D01*
X035160Y005660D01*
X035158Y005597D01*
X035152Y005535D01*
X035142Y005473D01*
X035129Y005411D01*
X035111Y005351D01*
X035090Y005292D01*
X035065Y005234D01*
X035036Y005178D01*
X035004Y005124D01*
X034969Y005072D01*
X034931Y005023D01*
X034889Y004975D01*
X034845Y004931D01*
X034797Y004889D01*
X034748Y004851D01*
X034696Y004816D01*
X034642Y004784D01*
X034586Y004755D01*
X034528Y004730D01*
X034469Y004709D01*
X034409Y004691D01*
X034347Y004678D01*
X034285Y004668D01*
X034223Y004662D01*
X034160Y004660D01*
X034097Y004662D01*
X034035Y004668D01*
X033973Y004678D01*
X033911Y004691D01*
X033851Y004709D01*
X033792Y004730D01*
X033734Y004755D01*
X033678Y004784D01*
X033624Y004816D01*
X033572Y004851D01*
X033523Y004889D01*
X033475Y004931D01*
X033431Y004975D01*
X033389Y005023D01*
X033351Y005072D01*
X033316Y005124D01*
X033284Y005178D01*
X033255Y005234D01*
X033230Y005292D01*
X033209Y005351D01*
X033191Y005411D01*
X033178Y005473D01*
X033168Y005535D01*
X033162Y005597D01*
X033160Y005660D01*
X033812Y007660D02*
X033562Y007910D01*
X033562Y008410D01*
X033812Y008660D01*
X033562Y008910D01*
X033562Y009410D01*
X033812Y009660D01*
X033562Y009910D01*
X033562Y010410D01*
X033812Y010660D01*
X033562Y010910D01*
X033562Y011410D01*
X033812Y011660D01*
X033562Y011910D01*
X033562Y012410D01*
X033812Y012660D01*
X033562Y012910D01*
X033562Y013410D01*
X033812Y013660D01*
X034312Y013660D01*
X034562Y013410D01*
X034562Y012910D01*
X034312Y012660D01*
X034562Y012410D01*
X034562Y011910D01*
X034312Y011660D01*
X033812Y011660D01*
X034312Y011660D02*
X034562Y011410D01*
X034562Y010910D01*
X034312Y010660D01*
X034562Y010410D01*
X034562Y009910D01*
X034312Y009660D01*
X034562Y009410D01*
X034562Y008910D01*
X034312Y008660D01*
X034562Y008410D01*
X034562Y007910D01*
X034312Y007660D01*
X033812Y007660D01*
X033812Y008660D02*
X034312Y008660D01*
X034312Y009660D02*
X033812Y009660D01*
X033812Y010660D02*
X034312Y010660D01*
X034312Y012660D02*
X033812Y012660D01*
X035710Y013010D02*
X035710Y014310D01*
X035712Y014336D01*
X035717Y014362D01*
X035725Y014387D01*
X035737Y014410D01*
X035751Y014432D01*
X035769Y014451D01*
X035788Y014469D01*
X035810Y014483D01*
X035833Y014495D01*
X035858Y014503D01*
X035884Y014508D01*
X035910Y014510D01*
X036160Y014160D02*
X036160Y013790D01*
X036160Y013540D02*
X036160Y013160D01*
X035910Y012810D02*
X035884Y012812D01*
X035858Y012817D01*
X035833Y012825D01*
X035810Y012837D01*
X035788Y012851D01*
X035769Y012869D01*
X035751Y012888D01*
X035737Y012910D01*
X035725Y012933D01*
X035717Y012958D01*
X035712Y012984D01*
X035710Y013010D01*
X036410Y012810D02*
X036436Y012812D01*
X036462Y012817D01*
X036487Y012825D01*
X036510Y012837D01*
X036532Y012851D01*
X036551Y012869D01*
X036569Y012888D01*
X036583Y012910D01*
X036595Y012933D01*
X036603Y012958D01*
X036608Y012984D01*
X036610Y013010D01*
X036610Y014310D01*
X036608Y014336D01*
X036603Y014362D01*
X036595Y014387D01*
X036583Y014410D01*
X036569Y014432D01*
X036551Y014451D01*
X036532Y014469D01*
X036510Y014483D01*
X036487Y014495D01*
X036462Y014503D01*
X036436Y014508D01*
X036410Y014510D01*
D13*
X036460Y013790D02*
X036160Y013790D01*
X035860Y013790D01*
X035860Y013540D02*
X036160Y013540D01*
X036460Y013540D01*
X021790Y002960D02*
X021790Y002660D01*
X021790Y002360D01*
X021540Y002360D02*
X021540Y002660D01*
X021540Y002960D01*
D14*
X021521Y003235D02*
X021370Y003235D01*
X021295Y003310D01*
X021135Y003310D02*
X021060Y003235D01*
X020910Y003235D01*
X020835Y003310D01*
X020835Y003610D01*
X020910Y003685D01*
X021060Y003685D01*
X021135Y003610D01*
X021295Y003610D02*
X021370Y003685D01*
X021521Y003685D01*
X021596Y003610D01*
X021596Y003535D01*
X021521Y003460D01*
X021596Y003385D01*
X021596Y003310D01*
X021521Y003235D01*
X021521Y003460D02*
X021446Y003460D01*
X022107Y003485D02*
X022257Y003485D01*
X022182Y003485D02*
X022182Y003035D01*
X022107Y003035D02*
X022257Y003035D01*
X022414Y003110D02*
X022489Y003035D01*
X022639Y003035D01*
X022714Y003110D01*
X022875Y003035D02*
X023175Y003335D01*
X023175Y003410D01*
X023100Y003485D01*
X022950Y003485D01*
X022875Y003410D01*
X022714Y003410D02*
X022639Y003485D01*
X022489Y003485D01*
X022414Y003410D01*
X022414Y003110D01*
X022875Y003035D02*
X023175Y003035D01*
X027964Y004085D02*
X027964Y004535D01*
X028189Y004535D01*
X028264Y004460D01*
X028264Y004310D01*
X028189Y004235D01*
X027964Y004235D01*
X028114Y004235D02*
X028264Y004085D01*
X028425Y004160D02*
X028500Y004085D01*
X028650Y004085D01*
X028725Y004160D01*
X028725Y004310D01*
X028650Y004385D01*
X028575Y004385D01*
X028425Y004310D01*
X028425Y004535D01*
X028725Y004535D01*
X028650Y005085D02*
X028725Y005160D01*
X028725Y005235D01*
X028650Y005310D01*
X028425Y005310D01*
X028425Y005160D01*
X028500Y005085D01*
X028650Y005085D01*
X028425Y005310D02*
X028575Y005460D01*
X028725Y005535D01*
X028264Y005460D02*
X028264Y005310D01*
X028189Y005235D01*
X027964Y005235D01*
X027964Y005085D02*
X027964Y005535D01*
X028189Y005535D01*
X028264Y005460D01*
X028114Y005235D02*
X028264Y005085D01*
X028264Y006585D02*
X028114Y006735D01*
X028189Y006735D02*
X027964Y006735D01*
X027964Y006585D02*
X027964Y007035D01*
X028189Y007035D01*
X028264Y006960D01*
X028264Y006810D01*
X028189Y006735D01*
X028425Y006735D02*
X028500Y006810D01*
X028650Y006810D01*
X028725Y006735D01*
X028725Y006660D01*
X028650Y006585D01*
X028500Y006585D01*
X028425Y006660D01*
X028425Y006735D01*
X028500Y006810D02*
X028425Y006885D01*
X028425Y006960D01*
X028500Y007035D01*
X028650Y007035D01*
X028725Y006960D01*
X028725Y006885D01*
X028650Y006810D01*
X028650Y008085D02*
X028500Y008085D01*
X028425Y008160D01*
X028264Y008085D02*
X027964Y008085D01*
X028114Y008085D02*
X028114Y008535D01*
X027964Y008385D01*
X027804Y008310D02*
X027729Y008235D01*
X027504Y008235D01*
X027654Y008235D02*
X027804Y008085D01*
X027804Y008310D02*
X027804Y008460D01*
X027729Y008535D01*
X027504Y008535D01*
X027504Y008085D01*
X028425Y008460D02*
X028500Y008535D01*
X028650Y008535D01*
X028725Y008460D01*
X028725Y008385D01*
X028650Y008310D01*
X028725Y008235D01*
X028725Y008160D01*
X028650Y008085D01*
X028650Y008310D02*
X028575Y008310D01*
X033475Y008316D02*
X033700Y008316D01*
X033625Y008466D01*
X033625Y008541D01*
X033700Y008616D01*
X033850Y008616D01*
X033925Y008541D01*
X033925Y008391D01*
X033850Y008316D01*
X033850Y008156D02*
X033550Y008156D01*
X033475Y008081D01*
X033475Y007856D01*
X033925Y007856D01*
X033925Y008081D01*
X033850Y008156D01*
X033475Y008316D02*
X033475Y008616D01*
X033475Y007696D02*
X033475Y007395D01*
X033925Y007395D01*
X033925Y007696D01*
X033700Y007546D02*
X033700Y007395D01*
X033925Y007235D02*
X033925Y006935D01*
X033475Y006935D01*
X034550Y005116D02*
X034625Y005116D01*
X034700Y005041D01*
X034775Y005116D01*
X034850Y005116D01*
X034925Y005041D01*
X034925Y004891D01*
X034850Y004816D01*
X034850Y004656D02*
X034550Y004656D01*
X034475Y004581D01*
X034475Y004356D01*
X034925Y004356D01*
X034925Y004581D01*
X034850Y004656D01*
X034550Y004816D02*
X034475Y004891D01*
X034475Y005041D01*
X034550Y005116D01*
X034700Y005041D02*
X034700Y004966D01*
X034925Y004196D02*
X034925Y003895D01*
X034475Y003895D01*
X034475Y004196D01*
X034700Y004046D02*
X034700Y003895D01*
X034925Y003735D02*
X034925Y003435D01*
X034475Y003435D01*
X031925Y003435D02*
X031925Y003735D01*
X031925Y003895D02*
X031475Y003895D01*
X031475Y004196D01*
X031475Y004356D02*
X031475Y004581D01*
X031550Y004656D01*
X031850Y004656D01*
X031925Y004581D01*
X031925Y004356D01*
X031475Y004356D01*
X031700Y004046D02*
X031700Y003895D01*
X031925Y003895D02*
X031925Y004196D01*
X031925Y003435D02*
X031475Y003435D01*
X031550Y004816D02*
X031475Y004891D01*
X031475Y005041D01*
X031550Y005116D01*
X031625Y005116D01*
X031925Y004816D01*
X031925Y005116D01*
X034881Y012334D02*
X034956Y012334D01*
X035031Y012409D01*
X035031Y012559D01*
X035106Y012634D01*
X035182Y012634D01*
X035257Y012559D01*
X035257Y012409D01*
X035182Y012334D01*
X034881Y012334D02*
X034806Y012409D01*
X034806Y012559D01*
X034881Y012634D01*
X034881Y012794D02*
X034956Y012794D01*
X035031Y012869D01*
X035031Y013019D01*
X035106Y013094D01*
X035182Y013094D01*
X035257Y013019D01*
X035257Y012869D01*
X035182Y012794D01*
X035210Y012835D02*
X035135Y012910D01*
X035135Y013060D01*
X035210Y013135D01*
X035257Y013255D02*
X034806Y013255D01*
X034806Y013480D01*
X034881Y013555D01*
X035031Y013555D01*
X035106Y013480D01*
X035106Y013255D01*
X035106Y013405D02*
X035257Y013555D01*
X035135Y013446D02*
X035285Y013295D01*
X035135Y013446D02*
X035585Y013446D01*
X035585Y013596D02*
X035585Y013295D01*
X035510Y013135D02*
X035585Y013060D01*
X035585Y012910D01*
X035510Y012835D01*
X035210Y012835D01*
X034881Y012794D02*
X034806Y012869D01*
X034806Y013019D01*
X034881Y013094D01*
X032035Y013985D02*
X031585Y013985D01*
X031585Y014210D01*
X031660Y014285D01*
X031810Y014285D01*
X031885Y014210D01*
X031885Y013985D01*
X031885Y014135D02*
X032035Y014285D01*
X032035Y014445D02*
X031735Y014746D01*
X031660Y014746D01*
X031585Y014671D01*
X031585Y014520D01*
X031660Y014445D01*
X032035Y014445D02*
X032035Y014746D01*
X031960Y014906D02*
X031660Y014906D01*
X031585Y014981D01*
X031585Y015131D01*
X031660Y015206D01*
X031960Y014906D01*
X032035Y014981D01*
X032035Y015131D01*
X031960Y015206D01*
X031660Y015206D01*
X030535Y015131D02*
X030535Y014981D01*
X030460Y014906D01*
X030310Y014981D02*
X030310Y015206D01*
X030460Y015206D02*
X030160Y015206D01*
X030085Y015131D01*
X030085Y014981D01*
X030160Y014906D01*
X030235Y014906D01*
X030310Y014981D01*
X030535Y015131D02*
X030460Y015206D01*
X030535Y014746D02*
X030535Y014445D01*
X030535Y014596D02*
X030085Y014596D01*
X030235Y014445D01*
X030160Y014285D02*
X030310Y014285D01*
X030385Y014210D01*
X030385Y013985D01*
X030535Y013985D02*
X030085Y013985D01*
X030085Y014210D01*
X030160Y014285D01*
X030385Y014135D02*
X030535Y014285D01*
X028925Y014235D02*
X028925Y013935D01*
X028475Y013935D01*
X028475Y014395D02*
X028925Y014395D01*
X028925Y014696D01*
X028925Y014856D02*
X028475Y014856D01*
X028475Y015081D01*
X028550Y015156D01*
X028850Y015156D01*
X028925Y015081D01*
X028925Y014856D01*
X028475Y014696D02*
X028475Y014395D01*
X028700Y014395D02*
X028700Y014546D01*
X028700Y015316D02*
X028700Y015541D01*
X028775Y015616D01*
X028850Y015616D01*
X028925Y015541D01*
X028925Y015391D01*
X028850Y015316D01*
X028700Y015316D01*
X028550Y015466D01*
X028475Y015616D01*
X025844Y016218D02*
X025639Y016273D01*
X025704Y016311D02*
X025509Y016198D01*
X025584Y016068D02*
X025359Y016458D01*
X025554Y016571D01*
X025656Y016543D01*
X025731Y016413D01*
X025704Y016311D01*
X025370Y016118D02*
X025268Y016146D01*
X025138Y016071D01*
X025035Y016098D01*
X024997Y016163D01*
X025025Y016266D01*
X025155Y016341D01*
X025257Y016313D01*
X025370Y016118D02*
X025408Y016053D01*
X025380Y015951D01*
X025250Y015876D01*
X025148Y015903D01*
X024210Y014235D02*
X024285Y014160D01*
X024285Y014010D01*
X024210Y013935D01*
X023985Y013935D01*
X023985Y013785D02*
X023985Y014235D01*
X024210Y014235D01*
X024135Y013935D02*
X024285Y013785D01*
X018925Y013935D02*
X018925Y014235D01*
X018925Y014395D02*
X018925Y014696D01*
X018925Y014856D02*
X018925Y015081D01*
X018850Y015156D01*
X018550Y015156D01*
X018475Y015081D01*
X018475Y014856D01*
X018925Y014856D01*
X018700Y014546D02*
X018700Y014395D01*
X018475Y014395D02*
X018925Y014395D01*
X018475Y014395D02*
X018475Y014696D01*
X018475Y015316D02*
X018475Y015616D01*
X018550Y015616D01*
X018850Y015316D01*
X018925Y015316D01*
X018925Y013935D02*
X018475Y013935D01*
X015555Y012683D02*
X015555Y012608D01*
X015405Y012458D01*
X015405Y012233D01*
X015405Y012458D02*
X015255Y012608D01*
X015255Y012683D01*
X014794Y012683D02*
X014794Y012233D01*
X015094Y012233D01*
X014634Y012458D02*
X014559Y012383D01*
X014334Y012383D01*
X014334Y012233D02*
X014334Y012683D01*
X014559Y012683D01*
X014634Y012608D01*
X014634Y012458D01*
X014174Y012458D02*
X014099Y012383D01*
X013873Y012383D01*
X013873Y012233D02*
X013873Y012683D01*
X014099Y012683D01*
X014174Y012608D01*
X014174Y012458D01*
X013713Y012308D02*
X013713Y012683D01*
X013413Y012683D02*
X013413Y012308D01*
X013488Y012233D01*
X013638Y012233D01*
X013713Y012308D01*
X013253Y012308D02*
X013178Y012233D01*
X013028Y012233D01*
X012953Y012308D01*
X013028Y012458D02*
X013178Y012458D01*
X013253Y012383D01*
X013253Y012308D01*
X013028Y012458D02*
X012953Y012533D01*
X012953Y012608D01*
X013028Y012683D01*
X013178Y012683D01*
X013253Y012608D01*
X015931Y015905D02*
X015856Y015980D01*
X015931Y015905D02*
X016081Y015905D01*
X016156Y015980D01*
X016156Y016055D01*
X016081Y016130D01*
X015931Y016130D01*
X015856Y016205D01*
X015856Y016280D01*
X015931Y016355D01*
X016081Y016355D01*
X016156Y016280D01*
X016316Y016280D02*
X016316Y015980D01*
X016391Y015905D01*
X016541Y015905D01*
X016616Y015980D01*
X016616Y016280D02*
X016541Y016355D01*
X016391Y016355D01*
X016316Y016280D01*
X008150Y018593D02*
X007904Y018765D01*
X008163Y019134D01*
X007989Y019165D02*
X007970Y019269D01*
X007847Y019355D01*
X007743Y019337D01*
X007700Y019275D01*
X007718Y019171D01*
X007841Y019085D01*
X007859Y018980D01*
X007816Y018919D01*
X007712Y018900D01*
X007589Y018986D01*
X007570Y019091D01*
X005425Y019041D02*
X004975Y019041D01*
X005200Y018816D01*
X005200Y019116D01*
X005350Y018656D02*
X005050Y018656D01*
X004975Y018581D01*
X004975Y018356D01*
X005425Y018356D01*
X005425Y018581D01*
X005350Y018656D01*
X005425Y018196D02*
X005425Y017895D01*
X004975Y017895D01*
X004975Y018196D01*
X005200Y018046D02*
X005200Y017895D01*
X005425Y017735D02*
X005425Y017435D01*
X004975Y017435D01*
X005960Y012646D02*
X005885Y012571D01*
X005885Y012420D01*
X005960Y012345D01*
X005960Y012185D02*
X005885Y012110D01*
X005885Y011960D01*
X005960Y011885D01*
X006260Y011885D01*
X006335Y011960D01*
X006335Y012110D01*
X006260Y012185D01*
X006335Y012345D02*
X006035Y012646D01*
X005960Y012646D01*
X006335Y012646D02*
X006335Y012345D01*
X004425Y009116D02*
X004425Y008816D01*
X004425Y008966D02*
X003975Y008966D01*
X004125Y008816D01*
X004050Y008656D02*
X003975Y008581D01*
X003975Y008356D01*
X004425Y008356D01*
X004425Y008581D01*
X004350Y008656D01*
X004050Y008656D01*
X003975Y008196D02*
X003975Y007895D01*
X004425Y007895D01*
X004425Y008196D01*
X004200Y008046D02*
X004200Y007895D01*
X004425Y007735D02*
X004425Y007435D01*
X003975Y007435D01*
X002915Y007730D02*
X002840Y007655D01*
X002915Y007730D02*
X002915Y007880D01*
X002840Y007955D01*
X002765Y007955D01*
X002690Y007880D01*
X002690Y007730D01*
X002615Y007655D01*
X002540Y007655D01*
X002465Y007730D01*
X002465Y007880D01*
X002540Y007955D01*
X002540Y008115D02*
X002615Y008115D01*
X002690Y008190D01*
X002690Y008341D01*
X002765Y008416D01*
X002840Y008416D01*
X002915Y008341D01*
X002915Y008190D01*
X002840Y008115D01*
X002540Y008115D02*
X002465Y008190D01*
X002465Y008341D01*
X002540Y008416D01*
X002465Y008576D02*
X002915Y008576D01*
X002915Y008876D01*
X009985Y008735D02*
X009985Y008285D01*
X009985Y008435D02*
X010210Y008435D01*
X010285Y008510D01*
X010285Y008660D01*
X010210Y008735D01*
X009985Y008735D01*
X010135Y008435D02*
X010285Y008285D01*
X010445Y008285D02*
X010746Y008585D01*
X010746Y008660D01*
X010671Y008735D01*
X010520Y008735D01*
X010445Y008660D01*
X010445Y008285D02*
X010746Y008285D01*
X011985Y007235D02*
X012210Y007235D01*
X012285Y007160D01*
X012285Y007010D01*
X012210Y006935D01*
X011985Y006935D01*
X011985Y006785D02*
X011985Y007235D01*
X012445Y007085D02*
X012596Y007235D01*
X012596Y006785D01*
X012746Y006785D02*
X012445Y006785D01*
X012285Y006785D02*
X012135Y006935D01*
X012906Y007010D02*
X013131Y007235D01*
X013131Y006785D01*
X013206Y007010D02*
X012906Y007010D01*
X014485Y006010D02*
X014485Y005935D01*
X014560Y005860D01*
X014710Y005860D01*
X014785Y005785D01*
X014785Y005710D01*
X014710Y005635D01*
X014560Y005635D01*
X014485Y005710D01*
X014945Y005635D02*
X015246Y005635D01*
X015096Y005635D02*
X015096Y006085D01*
X014945Y005935D01*
X014785Y006010D02*
X014710Y006085D01*
X014560Y006085D01*
X014485Y006010D01*
X010746Y006010D02*
X010746Y005935D01*
X010671Y005860D01*
X010746Y005785D01*
X010746Y005710D01*
X010671Y005635D01*
X010520Y005635D01*
X010445Y005710D01*
X010285Y005710D02*
X010210Y005635D01*
X010060Y005635D01*
X009985Y005710D01*
X010060Y005860D02*
X010210Y005860D01*
X010285Y005785D01*
X010285Y005710D01*
X010060Y005860D02*
X009985Y005935D01*
X009985Y006010D01*
X010060Y006085D01*
X010210Y006085D01*
X010285Y006010D01*
X010445Y006010D02*
X010520Y006085D01*
X010671Y006085D01*
X010746Y006010D01*
X010671Y005860D02*
X010596Y005860D01*
X004746Y004235D02*
X004746Y004160D01*
X004445Y003860D01*
X004445Y003785D01*
X004285Y003785D02*
X004135Y003935D01*
X004210Y003935D02*
X003985Y003935D01*
X003985Y003785D02*
X003985Y004235D01*
X004210Y004235D01*
X004285Y004160D01*
X004285Y004010D01*
X004210Y003935D01*
X004445Y004235D02*
X004746Y004235D01*
X004596Y002735D02*
X004596Y002285D01*
X004746Y002285D02*
X004445Y002285D01*
X004285Y002285D02*
X004135Y002435D01*
X004210Y002435D02*
X003985Y002435D01*
X003985Y002285D02*
X003985Y002735D01*
X004210Y002735D01*
X004285Y002660D01*
X004285Y002510D01*
X004210Y002435D01*
X004445Y002585D02*
X004596Y002735D01*
D15*
X003910Y007160D02*
X005410Y007160D01*
X018410Y013660D02*
X019910Y013660D01*
X028410Y013660D02*
X029910Y013660D01*
X033410Y006660D02*
X034910Y006660D01*
X034410Y003160D02*
X035910Y003160D01*
X032910Y003160D02*
X031410Y003160D01*
X006410Y017160D02*
X004910Y017160D01*
D16*
X009740Y007660D03*
X011740Y006160D03*
X014580Y006160D03*
X012580Y007660D03*
X006580Y003160D03*
X006580Y001660D03*
X003740Y001660D03*
X003740Y003160D03*
X023740Y013160D03*
X026580Y013160D03*
X026240Y009160D03*
X026240Y007660D03*
X029080Y007660D03*
X029080Y009160D03*
X029080Y006160D03*
X029080Y005160D03*
X026240Y005160D03*
X026240Y006160D03*
D17*
X031160Y013740D03*
X032660Y013740D03*
X032660Y016580D03*
X031160Y016580D03*
D18*
X016160Y005360D02*
X016160Y005260D01*
X015160Y005260D01*
X015160Y005360D01*
X011660Y005360D02*
X011660Y005260D01*
X010660Y005260D01*
X010660Y005360D01*
X010660Y003060D02*
X010660Y002960D01*
X010660Y003060D02*
X011610Y003060D01*
X011610Y002960D01*
X015160Y002960D02*
X015160Y003060D01*
X016110Y003060D01*
X016110Y002960D01*
M02*
