%
M48
M72
T01C0.0276
T02C0.0315
T03C0.0320
T04C0.0354
T05C0.0400
T06C0.0866
T07C0.1102
%
T01
X10680Y11300
T02
X34336Y30800
X35961Y29831
X35961Y30800
X34336Y29831
X3524Y29800
X1899Y30769
X1899Y29800
X3524Y30769
X20024Y1800
X18399Y2769
X18399Y1800
X20024Y2769
X26680Y22800
X25680Y22800
X26680Y16800
X25680Y16800
X23680Y22800
X24680Y22800
X23680Y16800
X24680Y16800
X27680Y16800
X27680Y22800
T03
X31180Y23300
X29180Y23300
X21680Y15800
X21680Y16800
X18180Y6300
X18180Y10300
X3180Y28300
X3180Y24300
X1680Y28300
X1680Y24300
X33680Y27800
X33680Y23800
X35180Y27800
X35180Y23800
X19680Y6300
X19680Y10300
X31180Y20300
X31180Y19300
X34180Y19300
X34180Y20300
X31180Y18300
X31180Y17300
X34180Y18300
X34180Y17300
T04
X4680Y22800
X5680Y22800
X6680Y22800
X7680Y22800
X8680Y22800
X9680Y22800
X10680Y22800
X11680Y22800
X12680Y22800
X13680Y22800
X14680Y22800
X15680Y22800
X16680Y22800
X17680Y22800
X18680Y22800
X4680Y16800
X5680Y16800
X6680Y16800
X7680Y16800
X8680Y16800
X9680Y16800
X10680Y16800
X11680Y16800
X12680Y16800
X13680Y16800
X14680Y16800
X15680Y16800
X16680Y16800
X17680Y16800
X18680Y16800
T05
X15180Y13568
X14180Y13568
X13180Y13568
X12180Y13568
X11180Y13568
X10180Y13568
X9180Y13568
X8180Y13568
X7180Y13568
X26180Y11300
X25180Y11300
X12180Y10800
X13180Y10800
X12430Y1550
X13430Y1550
X24930Y1550
X25930Y1550
T06
X10174Y1721
X10174Y9379
X15686Y9379
X15686Y1721
X22674Y1721
X22674Y9379
X28186Y9379
X28186Y1721
T07
X1755Y16442
X36007Y16442
X18586Y4296
M30
