G75*
G70*
%OFA0B0*%
%FSLAX24Y24*%
%IPPOS*%
%LPD*%
%AMOC8*
5,1,8,0,0,1.08239X$1,22.5*
%
%ADD10C,0.0030*%
%ADD11C,0.0000*%
%ADD12C,0.0060*%
%ADD13C,0.0120*%
%ADD14C,0.0050*%
%ADD15R,0.0240X0.0340*%
%ADD16R,0.0150X0.0400*%
%ADD17C,0.0160*%
%ADD18C,0.0040*%
D10*
X008448Y000300D02*
X029826Y000300D01*
X029826Y012111D01*
X037700Y012111D01*
X037700Y031796D01*
X000180Y031796D01*
X000180Y012111D01*
X008448Y012111D01*
X008448Y000300D01*
D11*
X018035Y004296D02*
X018037Y004343D01*
X018043Y004389D01*
X018053Y004435D01*
X018066Y004480D01*
X018084Y004523D01*
X018105Y004565D01*
X018129Y004605D01*
X018157Y004642D01*
X018188Y004677D01*
X018222Y004710D01*
X018258Y004739D01*
X018297Y004765D01*
X018338Y004788D01*
X018381Y004807D01*
X018425Y004823D01*
X018470Y004835D01*
X018516Y004843D01*
X018563Y004847D01*
X018609Y004847D01*
X018656Y004843D01*
X018702Y004835D01*
X018747Y004823D01*
X018791Y004807D01*
X018834Y004788D01*
X018875Y004765D01*
X018914Y004739D01*
X018950Y004710D01*
X018984Y004677D01*
X019015Y004642D01*
X019043Y004605D01*
X019067Y004565D01*
X019088Y004523D01*
X019106Y004480D01*
X019119Y004435D01*
X019129Y004389D01*
X019135Y004343D01*
X019137Y004296D01*
X019135Y004249D01*
X019129Y004203D01*
X019119Y004157D01*
X019106Y004112D01*
X019088Y004069D01*
X019067Y004027D01*
X019043Y003987D01*
X019015Y003950D01*
X018984Y003915D01*
X018950Y003882D01*
X018914Y003853D01*
X018875Y003827D01*
X018834Y003804D01*
X018791Y003785D01*
X018747Y003769D01*
X018702Y003757D01*
X018656Y003749D01*
X018609Y003745D01*
X018563Y003745D01*
X018516Y003749D01*
X018470Y003757D01*
X018425Y003769D01*
X018381Y003785D01*
X018338Y003804D01*
X018297Y003827D01*
X018258Y003853D01*
X018222Y003882D01*
X018188Y003915D01*
X018157Y003950D01*
X018129Y003987D01*
X018105Y004027D01*
X018084Y004069D01*
X018066Y004112D01*
X018053Y004157D01*
X018043Y004203D01*
X018037Y004249D01*
X018035Y004296D01*
X001204Y016442D02*
X001206Y016489D01*
X001212Y016535D01*
X001222Y016581D01*
X001235Y016626D01*
X001253Y016669D01*
X001274Y016711D01*
X001298Y016751D01*
X001326Y016788D01*
X001357Y016823D01*
X001391Y016856D01*
X001427Y016885D01*
X001466Y016911D01*
X001507Y016934D01*
X001550Y016953D01*
X001594Y016969D01*
X001639Y016981D01*
X001685Y016989D01*
X001732Y016993D01*
X001778Y016993D01*
X001825Y016989D01*
X001871Y016981D01*
X001916Y016969D01*
X001960Y016953D01*
X002003Y016934D01*
X002044Y016911D01*
X002083Y016885D01*
X002119Y016856D01*
X002153Y016823D01*
X002184Y016788D01*
X002212Y016751D01*
X002236Y016711D01*
X002257Y016669D01*
X002275Y016626D01*
X002288Y016581D01*
X002298Y016535D01*
X002304Y016489D01*
X002306Y016442D01*
X002304Y016395D01*
X002298Y016349D01*
X002288Y016303D01*
X002275Y016258D01*
X002257Y016215D01*
X002236Y016173D01*
X002212Y016133D01*
X002184Y016096D01*
X002153Y016061D01*
X002119Y016028D01*
X002083Y015999D01*
X002044Y015973D01*
X002003Y015950D01*
X001960Y015931D01*
X001916Y015915D01*
X001871Y015903D01*
X001825Y015895D01*
X001778Y015891D01*
X001732Y015891D01*
X001685Y015895D01*
X001639Y015903D01*
X001594Y015915D01*
X001550Y015931D01*
X001507Y015950D01*
X001466Y015973D01*
X001427Y015999D01*
X001391Y016028D01*
X001357Y016061D01*
X001326Y016096D01*
X001298Y016133D01*
X001274Y016173D01*
X001253Y016215D01*
X001235Y016258D01*
X001222Y016303D01*
X001212Y016349D01*
X001206Y016395D01*
X001204Y016442D01*
X035456Y016442D02*
X035458Y016489D01*
X035464Y016535D01*
X035474Y016581D01*
X035487Y016626D01*
X035505Y016669D01*
X035526Y016711D01*
X035550Y016751D01*
X035578Y016788D01*
X035609Y016823D01*
X035643Y016856D01*
X035679Y016885D01*
X035718Y016911D01*
X035759Y016934D01*
X035802Y016953D01*
X035846Y016969D01*
X035891Y016981D01*
X035937Y016989D01*
X035984Y016993D01*
X036030Y016993D01*
X036077Y016989D01*
X036123Y016981D01*
X036168Y016969D01*
X036212Y016953D01*
X036255Y016934D01*
X036296Y016911D01*
X036335Y016885D01*
X036371Y016856D01*
X036405Y016823D01*
X036436Y016788D01*
X036464Y016751D01*
X036488Y016711D01*
X036509Y016669D01*
X036527Y016626D01*
X036540Y016581D01*
X036550Y016535D01*
X036556Y016489D01*
X036558Y016442D01*
X036556Y016395D01*
X036550Y016349D01*
X036540Y016303D01*
X036527Y016258D01*
X036509Y016215D01*
X036488Y016173D01*
X036464Y016133D01*
X036436Y016096D01*
X036405Y016061D01*
X036371Y016028D01*
X036335Y015999D01*
X036296Y015973D01*
X036255Y015950D01*
X036212Y015931D01*
X036168Y015915D01*
X036123Y015903D01*
X036077Y015895D01*
X036030Y015891D01*
X035984Y015891D01*
X035937Y015895D01*
X035891Y015903D01*
X035846Y015915D01*
X035802Y015931D01*
X035759Y015950D01*
X035718Y015973D01*
X035679Y015999D01*
X035643Y016028D01*
X035609Y016061D01*
X035578Y016096D01*
X035550Y016133D01*
X035526Y016173D01*
X035505Y016215D01*
X035487Y016258D01*
X035474Y016303D01*
X035464Y016349D01*
X035458Y016395D01*
X035456Y016442D01*
D12*
X034630Y016500D02*
X033330Y016500D01*
X032030Y016500D01*
X032030Y016700D01*
X033330Y016700D01*
X033330Y016500D01*
X033430Y017000D02*
X031930Y017000D01*
X031930Y017600D01*
X033430Y017600D01*
X033430Y017000D01*
X033430Y018000D02*
X031930Y018000D01*
X031930Y018600D01*
X033430Y018600D01*
X033430Y018000D01*
X033430Y019000D02*
X031930Y019000D01*
X031930Y019600D01*
X033430Y019600D01*
X033430Y019000D01*
X033430Y020000D02*
X031930Y020000D01*
X031930Y020600D01*
X033430Y020600D01*
X033430Y020000D01*
X033330Y020900D02*
X033330Y021100D01*
X032030Y021100D01*
X030730Y021100D01*
X030730Y016500D01*
X032030Y016500D01*
X034630Y016500D02*
X034630Y021100D01*
X033330Y021100D01*
X033330Y020900D02*
X032030Y020900D01*
X032030Y021100D01*
X030830Y022850D02*
X029530Y022850D01*
X029504Y022852D01*
X029478Y022857D01*
X029453Y022865D01*
X029430Y022877D01*
X029408Y022891D01*
X029389Y022909D01*
X029371Y022928D01*
X029357Y022950D01*
X029345Y022973D01*
X029337Y022998D01*
X029332Y023024D01*
X029330Y023050D01*
X029680Y023300D02*
X030050Y023300D01*
X030300Y023300D02*
X030680Y023300D01*
X031030Y023050D02*
X031028Y023024D01*
X031023Y022998D01*
X031015Y022973D01*
X031003Y022950D01*
X030989Y022928D01*
X030971Y022909D01*
X030952Y022891D01*
X030930Y022877D01*
X030907Y022865D01*
X030882Y022857D01*
X030856Y022852D01*
X030830Y022850D01*
X031030Y023550D02*
X031028Y023576D01*
X031023Y023602D01*
X031015Y023627D01*
X031003Y023650D01*
X030989Y023672D01*
X030971Y023691D01*
X030952Y023709D01*
X030930Y023723D01*
X030907Y023735D01*
X030882Y023743D01*
X030856Y023748D01*
X030830Y023750D01*
X029530Y023750D01*
X029504Y023748D01*
X029478Y023743D01*
X029453Y023735D01*
X029430Y023723D01*
X029408Y023709D01*
X029389Y023691D01*
X029371Y023672D01*
X029357Y023650D01*
X029345Y023627D01*
X029337Y023602D01*
X029332Y023576D01*
X029330Y023550D01*
X033230Y024650D02*
X033230Y024800D01*
X033280Y024850D01*
X033280Y026750D01*
X033230Y026800D01*
X033230Y026950D01*
X033232Y026967D01*
X033236Y026984D01*
X033243Y027000D01*
X033253Y027014D01*
X033266Y027027D01*
X033280Y027037D01*
X033296Y027044D01*
X033313Y027048D01*
X033330Y027050D01*
X034030Y027050D01*
X034047Y027048D01*
X034064Y027044D01*
X034080Y027037D01*
X034094Y027027D01*
X034107Y027014D01*
X034117Y027000D01*
X034124Y026984D01*
X034128Y026967D01*
X034130Y026950D01*
X034130Y026800D01*
X034080Y026750D01*
X034080Y024850D01*
X034130Y024800D01*
X034130Y024650D01*
X034128Y024633D01*
X034124Y024616D01*
X034117Y024600D01*
X034107Y024586D01*
X034094Y024573D01*
X034080Y024563D01*
X034064Y024556D01*
X034047Y024552D01*
X034030Y024550D01*
X033330Y024550D01*
X033313Y024552D01*
X033296Y024556D01*
X033280Y024563D01*
X033266Y024573D01*
X033253Y024586D01*
X033243Y024600D01*
X033236Y024616D01*
X033232Y024633D01*
X033230Y024650D01*
X034730Y024650D02*
X034730Y024800D01*
X034780Y024850D01*
X034780Y026750D01*
X034730Y026800D01*
X034730Y026950D01*
X034732Y026967D01*
X034736Y026984D01*
X034743Y027000D01*
X034753Y027014D01*
X034766Y027027D01*
X034780Y027037D01*
X034796Y027044D01*
X034813Y027048D01*
X034830Y027050D01*
X035530Y027050D01*
X035547Y027048D01*
X035564Y027044D01*
X035580Y027037D01*
X035594Y027027D01*
X035607Y027014D01*
X035617Y027000D01*
X035624Y026984D01*
X035628Y026967D01*
X035630Y026950D01*
X035630Y026800D01*
X035580Y026750D01*
X035580Y024850D01*
X035630Y024800D01*
X035630Y024650D01*
X035628Y024633D01*
X035624Y024616D01*
X035617Y024600D01*
X035607Y024586D01*
X035594Y024573D01*
X035580Y024563D01*
X035564Y024556D01*
X035547Y024552D01*
X035530Y024550D01*
X034830Y024550D01*
X034813Y024552D01*
X034796Y024556D01*
X034780Y024563D01*
X034766Y024573D01*
X034753Y024586D01*
X034743Y024600D01*
X034736Y024616D01*
X034732Y024633D01*
X034730Y024650D01*
X021830Y017350D02*
X021530Y017350D01*
X021680Y017500D02*
X021680Y017200D01*
X020330Y016300D02*
X020332Y016373D01*
X020338Y016446D01*
X020348Y016518D01*
X020362Y016590D01*
X020379Y016661D01*
X020401Y016731D01*
X020426Y016800D01*
X020455Y016867D01*
X020487Y016932D01*
X020523Y016996D01*
X020563Y017058D01*
X020605Y017117D01*
X020651Y017174D01*
X020700Y017228D01*
X020752Y017280D01*
X020806Y017329D01*
X020863Y017375D01*
X020922Y017417D01*
X020984Y017457D01*
X021048Y017493D01*
X021113Y017525D01*
X021180Y017554D01*
X021249Y017579D01*
X021319Y017601D01*
X021390Y017618D01*
X021462Y017632D01*
X021534Y017642D01*
X021607Y017648D01*
X021680Y017650D01*
X021753Y017648D01*
X021826Y017642D01*
X021898Y017632D01*
X021970Y017618D01*
X022041Y017601D01*
X022111Y017579D01*
X022180Y017554D01*
X022247Y017525D01*
X022312Y017493D01*
X022376Y017457D01*
X022438Y017417D01*
X022497Y017375D01*
X022554Y017329D01*
X022608Y017280D01*
X022660Y017228D01*
X022709Y017174D01*
X022755Y017117D01*
X022797Y017058D01*
X022837Y016996D01*
X022873Y016932D01*
X022905Y016867D01*
X022934Y016800D01*
X022959Y016731D01*
X022981Y016661D01*
X022998Y016590D01*
X023012Y016518D01*
X023022Y016446D01*
X023028Y016373D01*
X023030Y016300D01*
X023028Y016227D01*
X023022Y016154D01*
X023012Y016082D01*
X022998Y016010D01*
X022981Y015939D01*
X022959Y015869D01*
X022934Y015800D01*
X022905Y015733D01*
X022873Y015668D01*
X022837Y015604D01*
X022797Y015542D01*
X022755Y015483D01*
X022709Y015426D01*
X022660Y015372D01*
X022608Y015320D01*
X022554Y015271D01*
X022497Y015225D01*
X022438Y015183D01*
X022376Y015143D01*
X022312Y015107D01*
X022247Y015075D01*
X022180Y015046D01*
X022111Y015021D01*
X022041Y014999D01*
X021970Y014982D01*
X021898Y014968D01*
X021826Y014958D01*
X021753Y014952D01*
X021680Y014950D01*
X021607Y014952D01*
X021534Y014958D01*
X021462Y014968D01*
X021390Y014982D01*
X021319Y014999D01*
X021249Y015021D01*
X021180Y015046D01*
X021113Y015075D01*
X021048Y015107D01*
X020984Y015143D01*
X020922Y015183D01*
X020863Y015225D01*
X020806Y015271D01*
X020752Y015320D01*
X020700Y015372D01*
X020651Y015426D01*
X020605Y015483D01*
X020563Y015542D01*
X020523Y015604D01*
X020487Y015668D01*
X020455Y015733D01*
X020426Y015800D01*
X020401Y015869D01*
X020379Y015939D01*
X020362Y016010D01*
X020348Y016082D01*
X020338Y016154D01*
X020332Y016227D01*
X020330Y016300D01*
X015680Y013818D02*
X015680Y013318D01*
X015430Y013068D01*
X014930Y013068D01*
X014680Y013318D01*
X014430Y013068D01*
X013930Y013068D01*
X013680Y013318D01*
X013680Y013818D01*
X013930Y014068D01*
X014430Y014068D01*
X014680Y013818D01*
X014930Y014068D01*
X015430Y014068D01*
X015680Y013818D01*
X014680Y013818D02*
X014680Y013318D01*
X013680Y013318D02*
X013430Y013068D01*
X012930Y013068D01*
X012680Y013318D01*
X012430Y013068D01*
X011930Y013068D01*
X011680Y013318D01*
X011430Y013068D01*
X010930Y013068D01*
X010680Y013318D01*
X010680Y013818D01*
X010930Y014068D01*
X011430Y014068D01*
X011680Y013818D01*
X011930Y014068D01*
X012430Y014068D01*
X012680Y013818D01*
X012930Y014068D01*
X013430Y014068D01*
X013680Y013818D01*
X012680Y013818D02*
X012680Y013318D01*
X011680Y013318D02*
X011680Y013818D01*
X010680Y013818D02*
X010430Y014068D01*
X009930Y014068D01*
X009680Y013818D01*
X009430Y014068D01*
X008930Y014068D01*
X008680Y013818D01*
X008430Y014068D01*
X007930Y014068D01*
X007680Y013818D01*
X007430Y014068D01*
X006930Y014068D01*
X006680Y013818D01*
X006680Y013318D01*
X006930Y013068D01*
X007430Y013068D01*
X007680Y013318D01*
X007680Y013818D01*
X007680Y013318D02*
X007930Y013068D01*
X008430Y013068D01*
X008680Y013318D01*
X008680Y013818D01*
X008680Y013318D02*
X008930Y013068D01*
X009430Y013068D01*
X009680Y013318D01*
X009680Y013818D01*
X009680Y013318D02*
X009930Y013068D01*
X010430Y013068D01*
X010680Y013318D01*
X011930Y011300D02*
X011680Y011050D01*
X011680Y010550D01*
X011930Y010300D01*
X012430Y010300D01*
X012680Y010550D01*
X012930Y010300D01*
X013430Y010300D01*
X013680Y010550D01*
X013680Y011050D01*
X013430Y011300D01*
X012930Y011300D01*
X012680Y011050D01*
X012680Y010550D01*
X012680Y011050D02*
X012430Y011300D01*
X011930Y011300D01*
X017730Y009450D02*
X017730Y009300D01*
X017780Y009250D01*
X017780Y007350D01*
X017730Y007300D01*
X017730Y007150D01*
X017732Y007133D01*
X017736Y007116D01*
X017743Y007100D01*
X017753Y007086D01*
X017766Y007073D01*
X017780Y007063D01*
X017796Y007056D01*
X017813Y007052D01*
X017830Y007050D01*
X018530Y007050D01*
X018547Y007052D01*
X018564Y007056D01*
X018580Y007063D01*
X018594Y007073D01*
X018607Y007086D01*
X018617Y007100D01*
X018624Y007116D01*
X018628Y007133D01*
X018630Y007150D01*
X018630Y007300D01*
X018580Y007350D01*
X018580Y009250D01*
X018630Y009300D01*
X018630Y009450D01*
X018628Y009467D01*
X018624Y009484D01*
X018617Y009500D01*
X018607Y009514D01*
X018594Y009527D01*
X018580Y009537D01*
X018564Y009544D01*
X018547Y009548D01*
X018530Y009550D01*
X017830Y009550D01*
X017813Y009548D01*
X017796Y009544D01*
X017780Y009537D01*
X017766Y009527D01*
X017753Y009514D01*
X017743Y009500D01*
X017736Y009484D01*
X017732Y009467D01*
X017730Y009450D01*
X019230Y009450D02*
X019230Y009300D01*
X019280Y009250D01*
X019280Y007350D01*
X019230Y007300D01*
X019230Y007150D01*
X019232Y007133D01*
X019236Y007116D01*
X019243Y007100D01*
X019253Y007086D01*
X019266Y007073D01*
X019280Y007063D01*
X019296Y007056D01*
X019313Y007052D01*
X019330Y007050D01*
X020030Y007050D01*
X020047Y007052D01*
X020064Y007056D01*
X020080Y007063D01*
X020094Y007073D01*
X020107Y007086D01*
X020117Y007100D01*
X020124Y007116D01*
X020128Y007133D01*
X020130Y007150D01*
X020130Y007300D01*
X020080Y007350D01*
X020080Y009250D01*
X020130Y009300D01*
X020130Y009450D01*
X020128Y009467D01*
X020124Y009484D01*
X020117Y009500D01*
X020107Y009514D01*
X020094Y009527D01*
X020080Y009537D01*
X020064Y009544D01*
X020047Y009548D01*
X020030Y009550D01*
X019330Y009550D01*
X019313Y009548D01*
X019296Y009544D01*
X019280Y009537D01*
X019266Y009527D01*
X019253Y009514D01*
X019243Y009500D01*
X019236Y009484D01*
X019232Y009467D01*
X019230Y009450D01*
X024680Y011050D02*
X024930Y010800D01*
X025430Y010800D01*
X025680Y011050D01*
X025680Y011550D01*
X025430Y011800D01*
X024930Y011800D01*
X024680Y011550D01*
X024680Y011050D01*
X025680Y011050D02*
X025930Y010800D01*
X026430Y010800D01*
X026680Y011050D01*
X026680Y011550D01*
X026430Y011800D01*
X025930Y011800D01*
X025680Y011550D01*
X025680Y002050D02*
X026180Y002050D01*
X026430Y001800D01*
X026430Y001300D01*
X026180Y001050D01*
X025680Y001050D01*
X025430Y001300D01*
X025180Y001050D01*
X024680Y001050D01*
X024430Y001300D01*
X024430Y001800D01*
X024680Y002050D01*
X025180Y002050D01*
X025430Y001800D01*
X025680Y002050D01*
X025430Y001800D02*
X025430Y001300D01*
X013930Y001300D02*
X013680Y001050D01*
X013180Y001050D01*
X012930Y001300D01*
X012680Y001050D01*
X012180Y001050D01*
X011930Y001300D01*
X011930Y001800D01*
X012180Y002050D01*
X012680Y002050D01*
X012930Y001800D01*
X013180Y002050D01*
X013680Y002050D01*
X013930Y001800D01*
X013930Y001300D01*
X012930Y001300D02*
X012930Y001800D01*
X003530Y025050D02*
X002830Y025050D01*
X002813Y025052D01*
X002796Y025056D01*
X002780Y025063D01*
X002766Y025073D01*
X002753Y025086D01*
X002743Y025100D01*
X002736Y025116D01*
X002732Y025133D01*
X002730Y025150D01*
X002730Y025300D01*
X002780Y025350D01*
X002780Y027250D01*
X002730Y027300D01*
X002730Y027450D01*
X002732Y027467D01*
X002736Y027484D01*
X002743Y027500D01*
X002753Y027514D01*
X002766Y027527D01*
X002780Y027537D01*
X002796Y027544D01*
X002813Y027548D01*
X002830Y027550D01*
X003530Y027550D01*
X003547Y027548D01*
X003564Y027544D01*
X003580Y027537D01*
X003594Y027527D01*
X003607Y027514D01*
X003617Y027500D01*
X003624Y027484D01*
X003628Y027467D01*
X003630Y027450D01*
X003630Y027300D01*
X003580Y027250D01*
X003580Y025350D01*
X003630Y025300D01*
X003630Y025150D01*
X003628Y025133D01*
X003624Y025116D01*
X003617Y025100D01*
X003607Y025086D01*
X003594Y025073D01*
X003580Y025063D01*
X003564Y025056D01*
X003547Y025052D01*
X003530Y025050D01*
X002130Y025150D02*
X002130Y025300D01*
X002080Y025350D01*
X002080Y027250D01*
X002130Y027300D01*
X002130Y027450D01*
X002128Y027467D01*
X002124Y027484D01*
X002117Y027500D01*
X002107Y027514D01*
X002094Y027527D01*
X002080Y027537D01*
X002064Y027544D01*
X002047Y027548D01*
X002030Y027550D01*
X001330Y027550D01*
X001313Y027548D01*
X001296Y027544D01*
X001280Y027537D01*
X001266Y027527D01*
X001253Y027514D01*
X001243Y027500D01*
X001236Y027484D01*
X001232Y027467D01*
X001230Y027450D01*
X001230Y027300D01*
X001280Y027250D01*
X001280Y025350D01*
X001230Y025300D01*
X001230Y025150D01*
X001232Y025133D01*
X001236Y025116D01*
X001243Y025100D01*
X001253Y025086D01*
X001266Y025073D01*
X001280Y025063D01*
X001296Y025056D01*
X001313Y025052D01*
X001330Y025050D01*
X002030Y025050D01*
X002047Y025052D01*
X002064Y025056D01*
X002080Y025063D01*
X002094Y025073D01*
X002107Y025086D01*
X002117Y025100D01*
X002124Y025116D01*
X002128Y025133D01*
X002130Y025150D01*
D13*
X030050Y023600D02*
X030050Y023300D01*
X030050Y023000D01*
X030300Y023000D02*
X030300Y023300D01*
X030300Y023600D01*
D14*
X030359Y022725D02*
X030209Y022725D01*
X030134Y022650D01*
X030134Y022350D01*
X030209Y022275D01*
X030359Y022275D01*
X030434Y022350D01*
X030595Y022275D02*
X030895Y022575D01*
X030895Y022650D01*
X030820Y022725D01*
X030670Y022725D01*
X030595Y022650D01*
X030434Y022650D02*
X030359Y022725D01*
X030595Y022275D02*
X030895Y022275D01*
X028365Y023425D02*
X028365Y016175D01*
X022995Y016175D01*
X022995Y023425D01*
X028365Y023425D01*
X027930Y023425D02*
X027930Y016175D01*
X022955Y014890D02*
X022955Y014740D01*
X022880Y014665D01*
X022880Y014504D02*
X022955Y014429D01*
X022955Y014279D01*
X022880Y014204D01*
X022580Y014204D01*
X022505Y014279D01*
X022505Y014429D01*
X022580Y014504D01*
X022580Y014665D02*
X022505Y014740D01*
X022505Y014890D01*
X022580Y014965D01*
X022655Y014965D01*
X022730Y014890D01*
X022805Y014965D01*
X022880Y014965D01*
X022955Y014890D01*
X022730Y014890D02*
X022730Y014815D01*
X023461Y010786D02*
X021887Y010786D01*
X021833Y010784D01*
X021780Y010779D01*
X021727Y010770D01*
X021675Y010757D01*
X021623Y010741D01*
X021573Y010721D01*
X021525Y010698D01*
X021478Y010671D01*
X021433Y010642D01*
X021390Y010609D01*
X021350Y010574D01*
X021312Y010536D01*
X021277Y010496D01*
X021244Y010453D01*
X021215Y010408D01*
X021188Y010361D01*
X021165Y010313D01*
X021145Y010263D01*
X021129Y010211D01*
X021116Y010159D01*
X021107Y010106D01*
X021102Y010053D01*
X021100Y009999D01*
X021099Y009999D02*
X021099Y001101D01*
X021100Y001101D02*
X021102Y001047D01*
X021107Y000994D01*
X021116Y000941D01*
X021129Y000889D01*
X021145Y000837D01*
X021165Y000787D01*
X021188Y000739D01*
X021215Y000692D01*
X021244Y000647D01*
X021277Y000604D01*
X021312Y000564D01*
X021350Y000526D01*
X021390Y000491D01*
X021433Y000458D01*
X021478Y000429D01*
X021525Y000402D01*
X021573Y000379D01*
X021623Y000359D01*
X021675Y000343D01*
X021727Y000330D01*
X021780Y000321D01*
X021833Y000316D01*
X021887Y000314D01*
X023461Y000314D01*
X023515Y000316D01*
X023568Y000321D01*
X023621Y000330D01*
X023673Y000343D01*
X023725Y000359D01*
X023775Y000379D01*
X023823Y000402D01*
X023870Y000429D01*
X023915Y000458D01*
X023958Y000491D01*
X023998Y000526D01*
X024036Y000564D01*
X024071Y000604D01*
X024104Y000647D01*
X024133Y000692D01*
X024160Y000739D01*
X024183Y000787D01*
X024203Y000837D01*
X024219Y000889D01*
X024232Y000941D01*
X024241Y000994D01*
X024246Y001047D01*
X024248Y001101D01*
X024249Y001101D02*
X024249Y001711D01*
X024500Y002295D02*
X024575Y002295D01*
X024650Y002370D01*
X024650Y002745D01*
X024575Y002745D02*
X024725Y002745D01*
X024885Y002745D02*
X025111Y002745D01*
X025186Y002670D01*
X025186Y002520D01*
X025111Y002445D01*
X024885Y002445D01*
X024885Y002295D02*
X024885Y002745D01*
X025036Y002499D02*
X025824Y002499D01*
X025646Y002445D02*
X025571Y002520D01*
X025346Y002520D01*
X025346Y002370D01*
X025421Y002295D01*
X025571Y002295D01*
X025646Y002370D01*
X025646Y002445D01*
X025496Y002670D02*
X025346Y002520D01*
X025496Y002670D02*
X025646Y002745D01*
X025824Y002498D02*
X025878Y002496D01*
X025931Y002491D01*
X025984Y002482D01*
X026036Y002469D01*
X026088Y002453D01*
X026138Y002433D01*
X026186Y002410D01*
X026233Y002383D01*
X026278Y002354D01*
X026321Y002321D01*
X026361Y002286D01*
X026399Y002248D01*
X026434Y002208D01*
X026467Y002165D01*
X026496Y002120D01*
X026523Y002073D01*
X026546Y002025D01*
X026566Y001975D01*
X026582Y001923D01*
X026595Y001871D01*
X026604Y001818D01*
X026609Y001765D01*
X026611Y001711D01*
X026611Y001101D01*
X026612Y001101D02*
X026614Y001047D01*
X026619Y000994D01*
X026628Y000941D01*
X026641Y000889D01*
X026657Y000837D01*
X026677Y000787D01*
X026700Y000739D01*
X026727Y000692D01*
X026756Y000647D01*
X026789Y000604D01*
X026824Y000564D01*
X026862Y000526D01*
X026902Y000491D01*
X026945Y000458D01*
X026990Y000429D01*
X027037Y000402D01*
X027085Y000379D01*
X027135Y000359D01*
X027187Y000343D01*
X027239Y000330D01*
X027292Y000321D01*
X027345Y000316D01*
X027399Y000314D01*
X028973Y000314D01*
X029027Y000316D01*
X029080Y000321D01*
X029133Y000330D01*
X029185Y000343D01*
X029237Y000359D01*
X029287Y000379D01*
X029335Y000402D01*
X029382Y000429D01*
X029427Y000458D01*
X029470Y000491D01*
X029510Y000526D01*
X029548Y000564D01*
X029583Y000604D01*
X029616Y000647D01*
X029645Y000692D01*
X029672Y000739D01*
X029695Y000787D01*
X029715Y000837D01*
X029731Y000889D01*
X029744Y000941D01*
X029753Y000994D01*
X029758Y001047D01*
X029760Y001101D01*
X029761Y001101D02*
X029761Y009999D01*
X029760Y009999D02*
X029758Y010053D01*
X029753Y010106D01*
X029744Y010159D01*
X029731Y010211D01*
X029715Y010263D01*
X029695Y010313D01*
X029672Y010361D01*
X029645Y010408D01*
X029616Y010453D01*
X029583Y010496D01*
X029548Y010536D01*
X029510Y010574D01*
X029470Y010609D01*
X029427Y010642D01*
X029382Y010671D01*
X029335Y010698D01*
X029287Y010721D01*
X029237Y010741D01*
X029185Y010757D01*
X029133Y010770D01*
X029080Y010779D01*
X029027Y010784D01*
X028973Y010786D01*
X027399Y010786D01*
X027345Y010784D01*
X027292Y010779D01*
X027239Y010770D01*
X027187Y010757D01*
X027135Y010741D01*
X027085Y010721D01*
X027037Y010698D01*
X026990Y010671D01*
X026945Y010642D01*
X026902Y010609D01*
X026862Y010574D01*
X026824Y010536D01*
X026789Y010496D01*
X026756Y010453D01*
X026727Y010408D01*
X026700Y010361D01*
X026677Y010313D01*
X026657Y010263D01*
X026641Y010211D01*
X026628Y010159D01*
X026619Y010106D01*
X026614Y010053D01*
X026612Y009999D01*
X026611Y009999D02*
X026611Y009389D01*
X026500Y010105D02*
X026350Y010105D01*
X026275Y010180D01*
X026425Y010330D02*
X026500Y010330D01*
X026575Y010255D01*
X026575Y010180D01*
X026500Y010105D01*
X026500Y010330D02*
X026575Y010405D01*
X026575Y010480D01*
X026500Y010555D01*
X026350Y010555D01*
X026275Y010480D01*
X026114Y010480D02*
X026039Y010555D01*
X025814Y010555D01*
X025814Y010105D01*
X025814Y010255D02*
X026039Y010255D01*
X026114Y010330D01*
X026114Y010480D01*
X025654Y010555D02*
X025504Y010555D01*
X025579Y010555D02*
X025579Y010180D01*
X025504Y010105D01*
X025429Y010105D01*
X025354Y010180D01*
X024249Y009389D02*
X024251Y009335D01*
X024256Y009282D01*
X024265Y009229D01*
X024278Y009177D01*
X024294Y009125D01*
X024314Y009075D01*
X024337Y009027D01*
X024364Y008980D01*
X024393Y008935D01*
X024426Y008892D01*
X024461Y008852D01*
X024499Y008814D01*
X024539Y008779D01*
X024582Y008746D01*
X024627Y008717D01*
X024674Y008690D01*
X024722Y008667D01*
X024772Y008647D01*
X024824Y008631D01*
X024876Y008618D01*
X024929Y008609D01*
X024982Y008604D01*
X025036Y008602D01*
X025036Y008601D02*
X025824Y008601D01*
X025824Y008602D02*
X025878Y008604D01*
X025931Y008609D01*
X025984Y008618D01*
X026036Y008631D01*
X026088Y008647D01*
X026138Y008667D01*
X026186Y008690D01*
X026233Y008717D01*
X026278Y008746D01*
X026321Y008779D01*
X026361Y008814D01*
X026399Y008852D01*
X026434Y008892D01*
X026467Y008935D01*
X026496Y008980D01*
X026523Y009027D01*
X026546Y009075D01*
X026566Y009125D01*
X026582Y009177D01*
X026595Y009229D01*
X026604Y009282D01*
X026609Y009335D01*
X026611Y009389D01*
X024249Y009389D02*
X024249Y009999D01*
X024248Y009999D02*
X024246Y010053D01*
X024241Y010106D01*
X024232Y010159D01*
X024219Y010211D01*
X024203Y010263D01*
X024183Y010313D01*
X024160Y010361D01*
X024133Y010408D01*
X024104Y010453D01*
X024071Y010496D01*
X024036Y010536D01*
X023998Y010574D01*
X023958Y010609D01*
X023915Y010642D01*
X023870Y010671D01*
X023823Y010698D01*
X023775Y010721D01*
X023725Y010741D01*
X023673Y010757D01*
X023621Y010770D01*
X023568Y010779D01*
X023515Y010784D01*
X023461Y010786D01*
X019055Y007811D02*
X019055Y007660D01*
X018980Y007585D01*
X018830Y007660D02*
X018830Y007886D01*
X018980Y007886D02*
X018680Y007886D01*
X018605Y007811D01*
X018605Y007660D01*
X018680Y007585D01*
X018755Y007585D01*
X018830Y007660D01*
X018830Y007425D02*
X018905Y007350D01*
X018905Y007125D01*
X019055Y007125D02*
X018605Y007125D01*
X018605Y007350D01*
X018680Y007425D01*
X018830Y007425D01*
X018905Y007275D02*
X019055Y007425D01*
X019055Y007811D02*
X018980Y007886D01*
X017555Y007886D02*
X017555Y007585D01*
X017555Y007736D02*
X017105Y007736D01*
X017255Y007585D01*
X017330Y007425D02*
X017405Y007350D01*
X017405Y007125D01*
X017555Y007125D02*
X017105Y007125D01*
X017105Y007350D01*
X017180Y007425D01*
X017330Y007425D01*
X017405Y007275D02*
X017555Y007425D01*
X017480Y008046D02*
X017180Y008046D01*
X017105Y008121D01*
X017105Y008271D01*
X017180Y008346D01*
X017480Y008046D01*
X017555Y008121D01*
X017555Y008271D01*
X017480Y008346D01*
X017180Y008346D01*
X017261Y009999D02*
X017261Y001101D01*
X017260Y001101D02*
X017258Y001047D01*
X017253Y000994D01*
X017244Y000941D01*
X017231Y000889D01*
X017215Y000837D01*
X017195Y000787D01*
X017172Y000739D01*
X017145Y000692D01*
X017116Y000647D01*
X017083Y000604D01*
X017048Y000564D01*
X017010Y000526D01*
X016970Y000491D01*
X016927Y000458D01*
X016882Y000429D01*
X016835Y000402D01*
X016787Y000379D01*
X016737Y000359D01*
X016685Y000343D01*
X016633Y000330D01*
X016580Y000321D01*
X016527Y000316D01*
X016473Y000314D01*
X014899Y000314D01*
X014845Y000316D01*
X014792Y000321D01*
X014739Y000330D01*
X014687Y000343D01*
X014635Y000359D01*
X014585Y000379D01*
X014537Y000402D01*
X014490Y000429D01*
X014445Y000458D01*
X014402Y000491D01*
X014362Y000526D01*
X014324Y000564D01*
X014289Y000604D01*
X014256Y000647D01*
X014227Y000692D01*
X014200Y000739D01*
X014177Y000787D01*
X014157Y000837D01*
X014141Y000889D01*
X014128Y000941D01*
X014119Y000994D01*
X014114Y001047D01*
X014112Y001101D01*
X014111Y001101D02*
X014111Y001711D01*
X014109Y001765D01*
X014104Y001818D01*
X014095Y001871D01*
X014082Y001923D01*
X014066Y001975D01*
X014046Y002025D01*
X014023Y002073D01*
X013996Y002120D01*
X013967Y002165D01*
X013934Y002208D01*
X013899Y002248D01*
X013861Y002286D01*
X013821Y002321D01*
X013778Y002354D01*
X013733Y002383D01*
X013686Y002410D01*
X013638Y002433D01*
X013588Y002453D01*
X013536Y002469D01*
X013484Y002482D01*
X013431Y002491D01*
X013378Y002496D01*
X013324Y002498D01*
X013324Y002499D02*
X012536Y002499D01*
X012611Y002445D02*
X012385Y002445D01*
X012385Y002295D02*
X012385Y002745D01*
X012611Y002745D01*
X012686Y002670D01*
X012686Y002520D01*
X012611Y002445D01*
X012846Y002370D02*
X012921Y002295D01*
X013071Y002295D01*
X013146Y002370D01*
X013146Y002520D01*
X013071Y002595D01*
X012996Y002595D01*
X012846Y002520D01*
X012846Y002745D01*
X013146Y002745D01*
X012225Y002745D02*
X012075Y002745D01*
X012150Y002745D02*
X012150Y002370D01*
X012075Y002295D01*
X012000Y002295D01*
X011925Y002370D01*
X011749Y001711D02*
X011749Y001101D01*
X011749Y001711D02*
X011751Y001765D01*
X011756Y001818D01*
X011765Y001871D01*
X011778Y001923D01*
X011794Y001975D01*
X011814Y002025D01*
X011837Y002073D01*
X011864Y002120D01*
X011893Y002165D01*
X011926Y002208D01*
X011961Y002248D01*
X011999Y002286D01*
X012039Y002321D01*
X012082Y002354D01*
X012127Y002383D01*
X012174Y002410D01*
X012222Y002433D01*
X012272Y002453D01*
X012324Y002469D01*
X012376Y002482D01*
X012429Y002491D01*
X012482Y002496D01*
X012536Y002498D01*
X011748Y001101D02*
X011746Y001047D01*
X011741Y000994D01*
X011732Y000941D01*
X011719Y000889D01*
X011703Y000837D01*
X011683Y000787D01*
X011660Y000739D01*
X011633Y000692D01*
X011604Y000647D01*
X011571Y000604D01*
X011536Y000564D01*
X011498Y000526D01*
X011458Y000491D01*
X011415Y000458D01*
X011370Y000429D01*
X011323Y000402D01*
X011275Y000379D01*
X011225Y000359D01*
X011173Y000343D01*
X011121Y000330D01*
X011068Y000321D01*
X011015Y000316D01*
X010961Y000314D01*
X009387Y000314D01*
X009333Y000316D01*
X009280Y000321D01*
X009227Y000330D01*
X009175Y000343D01*
X009123Y000359D01*
X009073Y000379D01*
X009025Y000402D01*
X008978Y000429D01*
X008933Y000458D01*
X008890Y000491D01*
X008850Y000526D01*
X008812Y000564D01*
X008777Y000604D01*
X008744Y000647D01*
X008715Y000692D01*
X008688Y000739D01*
X008665Y000787D01*
X008645Y000837D01*
X008629Y000889D01*
X008616Y000941D01*
X008607Y000994D01*
X008602Y001047D01*
X008600Y001101D01*
X008599Y001101D02*
X008599Y009999D01*
X008600Y009999D02*
X008602Y010053D01*
X008607Y010106D01*
X008616Y010159D01*
X008629Y010211D01*
X008645Y010263D01*
X008665Y010313D01*
X008688Y010361D01*
X008715Y010408D01*
X008744Y010453D01*
X008777Y010496D01*
X008812Y010536D01*
X008850Y010574D01*
X008890Y010609D01*
X008933Y010642D01*
X008978Y010671D01*
X009025Y010698D01*
X009073Y010721D01*
X009123Y010741D01*
X009175Y010757D01*
X009227Y010770D01*
X009280Y010779D01*
X009333Y010784D01*
X009387Y010786D01*
X010961Y010786D01*
X011015Y010784D01*
X011068Y010779D01*
X011121Y010770D01*
X011173Y010757D01*
X011225Y010741D01*
X011275Y010721D01*
X011323Y010698D01*
X011370Y010671D01*
X011415Y010642D01*
X011458Y010609D01*
X011498Y010574D01*
X011536Y010536D01*
X011571Y010496D01*
X011604Y010453D01*
X011633Y010408D01*
X011660Y010361D01*
X011683Y010313D01*
X011703Y010263D01*
X011719Y010211D01*
X011732Y010159D01*
X011741Y010106D01*
X011746Y010053D01*
X011748Y009999D01*
X011749Y009999D02*
X011749Y009389D01*
X011751Y009335D01*
X011756Y009282D01*
X011765Y009229D01*
X011778Y009177D01*
X011794Y009125D01*
X011814Y009075D01*
X011837Y009027D01*
X011864Y008980D01*
X011893Y008935D01*
X011926Y008892D01*
X011961Y008852D01*
X011999Y008814D01*
X012039Y008779D01*
X012082Y008746D01*
X012127Y008717D01*
X012174Y008690D01*
X012222Y008667D01*
X012272Y008647D01*
X012324Y008631D01*
X012376Y008618D01*
X012429Y008609D01*
X012482Y008604D01*
X012536Y008602D01*
X012536Y008601D02*
X013324Y008601D01*
X013324Y008602D02*
X013378Y008604D01*
X013431Y008609D01*
X013484Y008618D01*
X013536Y008631D01*
X013588Y008647D01*
X013638Y008667D01*
X013686Y008690D01*
X013733Y008717D01*
X013778Y008746D01*
X013821Y008779D01*
X013861Y008814D01*
X013899Y008852D01*
X013934Y008892D01*
X013967Y008935D01*
X013996Y008980D01*
X014023Y009027D01*
X014046Y009075D01*
X014066Y009125D01*
X014082Y009177D01*
X014095Y009229D01*
X014104Y009282D01*
X014109Y009335D01*
X014111Y009389D01*
X014111Y009999D01*
X014112Y009999D02*
X014114Y010053D01*
X014119Y010106D01*
X014128Y010159D01*
X014141Y010211D01*
X014157Y010263D01*
X014177Y010313D01*
X014200Y010361D01*
X014227Y010408D01*
X014256Y010453D01*
X014289Y010496D01*
X014324Y010536D01*
X014362Y010574D01*
X014402Y010609D01*
X014445Y010642D01*
X014490Y010671D01*
X014537Y010698D01*
X014585Y010721D01*
X014635Y010741D01*
X014687Y010757D01*
X014739Y010770D01*
X014792Y010779D01*
X014845Y010784D01*
X014899Y010786D01*
X016473Y010786D01*
X016527Y010784D01*
X016580Y010779D01*
X016633Y010770D01*
X016685Y010757D01*
X016737Y010741D01*
X016787Y010721D01*
X016835Y010698D01*
X016882Y010671D01*
X016927Y010642D01*
X016970Y010609D01*
X017010Y010574D01*
X017048Y010536D01*
X017083Y010496D01*
X017116Y010453D01*
X017145Y010408D01*
X017172Y010361D01*
X017195Y010313D01*
X017215Y010263D01*
X017231Y010211D01*
X017244Y010159D01*
X017253Y010106D01*
X017258Y010053D01*
X017260Y009999D01*
X015425Y012373D02*
X015425Y012598D01*
X015575Y012748D01*
X015575Y012823D01*
X015425Y012598D02*
X015275Y012748D01*
X015275Y012823D01*
X014814Y012823D02*
X014814Y012373D01*
X015114Y012373D01*
X014654Y012598D02*
X014579Y012523D01*
X014354Y012523D01*
X014354Y012373D02*
X014354Y012823D01*
X014579Y012823D01*
X014654Y012748D01*
X014654Y012598D01*
X014194Y012598D02*
X014119Y012523D01*
X013893Y012523D01*
X013893Y012373D02*
X013893Y012823D01*
X014119Y012823D01*
X014194Y012748D01*
X014194Y012598D01*
X013733Y012448D02*
X013733Y012823D01*
X013433Y012823D02*
X013433Y012448D01*
X013508Y012373D01*
X013658Y012373D01*
X013733Y012448D01*
X013273Y012448D02*
X013273Y012523D01*
X013198Y012598D01*
X013048Y012598D01*
X012973Y012673D01*
X012973Y012748D01*
X013048Y012823D01*
X013198Y012823D01*
X013273Y012748D01*
X013273Y012448D02*
X013198Y012373D01*
X013048Y012373D01*
X012973Y012448D01*
X012821Y011995D02*
X012596Y011770D01*
X012896Y011770D01*
X012821Y011545D02*
X012821Y011995D01*
X012436Y011920D02*
X012436Y011770D01*
X012361Y011695D01*
X012135Y011695D01*
X012135Y011545D02*
X012135Y011995D01*
X012361Y011995D01*
X012436Y011920D01*
X011975Y011995D02*
X011825Y011995D01*
X011900Y011995D02*
X011900Y011620D01*
X011825Y011545D01*
X011750Y011545D01*
X011675Y011620D01*
X024425Y002370D02*
X024500Y002295D01*
X025036Y002498D02*
X024982Y002496D01*
X024929Y002491D01*
X024876Y002482D01*
X024824Y002469D01*
X024772Y002453D01*
X024722Y002433D01*
X024674Y002410D01*
X024627Y002383D01*
X024582Y002354D01*
X024539Y002321D01*
X024499Y002286D01*
X024461Y002248D01*
X024426Y002208D01*
X024393Y002165D01*
X024364Y002120D01*
X024337Y002073D01*
X024314Y002025D01*
X024294Y001975D01*
X024278Y001923D01*
X024265Y001871D01*
X024256Y001818D01*
X024251Y001765D01*
X024249Y001711D01*
X034880Y019744D02*
X034805Y019819D01*
X034805Y019969D01*
X034880Y020044D01*
X035030Y019969D02*
X035105Y020044D01*
X035180Y020044D01*
X035255Y019969D01*
X035255Y019819D01*
X035180Y019744D01*
X035030Y019819D02*
X035030Y019969D01*
X035030Y019819D02*
X034955Y019744D01*
X034880Y019744D01*
X034805Y020204D02*
X035255Y020204D01*
X035105Y020354D01*
X035255Y020504D01*
X034805Y020504D01*
X034955Y020665D02*
X034805Y020815D01*
X035255Y020815D01*
X035255Y020665D02*
X035255Y020965D01*
X034755Y026104D02*
X034305Y026104D01*
X034305Y026329D01*
X034380Y026404D01*
X034530Y026404D01*
X034605Y026329D01*
X034605Y026104D01*
X034605Y026254D02*
X034755Y026404D01*
X034755Y026565D02*
X034455Y026865D01*
X034380Y026865D01*
X034305Y026790D01*
X034305Y026640D01*
X034380Y026565D01*
X034755Y026565D02*
X034755Y026865D01*
X035805Y026790D02*
X035880Y026865D01*
X035955Y026865D01*
X036030Y026790D01*
X036105Y026865D01*
X036180Y026865D01*
X036255Y026790D01*
X036255Y026640D01*
X036180Y026565D01*
X036255Y026404D02*
X036105Y026254D01*
X036105Y026329D02*
X036105Y026104D01*
X036255Y026104D02*
X035805Y026104D01*
X035805Y026329D01*
X035880Y026404D01*
X036030Y026404D01*
X036105Y026329D01*
X035880Y026565D02*
X035805Y026640D01*
X035805Y026790D01*
X036030Y026790D02*
X036030Y026715D01*
X004255Y026754D02*
X003805Y026754D01*
X003955Y026604D01*
X004030Y026444D02*
X004105Y026369D01*
X004105Y026144D01*
X004105Y026294D02*
X004255Y026444D01*
X004255Y026604D02*
X004255Y026904D01*
X004255Y027065D02*
X004255Y027365D01*
X004255Y027215D02*
X003805Y027215D01*
X003955Y027065D01*
X003880Y026444D02*
X004030Y026444D01*
X003880Y026444D02*
X003805Y026369D01*
X003805Y026144D01*
X004255Y026144D01*
X002755Y026144D02*
X002305Y026144D01*
X002305Y026369D01*
X002380Y026444D01*
X002530Y026444D01*
X002605Y026369D01*
X002605Y026144D01*
X002605Y026294D02*
X002755Y026444D01*
X002755Y026604D02*
X002755Y026904D01*
X002755Y026754D02*
X002305Y026754D01*
X002455Y026604D01*
X002380Y027065D02*
X002305Y027140D01*
X002305Y027290D01*
X002380Y027365D01*
X002455Y027365D01*
X002755Y027065D01*
X002755Y027365D01*
D15*
X003180Y027720D03*
X001680Y027720D03*
X001680Y024880D03*
X003180Y024880D03*
X018180Y009720D03*
X019680Y009720D03*
X019680Y006880D03*
X018180Y006880D03*
X033680Y024380D03*
X035180Y024380D03*
X035180Y027220D03*
X033680Y027220D03*
D16*
X032605Y020300D03*
X032355Y020300D03*
X032105Y020300D03*
X032105Y019300D03*
X032355Y019300D03*
X032605Y019300D03*
X032605Y018300D03*
X032355Y018300D03*
X032105Y018300D03*
X032105Y017300D03*
X032355Y017300D03*
X032605Y017300D03*
D17*
X020180Y016300D02*
X020180Y023300D01*
X003180Y023300D01*
X003180Y016300D01*
X020180Y016300D01*
D18*
X020475Y021564D02*
X020858Y021564D01*
X020935Y021641D01*
X020935Y021794D01*
X020858Y021871D01*
X020475Y021871D01*
X020551Y022024D02*
X020475Y022101D01*
X020475Y022254D01*
X020551Y022331D01*
X020705Y022254D02*
X020705Y022101D01*
X020628Y022024D01*
X020551Y022024D01*
X020398Y022178D02*
X021012Y022178D01*
X020935Y022254D02*
X020858Y022331D01*
X020782Y022331D01*
X020705Y022254D01*
X020935Y022254D02*
X020935Y022101D01*
X020858Y022024D01*
X020935Y022485D02*
X020935Y022792D01*
X020935Y022638D02*
X020475Y022638D01*
X020628Y022485D01*
M02*
