G75*
G70*
%OFA0B0*%
%FSLAX24Y24*%
%IPPOS*%
%LPD*%
%AMOC8*
5,1,8,0,0,1.08239X$1,22.5*
%
%ADD10C,0.0030*%
%ADD11C,0.0000*%
D10*
X008448Y000300D02*
X029826Y000300D01*
X029826Y012111D01*
X037700Y012111D01*
X037700Y031796D01*
X000180Y031796D01*
X000180Y012111D01*
X008448Y012111D01*
X008448Y000300D01*
D11*
X018035Y004296D02*
X018037Y004343D01*
X018043Y004389D01*
X018053Y004435D01*
X018066Y004480D01*
X018084Y004523D01*
X018105Y004565D01*
X018129Y004605D01*
X018157Y004642D01*
X018188Y004677D01*
X018222Y004710D01*
X018258Y004739D01*
X018297Y004765D01*
X018338Y004788D01*
X018381Y004807D01*
X018425Y004823D01*
X018470Y004835D01*
X018516Y004843D01*
X018563Y004847D01*
X018609Y004847D01*
X018656Y004843D01*
X018702Y004835D01*
X018747Y004823D01*
X018791Y004807D01*
X018834Y004788D01*
X018875Y004765D01*
X018914Y004739D01*
X018950Y004710D01*
X018984Y004677D01*
X019015Y004642D01*
X019043Y004605D01*
X019067Y004565D01*
X019088Y004523D01*
X019106Y004480D01*
X019119Y004435D01*
X019129Y004389D01*
X019135Y004343D01*
X019137Y004296D01*
X019135Y004249D01*
X019129Y004203D01*
X019119Y004157D01*
X019106Y004112D01*
X019088Y004069D01*
X019067Y004027D01*
X019043Y003987D01*
X019015Y003950D01*
X018984Y003915D01*
X018950Y003882D01*
X018914Y003853D01*
X018875Y003827D01*
X018834Y003804D01*
X018791Y003785D01*
X018747Y003769D01*
X018702Y003757D01*
X018656Y003749D01*
X018609Y003745D01*
X018563Y003745D01*
X018516Y003749D01*
X018470Y003757D01*
X018425Y003769D01*
X018381Y003785D01*
X018338Y003804D01*
X018297Y003827D01*
X018258Y003853D01*
X018222Y003882D01*
X018188Y003915D01*
X018157Y003950D01*
X018129Y003987D01*
X018105Y004027D01*
X018084Y004069D01*
X018066Y004112D01*
X018053Y004157D01*
X018043Y004203D01*
X018037Y004249D01*
X018035Y004296D01*
X001204Y016442D02*
X001206Y016489D01*
X001212Y016535D01*
X001222Y016581D01*
X001235Y016626D01*
X001253Y016669D01*
X001274Y016711D01*
X001298Y016751D01*
X001326Y016788D01*
X001357Y016823D01*
X001391Y016856D01*
X001427Y016885D01*
X001466Y016911D01*
X001507Y016934D01*
X001550Y016953D01*
X001594Y016969D01*
X001639Y016981D01*
X001685Y016989D01*
X001732Y016993D01*
X001778Y016993D01*
X001825Y016989D01*
X001871Y016981D01*
X001916Y016969D01*
X001960Y016953D01*
X002003Y016934D01*
X002044Y016911D01*
X002083Y016885D01*
X002119Y016856D01*
X002153Y016823D01*
X002184Y016788D01*
X002212Y016751D01*
X002236Y016711D01*
X002257Y016669D01*
X002275Y016626D01*
X002288Y016581D01*
X002298Y016535D01*
X002304Y016489D01*
X002306Y016442D01*
X002304Y016395D01*
X002298Y016349D01*
X002288Y016303D01*
X002275Y016258D01*
X002257Y016215D01*
X002236Y016173D01*
X002212Y016133D01*
X002184Y016096D01*
X002153Y016061D01*
X002119Y016028D01*
X002083Y015999D01*
X002044Y015973D01*
X002003Y015950D01*
X001960Y015931D01*
X001916Y015915D01*
X001871Y015903D01*
X001825Y015895D01*
X001778Y015891D01*
X001732Y015891D01*
X001685Y015895D01*
X001639Y015903D01*
X001594Y015915D01*
X001550Y015931D01*
X001507Y015950D01*
X001466Y015973D01*
X001427Y015999D01*
X001391Y016028D01*
X001357Y016061D01*
X001326Y016096D01*
X001298Y016133D01*
X001274Y016173D01*
X001253Y016215D01*
X001235Y016258D01*
X001222Y016303D01*
X001212Y016349D01*
X001206Y016395D01*
X001204Y016442D01*
X035456Y016442D02*
X035458Y016489D01*
X035464Y016535D01*
X035474Y016581D01*
X035487Y016626D01*
X035505Y016669D01*
X035526Y016711D01*
X035550Y016751D01*
X035578Y016788D01*
X035609Y016823D01*
X035643Y016856D01*
X035679Y016885D01*
X035718Y016911D01*
X035759Y016934D01*
X035802Y016953D01*
X035846Y016969D01*
X035891Y016981D01*
X035937Y016989D01*
X035984Y016993D01*
X036030Y016993D01*
X036077Y016989D01*
X036123Y016981D01*
X036168Y016969D01*
X036212Y016953D01*
X036255Y016934D01*
X036296Y016911D01*
X036335Y016885D01*
X036371Y016856D01*
X036405Y016823D01*
X036436Y016788D01*
X036464Y016751D01*
X036488Y016711D01*
X036509Y016669D01*
X036527Y016626D01*
X036540Y016581D01*
X036550Y016535D01*
X036556Y016489D01*
X036558Y016442D01*
X036556Y016395D01*
X036550Y016349D01*
X036540Y016303D01*
X036527Y016258D01*
X036509Y016215D01*
X036488Y016173D01*
X036464Y016133D01*
X036436Y016096D01*
X036405Y016061D01*
X036371Y016028D01*
X036335Y015999D01*
X036296Y015973D01*
X036255Y015950D01*
X036212Y015931D01*
X036168Y015915D01*
X036123Y015903D01*
X036077Y015895D01*
X036030Y015891D01*
X035984Y015891D01*
X035937Y015895D01*
X035891Y015903D01*
X035846Y015915D01*
X035802Y015931D01*
X035759Y015950D01*
X035718Y015973D01*
X035679Y015999D01*
X035643Y016028D01*
X035609Y016061D01*
X035578Y016096D01*
X035550Y016133D01*
X035526Y016173D01*
X035505Y016215D01*
X035487Y016258D01*
X035474Y016303D01*
X035464Y016349D01*
X035458Y016395D01*
X035456Y016442D01*
M02*
