G75*
G70*
%OFA0B0*%
%FSLAX24Y24*%
%IPPOS*%
%LPD*%
%AMOC8*
5,1,8,0,0,1.08239X$1,22.5*
%
%ADD10C,0.0030*%
%ADD11C,0.0000*%
%ADD12C,0.1182*%
%ADD13OC8,0.0600*%
%ADD14OC8,0.0710*%
%ADD15C,0.0710*%
%ADD16C,0.0680*%
%ADD17C,0.0600*%
%ADD18C,0.0634*%
%ADD19C,0.0595*%
%ADD20C,0.1497*%
%ADD21C,0.0516*%
D10*
X008448Y000300D02*
X029826Y000300D01*
X029826Y012111D01*
X037700Y012111D01*
X037700Y031796D01*
X000180Y031796D01*
X000180Y012111D01*
X008448Y012111D01*
X008448Y000300D01*
D11*
X018035Y004296D02*
X018037Y004343D01*
X018043Y004389D01*
X018053Y004435D01*
X018066Y004480D01*
X018084Y004523D01*
X018105Y004565D01*
X018129Y004605D01*
X018157Y004642D01*
X018188Y004677D01*
X018222Y004710D01*
X018258Y004739D01*
X018297Y004765D01*
X018338Y004788D01*
X018381Y004807D01*
X018425Y004823D01*
X018470Y004835D01*
X018516Y004843D01*
X018563Y004847D01*
X018609Y004847D01*
X018656Y004843D01*
X018702Y004835D01*
X018747Y004823D01*
X018791Y004807D01*
X018834Y004788D01*
X018875Y004765D01*
X018914Y004739D01*
X018950Y004710D01*
X018984Y004677D01*
X019015Y004642D01*
X019043Y004605D01*
X019067Y004565D01*
X019088Y004523D01*
X019106Y004480D01*
X019119Y004435D01*
X019129Y004389D01*
X019135Y004343D01*
X019137Y004296D01*
X019135Y004249D01*
X019129Y004203D01*
X019119Y004157D01*
X019106Y004112D01*
X019088Y004069D01*
X019067Y004027D01*
X019043Y003987D01*
X019015Y003950D01*
X018984Y003915D01*
X018950Y003882D01*
X018914Y003853D01*
X018875Y003827D01*
X018834Y003804D01*
X018791Y003785D01*
X018747Y003769D01*
X018702Y003757D01*
X018656Y003749D01*
X018609Y003745D01*
X018563Y003745D01*
X018516Y003749D01*
X018470Y003757D01*
X018425Y003769D01*
X018381Y003785D01*
X018338Y003804D01*
X018297Y003827D01*
X018258Y003853D01*
X018222Y003882D01*
X018188Y003915D01*
X018157Y003950D01*
X018129Y003987D01*
X018105Y004027D01*
X018084Y004069D01*
X018066Y004112D01*
X018053Y004157D01*
X018043Y004203D01*
X018037Y004249D01*
X018035Y004296D01*
X001204Y016442D02*
X001206Y016489D01*
X001212Y016535D01*
X001222Y016581D01*
X001235Y016626D01*
X001253Y016669D01*
X001274Y016711D01*
X001298Y016751D01*
X001326Y016788D01*
X001357Y016823D01*
X001391Y016856D01*
X001427Y016885D01*
X001466Y016911D01*
X001507Y016934D01*
X001550Y016953D01*
X001594Y016969D01*
X001639Y016981D01*
X001685Y016989D01*
X001732Y016993D01*
X001778Y016993D01*
X001825Y016989D01*
X001871Y016981D01*
X001916Y016969D01*
X001960Y016953D01*
X002003Y016934D01*
X002044Y016911D01*
X002083Y016885D01*
X002119Y016856D01*
X002153Y016823D01*
X002184Y016788D01*
X002212Y016751D01*
X002236Y016711D01*
X002257Y016669D01*
X002275Y016626D01*
X002288Y016581D01*
X002298Y016535D01*
X002304Y016489D01*
X002306Y016442D01*
X002304Y016395D01*
X002298Y016349D01*
X002288Y016303D01*
X002275Y016258D01*
X002257Y016215D01*
X002236Y016173D01*
X002212Y016133D01*
X002184Y016096D01*
X002153Y016061D01*
X002119Y016028D01*
X002083Y015999D01*
X002044Y015973D01*
X002003Y015950D01*
X001960Y015931D01*
X001916Y015915D01*
X001871Y015903D01*
X001825Y015895D01*
X001778Y015891D01*
X001732Y015891D01*
X001685Y015895D01*
X001639Y015903D01*
X001594Y015915D01*
X001550Y015931D01*
X001507Y015950D01*
X001466Y015973D01*
X001427Y015999D01*
X001391Y016028D01*
X001357Y016061D01*
X001326Y016096D01*
X001298Y016133D01*
X001274Y016173D01*
X001253Y016215D01*
X001235Y016258D01*
X001222Y016303D01*
X001212Y016349D01*
X001206Y016395D01*
X001204Y016442D01*
X035456Y016442D02*
X035458Y016489D01*
X035464Y016535D01*
X035474Y016581D01*
X035487Y016626D01*
X035505Y016669D01*
X035526Y016711D01*
X035550Y016751D01*
X035578Y016788D01*
X035609Y016823D01*
X035643Y016856D01*
X035679Y016885D01*
X035718Y016911D01*
X035759Y016934D01*
X035802Y016953D01*
X035846Y016969D01*
X035891Y016981D01*
X035937Y016989D01*
X035984Y016993D01*
X036030Y016993D01*
X036077Y016989D01*
X036123Y016981D01*
X036168Y016969D01*
X036212Y016953D01*
X036255Y016934D01*
X036296Y016911D01*
X036335Y016885D01*
X036371Y016856D01*
X036405Y016823D01*
X036436Y016788D01*
X036464Y016751D01*
X036488Y016711D01*
X036509Y016669D01*
X036527Y016626D01*
X036540Y016581D01*
X036550Y016535D01*
X036556Y016489D01*
X036558Y016442D01*
X036556Y016395D01*
X036550Y016349D01*
X036540Y016303D01*
X036527Y016258D01*
X036509Y016215D01*
X036488Y016173D01*
X036464Y016133D01*
X036436Y016096D01*
X036405Y016061D01*
X036371Y016028D01*
X036335Y015999D01*
X036296Y015973D01*
X036255Y015950D01*
X036212Y015931D01*
X036168Y015915D01*
X036123Y015903D01*
X036077Y015895D01*
X036030Y015891D01*
X035984Y015891D01*
X035937Y015895D01*
X035891Y015903D01*
X035846Y015915D01*
X035802Y015931D01*
X035759Y015950D01*
X035718Y015973D01*
X035679Y015999D01*
X035643Y016028D01*
X035609Y016061D01*
X035578Y016096D01*
X035550Y016133D01*
X035526Y016173D01*
X035505Y016215D01*
X035487Y016258D01*
X035474Y016303D01*
X035464Y016349D01*
X035458Y016395D01*
X035456Y016442D01*
D12*
X036007Y016442D03*
X018586Y004296D03*
X001755Y016442D03*
D13*
X001680Y024300D03*
X003180Y024300D03*
X003180Y028300D03*
X001680Y028300D03*
X018180Y010300D03*
X019680Y010300D03*
X019680Y006300D03*
X018180Y006300D03*
X029180Y023300D03*
X031180Y023300D03*
X033680Y023800D03*
X035180Y023800D03*
X035180Y027800D03*
X033680Y027800D03*
D14*
X021680Y015800D03*
D15*
X021680Y016800D03*
D16*
X025180Y011600D02*
X025180Y011000D01*
X026180Y011000D02*
X026180Y011600D01*
X015180Y013268D02*
X015180Y013868D01*
X014180Y013868D02*
X014180Y013268D01*
X013180Y013268D02*
X013180Y013868D01*
X012180Y013868D02*
X012180Y013268D01*
X011180Y013268D02*
X011180Y013868D01*
X010180Y013868D02*
X010180Y013268D01*
X009180Y013268D02*
X009180Y013868D01*
X008180Y013868D02*
X008180Y013268D01*
X007180Y013268D02*
X007180Y013868D01*
X012180Y011100D02*
X012180Y010500D01*
X013180Y010500D02*
X013180Y011100D01*
X013430Y001850D02*
X013430Y001250D01*
X012430Y001250D02*
X012430Y001850D01*
X024930Y001850D02*
X024930Y001250D01*
X025930Y001250D02*
X025930Y001850D01*
D17*
X030920Y017300D02*
X031440Y017300D01*
X031440Y018300D02*
X030920Y018300D01*
X030920Y019300D02*
X031440Y019300D01*
X031440Y020300D02*
X030920Y020300D01*
X033920Y020300D02*
X034440Y020300D01*
X034440Y019300D02*
X033920Y019300D01*
X033920Y018300D02*
X034440Y018300D01*
X034440Y017300D02*
X033920Y017300D01*
D18*
X018680Y017077D02*
X018680Y016523D01*
X017680Y016523D02*
X017680Y017077D01*
X016680Y017077D02*
X016680Y016523D01*
X015680Y016523D02*
X015680Y017077D01*
X014680Y017077D02*
X014680Y016523D01*
X013680Y016523D02*
X013680Y017077D01*
X012680Y017077D02*
X012680Y016523D01*
X011680Y016523D02*
X011680Y017077D01*
X010680Y017077D02*
X010680Y016523D01*
X009680Y016523D02*
X009680Y017077D01*
X008680Y017077D02*
X008680Y016523D01*
X007680Y016523D02*
X007680Y017077D01*
X006680Y017077D02*
X006680Y016523D01*
X005680Y016523D02*
X005680Y017077D01*
X004680Y017077D02*
X004680Y016523D01*
X004680Y022523D02*
X004680Y023077D01*
X005680Y023077D02*
X005680Y022523D01*
X006680Y022523D02*
X006680Y023077D01*
X007680Y023077D02*
X007680Y022523D01*
X008680Y022523D02*
X008680Y023077D01*
X009680Y023077D02*
X009680Y022523D01*
X010680Y022523D02*
X010680Y023077D01*
X011680Y023077D02*
X011680Y022523D01*
X012680Y022523D02*
X012680Y023077D01*
X013680Y023077D02*
X013680Y022523D01*
X014680Y022523D02*
X014680Y023077D01*
X015680Y023077D02*
X015680Y022523D01*
X016680Y022523D02*
X016680Y023077D01*
X017680Y023077D02*
X017680Y022523D01*
X018680Y022523D02*
X018680Y023077D01*
D19*
X023680Y023057D02*
X023680Y022543D01*
X024680Y022543D02*
X024680Y023057D01*
X025680Y023057D02*
X025680Y022543D01*
X026680Y022543D02*
X026680Y023057D01*
X027680Y023057D02*
X027680Y022543D01*
X027680Y017057D02*
X027680Y016543D01*
X026680Y016543D02*
X026680Y017057D01*
X025680Y017057D02*
X025680Y016543D01*
X024680Y016543D02*
X024680Y017057D01*
X023680Y017057D02*
X023680Y016543D01*
X034079Y029831D02*
X034594Y029831D01*
X034594Y030800D02*
X034079Y030800D01*
X035704Y030800D02*
X036219Y030800D01*
X036219Y029831D02*
X035704Y029831D01*
X020281Y002769D02*
X019766Y002769D01*
X019766Y001800D02*
X020281Y001800D01*
X018656Y001800D02*
X018141Y001800D01*
X018141Y002769D02*
X018656Y002769D01*
X003781Y029800D02*
X003266Y029800D01*
X003266Y030769D02*
X003781Y030769D01*
X002156Y030769D02*
X001641Y030769D01*
X001641Y029800D02*
X002156Y029800D01*
D20*
X010174Y009379D03*
X015686Y009379D03*
X022674Y009379D03*
X028186Y009379D03*
X028186Y001721D03*
X022674Y001721D03*
X015686Y001721D03*
X010174Y001721D03*
D21*
X010680Y011300D03*
M02*
