G75*
G70*
%OFA0B0*%
%FSLAX24Y24*%
%IPPOS*%
%LPD*%
%AMOC8*
5,1,8,0,0,1.08239X$1,22.5*
%
%ADD10C,0.0030*%
%ADD11C,0.0000*%
%ADD12C,0.0050*%
D10*
X008448Y000300D02*
X029826Y000300D01*
X029826Y012111D01*
X037700Y012111D01*
X037700Y031796D01*
X000180Y031796D01*
X000180Y012111D01*
X008448Y012111D01*
X008448Y000300D01*
D11*
X018035Y004296D02*
X018037Y004343D01*
X018043Y004389D01*
X018053Y004435D01*
X018066Y004480D01*
X018084Y004523D01*
X018105Y004565D01*
X018129Y004605D01*
X018157Y004642D01*
X018188Y004677D01*
X018222Y004710D01*
X018258Y004739D01*
X018297Y004765D01*
X018338Y004788D01*
X018381Y004807D01*
X018425Y004823D01*
X018470Y004835D01*
X018516Y004843D01*
X018563Y004847D01*
X018609Y004847D01*
X018656Y004843D01*
X018702Y004835D01*
X018747Y004823D01*
X018791Y004807D01*
X018834Y004788D01*
X018875Y004765D01*
X018914Y004739D01*
X018950Y004710D01*
X018984Y004677D01*
X019015Y004642D01*
X019043Y004605D01*
X019067Y004565D01*
X019088Y004523D01*
X019106Y004480D01*
X019119Y004435D01*
X019129Y004389D01*
X019135Y004343D01*
X019137Y004296D01*
X019135Y004249D01*
X019129Y004203D01*
X019119Y004157D01*
X019106Y004112D01*
X019088Y004069D01*
X019067Y004027D01*
X019043Y003987D01*
X019015Y003950D01*
X018984Y003915D01*
X018950Y003882D01*
X018914Y003853D01*
X018875Y003827D01*
X018834Y003804D01*
X018791Y003785D01*
X018747Y003769D01*
X018702Y003757D01*
X018656Y003749D01*
X018609Y003745D01*
X018563Y003745D01*
X018516Y003749D01*
X018470Y003757D01*
X018425Y003769D01*
X018381Y003785D01*
X018338Y003804D01*
X018297Y003827D01*
X018258Y003853D01*
X018222Y003882D01*
X018188Y003915D01*
X018157Y003950D01*
X018129Y003987D01*
X018105Y004027D01*
X018084Y004069D01*
X018066Y004112D01*
X018053Y004157D01*
X018043Y004203D01*
X018037Y004249D01*
X018035Y004296D01*
X001204Y016442D02*
X001206Y016489D01*
X001212Y016535D01*
X001222Y016581D01*
X001235Y016626D01*
X001253Y016669D01*
X001274Y016711D01*
X001298Y016751D01*
X001326Y016788D01*
X001357Y016823D01*
X001391Y016856D01*
X001427Y016885D01*
X001466Y016911D01*
X001507Y016934D01*
X001550Y016953D01*
X001594Y016969D01*
X001639Y016981D01*
X001685Y016989D01*
X001732Y016993D01*
X001778Y016993D01*
X001825Y016989D01*
X001871Y016981D01*
X001916Y016969D01*
X001960Y016953D01*
X002003Y016934D01*
X002044Y016911D01*
X002083Y016885D01*
X002119Y016856D01*
X002153Y016823D01*
X002184Y016788D01*
X002212Y016751D01*
X002236Y016711D01*
X002257Y016669D01*
X002275Y016626D01*
X002288Y016581D01*
X002298Y016535D01*
X002304Y016489D01*
X002306Y016442D01*
X002304Y016395D01*
X002298Y016349D01*
X002288Y016303D01*
X002275Y016258D01*
X002257Y016215D01*
X002236Y016173D01*
X002212Y016133D01*
X002184Y016096D01*
X002153Y016061D01*
X002119Y016028D01*
X002083Y015999D01*
X002044Y015973D01*
X002003Y015950D01*
X001960Y015931D01*
X001916Y015915D01*
X001871Y015903D01*
X001825Y015895D01*
X001778Y015891D01*
X001732Y015891D01*
X001685Y015895D01*
X001639Y015903D01*
X001594Y015915D01*
X001550Y015931D01*
X001507Y015950D01*
X001466Y015973D01*
X001427Y015999D01*
X001391Y016028D01*
X001357Y016061D01*
X001326Y016096D01*
X001298Y016133D01*
X001274Y016173D01*
X001253Y016215D01*
X001235Y016258D01*
X001222Y016303D01*
X001212Y016349D01*
X001206Y016395D01*
X001204Y016442D01*
X035456Y016442D02*
X035458Y016489D01*
X035464Y016535D01*
X035474Y016581D01*
X035487Y016626D01*
X035505Y016669D01*
X035526Y016711D01*
X035550Y016751D01*
X035578Y016788D01*
X035609Y016823D01*
X035643Y016856D01*
X035679Y016885D01*
X035718Y016911D01*
X035759Y016934D01*
X035802Y016953D01*
X035846Y016969D01*
X035891Y016981D01*
X035937Y016989D01*
X035984Y016993D01*
X036030Y016993D01*
X036077Y016989D01*
X036123Y016981D01*
X036168Y016969D01*
X036212Y016953D01*
X036255Y016934D01*
X036296Y016911D01*
X036335Y016885D01*
X036371Y016856D01*
X036405Y016823D01*
X036436Y016788D01*
X036464Y016751D01*
X036488Y016711D01*
X036509Y016669D01*
X036527Y016626D01*
X036540Y016581D01*
X036550Y016535D01*
X036556Y016489D01*
X036558Y016442D01*
X036556Y016395D01*
X036550Y016349D01*
X036540Y016303D01*
X036527Y016258D01*
X036509Y016215D01*
X036488Y016173D01*
X036464Y016133D01*
X036436Y016096D01*
X036405Y016061D01*
X036371Y016028D01*
X036335Y015999D01*
X036296Y015973D01*
X036255Y015950D01*
X036212Y015931D01*
X036168Y015915D01*
X036123Y015903D01*
X036077Y015895D01*
X036030Y015891D01*
X035984Y015891D01*
X035937Y015895D01*
X035891Y015903D01*
X035846Y015915D01*
X035802Y015931D01*
X035759Y015950D01*
X035718Y015973D01*
X035679Y015999D01*
X035643Y016028D01*
X035609Y016061D01*
X035578Y016096D01*
X035550Y016133D01*
X035526Y016173D01*
X035505Y016215D01*
X035487Y016258D01*
X035474Y016303D01*
X035464Y016349D01*
X035458Y016395D01*
X035456Y016442D01*
D12*
X036868Y029394D02*
X033493Y029394D01*
X033493Y031019D01*
X033680Y031206D01*
X036868Y031206D01*
X036868Y029394D01*
X036680Y029581D02*
X035274Y029581D01*
X035274Y031019D01*
X036680Y031019D01*
X036680Y029581D01*
X035387Y030300D02*
X035389Y030347D01*
X035395Y030394D01*
X035405Y030441D01*
X035418Y030486D01*
X035435Y030531D01*
X035456Y030573D01*
X035480Y030614D01*
X035508Y030653D01*
X035539Y030689D01*
X035572Y030722D01*
X035608Y030753D01*
X035647Y030781D01*
X035688Y030805D01*
X035730Y030826D01*
X035775Y030843D01*
X035820Y030856D01*
X035867Y030866D01*
X035914Y030872D01*
X035961Y030874D01*
X036008Y030872D01*
X036055Y030866D01*
X036102Y030856D01*
X036147Y030843D01*
X036192Y030826D01*
X036234Y030805D01*
X036275Y030781D01*
X036314Y030753D01*
X036350Y030722D01*
X036383Y030689D01*
X036414Y030653D01*
X036442Y030614D01*
X036466Y030573D01*
X036487Y030531D01*
X036504Y030486D01*
X036517Y030441D01*
X036527Y030394D01*
X036533Y030347D01*
X036535Y030300D01*
X036533Y030253D01*
X036527Y030206D01*
X036517Y030159D01*
X036504Y030114D01*
X036487Y030069D01*
X036466Y030027D01*
X036442Y029986D01*
X036414Y029947D01*
X036383Y029911D01*
X036350Y029878D01*
X036314Y029847D01*
X036275Y029819D01*
X036234Y029795D01*
X036192Y029774D01*
X036147Y029757D01*
X036102Y029744D01*
X036055Y029734D01*
X036008Y029728D01*
X035961Y029726D01*
X035914Y029728D01*
X035867Y029734D01*
X035820Y029744D01*
X035775Y029757D01*
X035730Y029774D01*
X035688Y029795D01*
X035647Y029819D01*
X035608Y029847D01*
X035572Y029878D01*
X035539Y029911D01*
X035508Y029947D01*
X035480Y029986D01*
X035456Y030027D01*
X035435Y030069D01*
X035418Y030114D01*
X035405Y030159D01*
X035395Y030206D01*
X035389Y030253D01*
X035387Y030300D01*
X035086Y029581D02*
X033680Y029581D01*
X033680Y031019D01*
X035086Y031019D01*
X035086Y029581D01*
X033792Y030300D02*
X033794Y030348D01*
X033800Y030395D01*
X033810Y030441D01*
X033823Y030487D01*
X033841Y030531D01*
X033861Y030574D01*
X033886Y030615D01*
X033913Y030654D01*
X033944Y030690D01*
X033978Y030724D01*
X034014Y030755D01*
X034053Y030782D01*
X034094Y030807D01*
X034137Y030827D01*
X034181Y030845D01*
X034227Y030858D01*
X034273Y030868D01*
X034320Y030874D01*
X034368Y030876D01*
X034416Y030874D01*
X034463Y030868D01*
X034509Y030858D01*
X034555Y030845D01*
X034599Y030827D01*
X034642Y030807D01*
X034683Y030782D01*
X034722Y030755D01*
X034758Y030724D01*
X034792Y030690D01*
X034823Y030654D01*
X034850Y030615D01*
X034875Y030574D01*
X034895Y030531D01*
X034913Y030487D01*
X034926Y030441D01*
X034936Y030395D01*
X034942Y030348D01*
X034944Y030300D01*
X034942Y030252D01*
X034936Y030205D01*
X034926Y030159D01*
X034913Y030113D01*
X034895Y030069D01*
X034875Y030026D01*
X034850Y029985D01*
X034823Y029946D01*
X034792Y029910D01*
X034758Y029876D01*
X034722Y029845D01*
X034683Y029818D01*
X034642Y029793D01*
X034599Y029773D01*
X034555Y029755D01*
X034509Y029742D01*
X034463Y029732D01*
X034416Y029726D01*
X034368Y029724D01*
X034320Y029726D01*
X034273Y029732D01*
X034227Y029742D01*
X034181Y029755D01*
X034137Y029773D01*
X034094Y029793D01*
X034053Y029818D01*
X034014Y029845D01*
X033978Y029876D01*
X033944Y029910D01*
X033913Y029946D01*
X033886Y029985D01*
X033861Y030026D01*
X033841Y030069D01*
X033823Y030113D01*
X033810Y030159D01*
X033800Y030205D01*
X033794Y030252D01*
X033792Y030300D01*
X004368Y029581D02*
X004180Y029394D01*
X000993Y029394D01*
X000993Y031206D01*
X004368Y031206D01*
X004368Y029581D01*
X004180Y029581D02*
X002774Y029581D01*
X002774Y031019D01*
X004180Y031019D01*
X004180Y029581D01*
X002917Y030300D02*
X002919Y030348D01*
X002925Y030395D01*
X002935Y030441D01*
X002948Y030487D01*
X002966Y030531D01*
X002986Y030574D01*
X003011Y030615D01*
X003038Y030654D01*
X003069Y030690D01*
X003103Y030724D01*
X003139Y030755D01*
X003178Y030782D01*
X003219Y030807D01*
X003262Y030827D01*
X003306Y030845D01*
X003352Y030858D01*
X003398Y030868D01*
X003445Y030874D01*
X003493Y030876D01*
X003541Y030874D01*
X003588Y030868D01*
X003634Y030858D01*
X003680Y030845D01*
X003724Y030827D01*
X003767Y030807D01*
X003808Y030782D01*
X003847Y030755D01*
X003883Y030724D01*
X003917Y030690D01*
X003948Y030654D01*
X003975Y030615D01*
X004000Y030574D01*
X004020Y030531D01*
X004038Y030487D01*
X004051Y030441D01*
X004061Y030395D01*
X004067Y030348D01*
X004069Y030300D01*
X004067Y030252D01*
X004061Y030205D01*
X004051Y030159D01*
X004038Y030113D01*
X004020Y030069D01*
X004000Y030026D01*
X003975Y029985D01*
X003948Y029946D01*
X003917Y029910D01*
X003883Y029876D01*
X003847Y029845D01*
X003808Y029818D01*
X003767Y029793D01*
X003724Y029773D01*
X003680Y029755D01*
X003634Y029742D01*
X003588Y029732D01*
X003541Y029726D01*
X003493Y029724D01*
X003445Y029726D01*
X003398Y029732D01*
X003352Y029742D01*
X003306Y029755D01*
X003262Y029773D01*
X003219Y029793D01*
X003178Y029818D01*
X003139Y029845D01*
X003103Y029876D01*
X003069Y029910D01*
X003038Y029946D01*
X003011Y029985D01*
X002986Y030026D01*
X002966Y030069D01*
X002948Y030113D01*
X002935Y030159D01*
X002925Y030205D01*
X002919Y030252D01*
X002917Y030300D01*
X002586Y029581D02*
X001180Y029581D01*
X001180Y031019D01*
X002586Y031019D01*
X002586Y029581D01*
X001325Y030300D02*
X001327Y030347D01*
X001333Y030394D01*
X001343Y030441D01*
X001356Y030486D01*
X001373Y030531D01*
X001394Y030573D01*
X001418Y030614D01*
X001446Y030653D01*
X001477Y030689D01*
X001510Y030722D01*
X001546Y030753D01*
X001585Y030781D01*
X001626Y030805D01*
X001668Y030826D01*
X001713Y030843D01*
X001758Y030856D01*
X001805Y030866D01*
X001852Y030872D01*
X001899Y030874D01*
X001946Y030872D01*
X001993Y030866D01*
X002040Y030856D01*
X002085Y030843D01*
X002130Y030826D01*
X002172Y030805D01*
X002213Y030781D01*
X002252Y030753D01*
X002288Y030722D01*
X002321Y030689D01*
X002352Y030653D01*
X002380Y030614D01*
X002404Y030573D01*
X002425Y030531D01*
X002442Y030486D01*
X002455Y030441D01*
X002465Y030394D01*
X002471Y030347D01*
X002473Y030300D01*
X002471Y030253D01*
X002465Y030206D01*
X002455Y030159D01*
X002442Y030114D01*
X002425Y030069D01*
X002404Y030027D01*
X002380Y029986D01*
X002352Y029947D01*
X002321Y029911D01*
X002288Y029878D01*
X002252Y029847D01*
X002213Y029819D01*
X002172Y029795D01*
X002130Y029774D01*
X002085Y029757D01*
X002040Y029744D01*
X001993Y029734D01*
X001946Y029728D01*
X001899Y029726D01*
X001852Y029728D01*
X001805Y029734D01*
X001758Y029744D01*
X001713Y029757D01*
X001668Y029774D01*
X001626Y029795D01*
X001585Y029819D01*
X001546Y029847D01*
X001510Y029878D01*
X001477Y029911D01*
X001446Y029947D01*
X001418Y029986D01*
X001394Y030027D01*
X001373Y030069D01*
X001356Y030114D01*
X001343Y030159D01*
X001333Y030206D01*
X001327Y030253D01*
X001325Y030300D01*
X017493Y003206D02*
X017493Y001394D01*
X020680Y001394D01*
X020868Y001581D01*
X020868Y003206D01*
X017493Y003206D01*
X017680Y003019D02*
X019086Y003019D01*
X019086Y001581D01*
X017680Y001581D01*
X017680Y003019D01*
X017825Y002300D02*
X017827Y002347D01*
X017833Y002394D01*
X017843Y002441D01*
X017856Y002486D01*
X017873Y002531D01*
X017894Y002573D01*
X017918Y002614D01*
X017946Y002653D01*
X017977Y002689D01*
X018010Y002722D01*
X018046Y002753D01*
X018085Y002781D01*
X018126Y002805D01*
X018168Y002826D01*
X018213Y002843D01*
X018258Y002856D01*
X018305Y002866D01*
X018352Y002872D01*
X018399Y002874D01*
X018446Y002872D01*
X018493Y002866D01*
X018540Y002856D01*
X018585Y002843D01*
X018630Y002826D01*
X018672Y002805D01*
X018713Y002781D01*
X018752Y002753D01*
X018788Y002722D01*
X018821Y002689D01*
X018852Y002653D01*
X018880Y002614D01*
X018904Y002573D01*
X018925Y002531D01*
X018942Y002486D01*
X018955Y002441D01*
X018965Y002394D01*
X018971Y002347D01*
X018973Y002300D01*
X018971Y002253D01*
X018965Y002206D01*
X018955Y002159D01*
X018942Y002114D01*
X018925Y002069D01*
X018904Y002027D01*
X018880Y001986D01*
X018852Y001947D01*
X018821Y001911D01*
X018788Y001878D01*
X018752Y001847D01*
X018713Y001819D01*
X018672Y001795D01*
X018630Y001774D01*
X018585Y001757D01*
X018540Y001744D01*
X018493Y001734D01*
X018446Y001728D01*
X018399Y001726D01*
X018352Y001728D01*
X018305Y001734D01*
X018258Y001744D01*
X018213Y001757D01*
X018168Y001774D01*
X018126Y001795D01*
X018085Y001819D01*
X018046Y001847D01*
X018010Y001878D01*
X017977Y001911D01*
X017946Y001947D01*
X017918Y001986D01*
X017894Y002027D01*
X017873Y002069D01*
X017856Y002114D01*
X017843Y002159D01*
X017833Y002206D01*
X017827Y002253D01*
X017825Y002300D01*
X019274Y001581D02*
X020680Y001581D01*
X020680Y003019D01*
X019274Y003019D01*
X019274Y001581D01*
X019417Y002300D02*
X019419Y002348D01*
X019425Y002395D01*
X019435Y002441D01*
X019448Y002487D01*
X019466Y002531D01*
X019486Y002574D01*
X019511Y002615D01*
X019538Y002654D01*
X019569Y002690D01*
X019603Y002724D01*
X019639Y002755D01*
X019678Y002782D01*
X019719Y002807D01*
X019762Y002827D01*
X019806Y002845D01*
X019852Y002858D01*
X019898Y002868D01*
X019945Y002874D01*
X019993Y002876D01*
X020041Y002874D01*
X020088Y002868D01*
X020134Y002858D01*
X020180Y002845D01*
X020224Y002827D01*
X020267Y002807D01*
X020308Y002782D01*
X020347Y002755D01*
X020383Y002724D01*
X020417Y002690D01*
X020448Y002654D01*
X020475Y002615D01*
X020500Y002574D01*
X020520Y002531D01*
X020538Y002487D01*
X020551Y002441D01*
X020561Y002395D01*
X020567Y002348D01*
X020569Y002300D01*
X020567Y002252D01*
X020561Y002205D01*
X020551Y002159D01*
X020538Y002113D01*
X020520Y002069D01*
X020500Y002026D01*
X020475Y001985D01*
X020448Y001946D01*
X020417Y001910D01*
X020383Y001876D01*
X020347Y001845D01*
X020308Y001818D01*
X020267Y001793D01*
X020224Y001773D01*
X020180Y001755D01*
X020134Y001742D01*
X020088Y001732D01*
X020041Y001726D01*
X019993Y001724D01*
X019945Y001726D01*
X019898Y001732D01*
X019852Y001742D01*
X019806Y001755D01*
X019762Y001773D01*
X019719Y001793D01*
X019678Y001818D01*
X019639Y001845D01*
X019603Y001876D01*
X019569Y001910D01*
X019538Y001946D01*
X019511Y001985D01*
X019486Y002026D01*
X019466Y002069D01*
X019448Y002113D01*
X019435Y002159D01*
X019425Y002205D01*
X019419Y002252D01*
X019417Y002300D01*
M02*
