G75*
G70*
%OFA0B0*%
%FSLAX24Y24*%
%IPPOS*%
%LPD*%
%AMOC8*
5,1,8,0,0,1.08239X$1,22.5*
%
%ADD10C,0.0030*%
%ADD11C,0.0000*%
%ADD12OC8,0.0520*%
%ADD13OC8,0.0630*%
%ADD14C,0.0630*%
%ADD15C,0.0600*%
%ADD16C,0.0520*%
%ADD17C,0.0554*%
%ADD18C,0.0515*%
%ADD19C,0.1417*%
%ADD20C,0.0160*%
%ADD21C,0.0500*%
%ADD22C,0.0400*%
%ADD23C,0.0436*%
%ADD24C,0.0240*%
D10*
X008448Y000300D02*
X029826Y000300D01*
X029826Y012111D01*
X037700Y012111D01*
X037700Y031796D01*
X000180Y031796D01*
X000180Y012111D01*
X008448Y012111D01*
X008448Y000300D01*
D11*
X018035Y004296D02*
X018037Y004343D01*
X018043Y004389D01*
X018053Y004435D01*
X018066Y004480D01*
X018084Y004523D01*
X018105Y004565D01*
X018129Y004605D01*
X018157Y004642D01*
X018188Y004677D01*
X018222Y004710D01*
X018258Y004739D01*
X018297Y004765D01*
X018338Y004788D01*
X018381Y004807D01*
X018425Y004823D01*
X018470Y004835D01*
X018516Y004843D01*
X018563Y004847D01*
X018609Y004847D01*
X018656Y004843D01*
X018702Y004835D01*
X018747Y004823D01*
X018791Y004807D01*
X018834Y004788D01*
X018875Y004765D01*
X018914Y004739D01*
X018950Y004710D01*
X018984Y004677D01*
X019015Y004642D01*
X019043Y004605D01*
X019067Y004565D01*
X019088Y004523D01*
X019106Y004480D01*
X019119Y004435D01*
X019129Y004389D01*
X019135Y004343D01*
X019137Y004296D01*
X019135Y004249D01*
X019129Y004203D01*
X019119Y004157D01*
X019106Y004112D01*
X019088Y004069D01*
X019067Y004027D01*
X019043Y003987D01*
X019015Y003950D01*
X018984Y003915D01*
X018950Y003882D01*
X018914Y003853D01*
X018875Y003827D01*
X018834Y003804D01*
X018791Y003785D01*
X018747Y003769D01*
X018702Y003757D01*
X018656Y003749D01*
X018609Y003745D01*
X018563Y003745D01*
X018516Y003749D01*
X018470Y003757D01*
X018425Y003769D01*
X018381Y003785D01*
X018338Y003804D01*
X018297Y003827D01*
X018258Y003853D01*
X018222Y003882D01*
X018188Y003915D01*
X018157Y003950D01*
X018129Y003987D01*
X018105Y004027D01*
X018084Y004069D01*
X018066Y004112D01*
X018053Y004157D01*
X018043Y004203D01*
X018037Y004249D01*
X018035Y004296D01*
X001204Y016442D02*
X001206Y016489D01*
X001212Y016535D01*
X001222Y016581D01*
X001235Y016626D01*
X001253Y016669D01*
X001274Y016711D01*
X001298Y016751D01*
X001326Y016788D01*
X001357Y016823D01*
X001391Y016856D01*
X001427Y016885D01*
X001466Y016911D01*
X001507Y016934D01*
X001550Y016953D01*
X001594Y016969D01*
X001639Y016981D01*
X001685Y016989D01*
X001732Y016993D01*
X001778Y016993D01*
X001825Y016989D01*
X001871Y016981D01*
X001916Y016969D01*
X001960Y016953D01*
X002003Y016934D01*
X002044Y016911D01*
X002083Y016885D01*
X002119Y016856D01*
X002153Y016823D01*
X002184Y016788D01*
X002212Y016751D01*
X002236Y016711D01*
X002257Y016669D01*
X002275Y016626D01*
X002288Y016581D01*
X002298Y016535D01*
X002304Y016489D01*
X002306Y016442D01*
X002304Y016395D01*
X002298Y016349D01*
X002288Y016303D01*
X002275Y016258D01*
X002257Y016215D01*
X002236Y016173D01*
X002212Y016133D01*
X002184Y016096D01*
X002153Y016061D01*
X002119Y016028D01*
X002083Y015999D01*
X002044Y015973D01*
X002003Y015950D01*
X001960Y015931D01*
X001916Y015915D01*
X001871Y015903D01*
X001825Y015895D01*
X001778Y015891D01*
X001732Y015891D01*
X001685Y015895D01*
X001639Y015903D01*
X001594Y015915D01*
X001550Y015931D01*
X001507Y015950D01*
X001466Y015973D01*
X001427Y015999D01*
X001391Y016028D01*
X001357Y016061D01*
X001326Y016096D01*
X001298Y016133D01*
X001274Y016173D01*
X001253Y016215D01*
X001235Y016258D01*
X001222Y016303D01*
X001212Y016349D01*
X001206Y016395D01*
X001204Y016442D01*
X035456Y016442D02*
X035458Y016489D01*
X035464Y016535D01*
X035474Y016581D01*
X035487Y016626D01*
X035505Y016669D01*
X035526Y016711D01*
X035550Y016751D01*
X035578Y016788D01*
X035609Y016823D01*
X035643Y016856D01*
X035679Y016885D01*
X035718Y016911D01*
X035759Y016934D01*
X035802Y016953D01*
X035846Y016969D01*
X035891Y016981D01*
X035937Y016989D01*
X035984Y016993D01*
X036030Y016993D01*
X036077Y016989D01*
X036123Y016981D01*
X036168Y016969D01*
X036212Y016953D01*
X036255Y016934D01*
X036296Y016911D01*
X036335Y016885D01*
X036371Y016856D01*
X036405Y016823D01*
X036436Y016788D01*
X036464Y016751D01*
X036488Y016711D01*
X036509Y016669D01*
X036527Y016626D01*
X036540Y016581D01*
X036550Y016535D01*
X036556Y016489D01*
X036558Y016442D01*
X036556Y016395D01*
X036550Y016349D01*
X036540Y016303D01*
X036527Y016258D01*
X036509Y016215D01*
X036488Y016173D01*
X036464Y016133D01*
X036436Y016096D01*
X036405Y016061D01*
X036371Y016028D01*
X036335Y015999D01*
X036296Y015973D01*
X036255Y015950D01*
X036212Y015931D01*
X036168Y015915D01*
X036123Y015903D01*
X036077Y015895D01*
X036030Y015891D01*
X035984Y015891D01*
X035937Y015895D01*
X035891Y015903D01*
X035846Y015915D01*
X035802Y015931D01*
X035759Y015950D01*
X035718Y015973D01*
X035679Y015999D01*
X035643Y016028D01*
X035609Y016061D01*
X035578Y016096D01*
X035550Y016133D01*
X035526Y016173D01*
X035505Y016215D01*
X035487Y016258D01*
X035474Y016303D01*
X035464Y016349D01*
X035458Y016395D01*
X035456Y016442D01*
D12*
X031180Y023300D03*
X029180Y023300D03*
X033680Y023800D03*
X035180Y023800D03*
X035180Y027800D03*
X033680Y027800D03*
X019680Y010300D03*
X018180Y010300D03*
X018180Y006300D03*
X019680Y006300D03*
X003180Y024300D03*
X001680Y024300D03*
X001680Y028300D03*
X003180Y028300D03*
D13*
X021680Y015800D03*
D14*
X021680Y016800D03*
D15*
X025180Y011600D02*
X025180Y011000D01*
X026180Y011000D02*
X026180Y011600D01*
X015180Y013268D02*
X015180Y013868D01*
X014180Y013868D02*
X014180Y013268D01*
X013180Y013268D02*
X013180Y013868D01*
X012180Y013868D02*
X012180Y013268D01*
X011180Y013268D02*
X011180Y013868D01*
X010180Y013868D02*
X010180Y013268D01*
X009180Y013268D02*
X009180Y013868D01*
X008180Y013868D02*
X008180Y013268D01*
X007180Y013268D02*
X007180Y013868D01*
X012180Y011100D02*
X012180Y010500D01*
X013180Y010500D02*
X013180Y011100D01*
X013430Y001850D02*
X013430Y001250D01*
X012430Y001250D02*
X012430Y001850D01*
X024930Y001850D02*
X024930Y001250D01*
X025930Y001250D02*
X025930Y001850D01*
D16*
X030920Y017300D02*
X031440Y017300D01*
X031440Y018300D02*
X030920Y018300D01*
X030920Y019300D02*
X031440Y019300D01*
X031440Y020300D02*
X030920Y020300D01*
X033920Y020300D02*
X034440Y020300D01*
X034440Y019300D02*
X033920Y019300D01*
X033920Y018300D02*
X034440Y018300D01*
X034440Y017300D02*
X033920Y017300D01*
D17*
X018680Y017077D02*
X018680Y016523D01*
X017680Y016523D02*
X017680Y017077D01*
X016680Y017077D02*
X016680Y016523D01*
X015680Y016523D02*
X015680Y017077D01*
X014680Y017077D02*
X014680Y016523D01*
X013680Y016523D02*
X013680Y017077D01*
X012680Y017077D02*
X012680Y016523D01*
X011680Y016523D02*
X011680Y017077D01*
X010680Y017077D02*
X010680Y016523D01*
X009680Y016523D02*
X009680Y017077D01*
X008680Y017077D02*
X008680Y016523D01*
X007680Y016523D02*
X007680Y017077D01*
X006680Y017077D02*
X006680Y016523D01*
X005680Y016523D02*
X005680Y017077D01*
X004680Y017077D02*
X004680Y016523D01*
X004680Y022523D02*
X004680Y023077D01*
X005680Y023077D02*
X005680Y022523D01*
X006680Y022523D02*
X006680Y023077D01*
X007680Y023077D02*
X007680Y022523D01*
X008680Y022523D02*
X008680Y023077D01*
X009680Y023077D02*
X009680Y022523D01*
X010680Y022523D02*
X010680Y023077D01*
X011680Y023077D02*
X011680Y022523D01*
X012680Y022523D02*
X012680Y023077D01*
X013680Y023077D02*
X013680Y022523D01*
X014680Y022523D02*
X014680Y023077D01*
X015680Y023077D02*
X015680Y022523D01*
X016680Y022523D02*
X016680Y023077D01*
X017680Y023077D02*
X017680Y022523D01*
X018680Y022523D02*
X018680Y023077D01*
D18*
X023680Y023057D02*
X023680Y022543D01*
X024680Y022543D02*
X024680Y023057D01*
X025680Y023057D02*
X025680Y022543D01*
X026680Y022543D02*
X026680Y023057D01*
X027680Y023057D02*
X027680Y022543D01*
X027680Y017057D02*
X027680Y016543D01*
X026680Y016543D02*
X026680Y017057D01*
X025680Y017057D02*
X025680Y016543D01*
X024680Y016543D02*
X024680Y017057D01*
X023680Y017057D02*
X023680Y016543D01*
X034079Y029831D02*
X034594Y029831D01*
X034594Y030800D02*
X034079Y030800D01*
X035704Y030800D02*
X036219Y030800D01*
X036219Y029831D02*
X035704Y029831D01*
X020281Y002769D02*
X019766Y002769D01*
X019766Y001800D02*
X020281Y001800D01*
X018656Y001800D02*
X018141Y001800D01*
X018141Y002769D02*
X018656Y002769D01*
X003781Y029800D02*
X003266Y029800D01*
X003266Y030769D02*
X003781Y030769D01*
X002156Y030769D02*
X001641Y030769D01*
X001641Y029800D02*
X002156Y029800D01*
D19*
X010174Y009379D03*
X015686Y009379D03*
X022674Y009379D03*
X028186Y009379D03*
X028186Y001721D03*
X022674Y001721D03*
X015686Y001721D03*
X010174Y001721D03*
D20*
X009265Y001727D02*
X008943Y001727D01*
X008943Y001885D02*
X009265Y001885D01*
X009265Y001902D02*
X009265Y001541D01*
X009404Y001207D01*
X009659Y000951D01*
X009993Y000813D01*
X010355Y000813D01*
X010689Y000951D01*
X010944Y001207D01*
X011083Y001541D01*
X011083Y001902D01*
X010944Y002236D01*
X010689Y002492D01*
X010355Y002630D01*
X009993Y002630D01*
X009659Y002492D01*
X009404Y002236D01*
X009265Y001902D01*
X009324Y002044D02*
X008943Y002044D01*
X008943Y002202D02*
X009390Y002202D01*
X009528Y002361D02*
X008943Y002361D01*
X008943Y002519D02*
X009726Y002519D01*
X008943Y002678D02*
X012030Y002678D01*
X012030Y002836D02*
X008943Y002836D01*
X008943Y002995D02*
X012030Y002995D01*
X012030Y003153D02*
X008943Y003153D01*
X008943Y003312D02*
X012030Y003312D01*
X012030Y003470D02*
X008943Y003470D01*
X008943Y003629D02*
X012030Y003629D01*
X012030Y003787D02*
X008943Y003787D01*
X008943Y003946D02*
X012030Y003946D01*
X012030Y004104D02*
X008943Y004104D01*
X008943Y004263D02*
X012030Y004263D01*
X012030Y004421D02*
X008943Y004421D01*
X008943Y004580D02*
X012030Y004580D01*
X012030Y004738D02*
X008943Y004738D01*
X008943Y004897D02*
X012030Y004897D01*
X012030Y005055D02*
X008943Y005055D01*
X008943Y005214D02*
X012030Y005214D01*
X012030Y005372D02*
X008943Y005372D01*
X008943Y005531D02*
X012030Y005531D01*
X012030Y005689D02*
X008943Y005689D01*
X008943Y005848D02*
X012030Y005848D01*
X012030Y006006D02*
X008943Y006006D01*
X008943Y006165D02*
X012030Y006165D01*
X012030Y006323D02*
X008943Y006323D01*
X008943Y006482D02*
X012030Y006482D01*
X012030Y006640D02*
X008943Y006640D01*
X008943Y006799D02*
X012030Y006799D01*
X012030Y006957D02*
X008943Y006957D01*
X008943Y007116D02*
X012030Y007116D01*
X012030Y007274D02*
X008943Y007274D01*
X008943Y007433D02*
X012030Y007433D01*
X012030Y007548D02*
X012030Y002157D01*
X012006Y002133D01*
X011930Y001949D01*
X011930Y001151D01*
X012006Y000967D01*
X012147Y000826D01*
X012222Y000795D01*
X008943Y000795D01*
X008943Y012209D01*
X008867Y012391D01*
X008728Y012531D01*
X008546Y012606D01*
X000675Y012606D01*
X000675Y031301D01*
X037205Y031301D01*
X037205Y012606D01*
X029727Y012606D01*
X029545Y012531D01*
X029406Y012391D01*
X029331Y012209D01*
X029331Y000795D01*
X026083Y000795D01*
X026114Y000805D01*
X026182Y000839D01*
X026243Y000884D01*
X026296Y000937D01*
X026341Y000998D01*
X026375Y001066D01*
X026398Y001138D01*
X026410Y001212D01*
X026410Y001530D01*
X025950Y001530D01*
X025950Y001570D01*
X026410Y001570D01*
X026410Y001888D01*
X026398Y001962D01*
X026375Y002034D01*
X026341Y002102D01*
X026296Y002163D01*
X026243Y002216D01*
X026182Y002261D01*
X026114Y002295D01*
X026042Y002318D01*
X025968Y002330D01*
X025950Y002330D01*
X025950Y001570D01*
X025910Y001570D01*
X025910Y002330D01*
X025892Y002330D01*
X025818Y002318D01*
X025746Y002295D01*
X025678Y002261D01*
X025617Y002216D01*
X025564Y002163D01*
X025519Y002102D01*
X025485Y002034D01*
X025462Y001962D01*
X025450Y001888D01*
X025450Y001570D01*
X025910Y001570D01*
X025910Y001530D01*
X025450Y001530D01*
X025450Y001212D01*
X025462Y001138D01*
X025485Y001066D01*
X025519Y000998D01*
X025564Y000937D01*
X025617Y000884D01*
X025678Y000839D01*
X025746Y000805D01*
X025777Y000795D01*
X025138Y000795D01*
X025213Y000826D01*
X025354Y000967D01*
X025430Y001151D01*
X025430Y001949D01*
X025354Y002133D01*
X025335Y002152D01*
X025130Y004817D01*
X025130Y004890D01*
X025123Y004906D01*
X025122Y004924D01*
X025089Y004988D01*
X025061Y005055D01*
X029331Y005055D01*
X029331Y004897D02*
X025127Y004897D01*
X025136Y004738D02*
X029331Y004738D01*
X029331Y004580D02*
X025148Y004580D01*
X025160Y004421D02*
X029331Y004421D01*
X029331Y004263D02*
X025173Y004263D01*
X025185Y004104D02*
X029331Y004104D01*
X029331Y003946D02*
X025197Y003946D01*
X025209Y003787D02*
X029331Y003787D01*
X029331Y003629D02*
X025221Y003629D01*
X025234Y003470D02*
X029331Y003470D01*
X029331Y003312D02*
X025246Y003312D01*
X025258Y003153D02*
X029331Y003153D01*
X029331Y002995D02*
X025270Y002995D01*
X025282Y002836D02*
X029331Y002836D01*
X029331Y002678D02*
X025295Y002678D01*
X025307Y002519D02*
X027737Y002519D01*
X027671Y002492D02*
X027416Y002236D01*
X027277Y001902D01*
X027277Y001541D01*
X027416Y001207D01*
X027671Y000951D01*
X028005Y000813D01*
X028367Y000813D01*
X028701Y000951D01*
X028956Y001207D01*
X029095Y001541D01*
X029095Y001902D01*
X028956Y002236D01*
X028701Y002492D01*
X028367Y002630D01*
X028005Y002630D01*
X027671Y002492D01*
X027540Y002361D02*
X025319Y002361D01*
X025331Y002202D02*
X025603Y002202D01*
X025490Y002044D02*
X025391Y002044D01*
X025430Y001885D02*
X025450Y001885D01*
X025450Y001727D02*
X025430Y001727D01*
X025430Y001568D02*
X025910Y001568D01*
X025950Y001568D02*
X027277Y001568D01*
X027277Y001727D02*
X026410Y001727D01*
X026410Y001885D02*
X027277Y001885D01*
X027336Y002044D02*
X026370Y002044D01*
X026257Y002202D02*
X027402Y002202D01*
X027332Y001410D02*
X026410Y001410D01*
X026410Y001251D02*
X027397Y001251D01*
X027530Y001093D02*
X026384Y001093D01*
X026293Y000934D02*
X027712Y000934D01*
X028660Y000934D02*
X029331Y000934D01*
X029331Y001093D02*
X028842Y001093D01*
X028975Y001251D02*
X029331Y001251D01*
X029331Y001410D02*
X029040Y001410D01*
X029095Y001568D02*
X029331Y001568D01*
X029331Y001727D02*
X029095Y001727D01*
X029095Y001885D02*
X029331Y001885D01*
X029331Y002044D02*
X029036Y002044D01*
X028970Y002202D02*
X029331Y002202D01*
X029331Y002361D02*
X028832Y002361D01*
X028634Y002519D02*
X029331Y002519D01*
X029331Y005214D02*
X024903Y005214D01*
X024986Y005130D02*
X021935Y008181D01*
X021770Y008250D01*
X016425Y008250D01*
X016115Y008122D01*
X016060Y008066D01*
X016060Y008066D01*
X013049Y005055D01*
X012830Y005055D01*
X012830Y004897D02*
X012983Y004897D01*
X012980Y004890D02*
X012980Y002070D01*
X012930Y001949D01*
X012854Y002133D01*
X012830Y002157D01*
X012830Y007286D01*
X014145Y007850D01*
X014270Y007850D01*
X014435Y007919D01*
X014561Y008045D01*
X014630Y008210D01*
X014630Y010350D01*
X017270Y010350D01*
X017435Y010419D01*
X017561Y010545D01*
X017630Y010710D01*
X017630Y014184D01*
X018417Y014971D01*
X018430Y014978D01*
X018473Y015027D01*
X018519Y015073D01*
X018525Y015087D01*
X018534Y015098D01*
X018555Y015160D01*
X018580Y015220D01*
X018580Y015235D01*
X018862Y016082D01*
X018950Y016118D01*
X019085Y016253D01*
X019157Y016428D01*
X019157Y017172D01*
X019085Y017347D01*
X019080Y017352D01*
X019080Y017900D01*
X021280Y017900D01*
X021280Y017128D01*
X021243Y017092D01*
X021165Y016902D01*
X021165Y016698D01*
X021243Y016508D01*
X021388Y016363D01*
X021553Y016295D01*
X021475Y016295D01*
X021185Y016005D01*
X021185Y015800D01*
X021680Y015800D01*
X022175Y015800D01*
X022175Y016005D01*
X021885Y016295D01*
X021807Y016295D01*
X021972Y016363D01*
X022117Y016508D01*
X022195Y016698D01*
X022195Y016902D01*
X022117Y017092D01*
X022080Y017128D01*
X022080Y017900D01*
X024616Y017900D01*
X024631Y017895D01*
X024695Y017900D01*
X024760Y017900D01*
X024774Y017906D01*
X024790Y017907D01*
X024847Y017936D01*
X024907Y017961D01*
X024918Y017972D01*
X024932Y017979D01*
X024974Y018028D01*
X025019Y018073D01*
X025025Y018088D01*
X027974Y021528D01*
X028019Y021573D01*
X028025Y021588D01*
X028035Y021600D01*
X028055Y021661D01*
X028080Y021720D01*
X028080Y021736D01*
X028085Y021751D01*
X028080Y021815D01*
X028080Y022313D01*
X028137Y022452D01*
X028137Y022692D01*
X028346Y022900D01*
X028929Y022900D01*
X028989Y022840D01*
X029371Y022840D01*
X029640Y023109D01*
X029640Y023491D01*
X029371Y023760D01*
X028989Y023760D01*
X028929Y023700D01*
X028100Y023700D01*
X027953Y023639D01*
X027841Y023527D01*
X027812Y023498D01*
X027771Y023515D01*
X027589Y023515D01*
X027421Y023445D01*
X027292Y023317D01*
X027223Y023148D01*
X027223Y022452D01*
X027280Y022313D01*
X027280Y021948D01*
X024496Y018700D01*
X018600Y018700D01*
X018453Y018639D01*
X018341Y018527D01*
X018280Y018380D01*
X018280Y017352D01*
X018275Y017347D01*
X018203Y017172D01*
X018203Y016633D01*
X017830Y015516D01*
X009130Y015516D01*
X009130Y015486D02*
X009130Y016362D01*
X009157Y016428D01*
X009157Y017172D01*
X009085Y017347D01*
X008950Y017482D01*
X008775Y017554D01*
X008585Y017554D01*
X008410Y017482D01*
X008275Y017347D01*
X008203Y017172D01*
X008203Y016428D01*
X008230Y016362D01*
X008230Y015210D01*
X008276Y015100D01*
X007839Y015537D01*
X007736Y015580D01*
X004296Y015580D01*
X003960Y015916D01*
X003960Y021184D01*
X004268Y021492D01*
X004342Y021517D01*
X004438Y021600D01*
X004661Y022046D01*
X004775Y022046D01*
X004950Y022118D01*
X005085Y022253D01*
X005157Y022428D01*
X005157Y023172D01*
X005085Y023347D01*
X004950Y023482D01*
X004775Y023554D01*
X004585Y023554D01*
X004410Y023482D01*
X004275Y023347D01*
X004203Y023172D01*
X004203Y022561D01*
X003865Y021886D01*
X003865Y021881D01*
X003521Y021537D01*
X003443Y021459D01*
X003400Y021356D01*
X003400Y015744D01*
X003443Y015641D01*
X003943Y015141D01*
X004021Y015063D01*
X004124Y015020D01*
X007564Y015020D01*
X007900Y014684D01*
X007900Y014293D01*
X007897Y014292D01*
X007756Y014151D01*
X007680Y013967D01*
X007680Y013168D01*
X007756Y012984D01*
X007897Y012844D01*
X008081Y012768D01*
X008279Y012768D01*
X008463Y012844D01*
X008604Y012984D01*
X008680Y013168D01*
X008756Y012984D01*
X008897Y012844D01*
X009081Y012768D01*
X009279Y012768D01*
X009463Y012844D01*
X009604Y012984D01*
X009680Y013168D01*
X009756Y012984D01*
X009897Y012844D01*
X010081Y012768D01*
X010279Y012768D01*
X010463Y012844D01*
X010604Y012984D01*
X010680Y013168D01*
X010756Y012984D01*
X010897Y012844D01*
X011081Y012768D01*
X011279Y012768D01*
X011463Y012844D01*
X011604Y012984D01*
X011680Y013168D01*
X011756Y012984D01*
X011897Y012844D01*
X012081Y012768D01*
X012279Y012768D01*
X012463Y012844D01*
X012604Y012984D01*
X012680Y013168D01*
X012756Y012984D01*
X012897Y012844D01*
X013081Y012768D01*
X013279Y012768D01*
X013463Y012844D01*
X013604Y012984D01*
X013680Y013168D01*
X013756Y012984D01*
X013897Y012844D01*
X014081Y012768D01*
X014279Y012768D01*
X014463Y012844D01*
X014604Y012984D01*
X014680Y013168D01*
X014756Y012984D01*
X014897Y012844D01*
X015081Y012768D01*
X015279Y012768D01*
X015463Y012844D01*
X015604Y012984D01*
X015680Y013168D01*
X015680Y013967D01*
X015604Y014151D01*
X015463Y014292D01*
X015322Y014350D01*
X015494Y014350D01*
X015730Y014114D01*
X015730Y012750D01*
X011090Y012750D01*
X010925Y012681D01*
X010425Y012181D01*
X010299Y012055D01*
X010230Y011890D01*
X010230Y011210D01*
X010299Y011045D01*
X010425Y010919D01*
X010590Y010850D01*
X010770Y010850D01*
X010935Y010919D01*
X011061Y011045D01*
X011130Y011210D01*
X011130Y011614D01*
X011366Y011850D01*
X016270Y011850D01*
X016435Y011919D01*
X016561Y012045D01*
X016630Y012210D01*
X016630Y014390D01*
X016561Y014555D01*
X016435Y014681D01*
X015935Y015181D01*
X015770Y015250D01*
X009366Y015250D01*
X009130Y015486D01*
X009259Y015358D02*
X017672Y015358D01*
X017830Y015516D02*
X017046Y014731D01*
X016925Y014681D01*
X016799Y014555D01*
X016730Y014390D01*
X016730Y011250D01*
X014090Y011250D01*
X013925Y011181D01*
X013799Y011055D01*
X013730Y010890D01*
X013730Y008542D01*
X012275Y007919D01*
X012203Y007889D01*
X012202Y007887D01*
X012199Y007886D01*
X012145Y007831D01*
X012091Y007777D01*
X012090Y007774D01*
X012088Y007772D01*
X012060Y007701D01*
X012030Y007630D01*
X012030Y007627D01*
X012029Y007625D01*
X012030Y007548D01*
X012029Y007591D02*
X008943Y007591D01*
X008943Y007750D02*
X012079Y007750D01*
X012249Y007908D02*
X008943Y007908D01*
X008943Y008067D02*
X012620Y008067D01*
X012990Y008225D02*
X008943Y008225D01*
X008943Y008384D02*
X013359Y008384D01*
X013729Y008542D02*
X010529Y008542D01*
X010689Y008608D02*
X010355Y008470D01*
X009993Y008470D01*
X009659Y008608D01*
X009404Y008864D01*
X009265Y009198D01*
X009265Y009559D01*
X009404Y009893D01*
X009659Y010149D01*
X009993Y010287D01*
X010355Y010287D01*
X010689Y010149D01*
X010944Y009893D01*
X011083Y009559D01*
X011083Y009198D01*
X010944Y008864D01*
X010689Y008608D01*
X010781Y008701D02*
X013730Y008701D01*
X013730Y008859D02*
X010939Y008859D01*
X011008Y009018D02*
X013730Y009018D01*
X013730Y009176D02*
X011074Y009176D01*
X011083Y009335D02*
X013730Y009335D01*
X013730Y009493D02*
X011083Y009493D01*
X011045Y009652D02*
X013730Y009652D01*
X013730Y009810D02*
X010979Y009810D01*
X010869Y009969D02*
X013730Y009969D01*
X013730Y010127D02*
X013514Y010127D01*
X013463Y010076D02*
X013604Y010217D01*
X013680Y010401D01*
X013680Y011199D01*
X013604Y011383D01*
X013463Y011524D01*
X013279Y011600D01*
X013081Y011600D01*
X012897Y011524D01*
X012756Y011383D01*
X012680Y011199D01*
X012680Y010401D01*
X012756Y010217D01*
X012897Y010076D01*
X013081Y010000D01*
X013279Y010000D01*
X013463Y010076D01*
X013632Y010286D02*
X013730Y010286D01*
X013730Y010444D02*
X013680Y010444D01*
X013680Y010603D02*
X013730Y010603D01*
X013730Y010761D02*
X013680Y010761D01*
X013680Y010920D02*
X013742Y010920D01*
X013680Y011078D02*
X013822Y011078D01*
X013665Y011237D02*
X014058Y011237D01*
X013592Y011395D02*
X016730Y011395D01*
X016730Y011554D02*
X013392Y011554D01*
X012968Y011554D02*
X012392Y011554D01*
X012463Y011524D02*
X012279Y011600D01*
X012081Y011600D01*
X011897Y011524D01*
X011756Y011383D01*
X011680Y011199D01*
X011680Y010401D01*
X011756Y010217D01*
X011897Y010076D01*
X012081Y010000D01*
X012279Y010000D01*
X012463Y010076D01*
X012604Y010217D01*
X012680Y010401D01*
X012680Y011199D01*
X012604Y011383D01*
X012463Y011524D01*
X012592Y011395D02*
X012768Y011395D01*
X012695Y011237D02*
X012665Y011237D01*
X012680Y011078D02*
X012680Y011078D01*
X012680Y010920D02*
X012680Y010920D01*
X012680Y010761D02*
X012680Y010761D01*
X012680Y010603D02*
X012680Y010603D01*
X012680Y010444D02*
X012680Y010444D01*
X012632Y010286D02*
X012728Y010286D01*
X012846Y010127D02*
X012514Y010127D01*
X011846Y010127D02*
X010711Y010127D01*
X010359Y010286D02*
X011728Y010286D01*
X011680Y010444D02*
X008943Y010444D01*
X008943Y010286D02*
X009989Y010286D01*
X009637Y010127D02*
X008943Y010127D01*
X008943Y009969D02*
X009479Y009969D01*
X009369Y009810D02*
X008943Y009810D01*
X008943Y009652D02*
X009304Y009652D01*
X009265Y009493D02*
X008943Y009493D01*
X008943Y009335D02*
X009265Y009335D01*
X009275Y009176D02*
X008943Y009176D01*
X008943Y009018D02*
X009340Y009018D01*
X009409Y008859D02*
X008943Y008859D01*
X008943Y008701D02*
X009567Y008701D01*
X009820Y008542D02*
X008943Y008542D01*
X008943Y010603D02*
X011680Y010603D01*
X011680Y010761D02*
X008943Y010761D01*
X008943Y010920D02*
X010424Y010920D01*
X010285Y011078D02*
X008943Y011078D01*
X008943Y011237D02*
X010230Y011237D01*
X010230Y011395D02*
X008943Y011395D01*
X008943Y011554D02*
X010230Y011554D01*
X010230Y011712D02*
X008943Y011712D01*
X008943Y011871D02*
X010230Y011871D01*
X010288Y012029D02*
X008943Y012029D01*
X008943Y012188D02*
X010431Y012188D01*
X010590Y012346D02*
X008886Y012346D01*
X008754Y012505D02*
X010748Y012505D01*
X010907Y012663D02*
X000675Y012663D01*
X000675Y012822D02*
X007000Y012822D01*
X006996Y012823D02*
X007068Y012800D01*
X007142Y012788D01*
X007160Y012788D01*
X007160Y013548D01*
X006700Y013548D01*
X006700Y013230D01*
X006712Y013155D01*
X006735Y013083D01*
X006769Y013016D01*
X006814Y012955D01*
X006867Y012902D01*
X006928Y012857D01*
X006996Y012823D01*
X007160Y012822D02*
X007200Y012822D01*
X007200Y012788D02*
X007218Y012788D01*
X007292Y012800D01*
X007364Y012823D01*
X007432Y012857D01*
X007493Y012902D01*
X007546Y012955D01*
X007591Y013016D01*
X007625Y013083D01*
X007648Y013155D01*
X007660Y013230D01*
X007660Y013548D01*
X007200Y013548D01*
X007200Y013588D01*
X007160Y013588D01*
X007160Y014348D01*
X007142Y014348D01*
X007068Y014336D01*
X006996Y014313D01*
X006928Y014278D01*
X006867Y014234D01*
X006814Y014180D01*
X006769Y014119D01*
X006735Y014052D01*
X006712Y013980D01*
X006700Y013905D01*
X006700Y013588D01*
X007160Y013588D01*
X007160Y013548D01*
X007200Y013548D01*
X007200Y012788D01*
X007360Y012822D02*
X007951Y012822D01*
X007761Y012980D02*
X007564Y012980D01*
X007643Y013139D02*
X007692Y013139D01*
X007680Y013297D02*
X007660Y013297D01*
X007660Y013456D02*
X007680Y013456D01*
X007660Y013588D02*
X007660Y013905D01*
X007648Y013980D01*
X007625Y014052D01*
X007591Y014119D01*
X007546Y014180D01*
X007493Y014234D01*
X007432Y014278D01*
X007364Y014313D01*
X007292Y014336D01*
X007218Y014348D01*
X007200Y014348D01*
X007200Y013588D01*
X007660Y013588D01*
X007660Y013614D02*
X007680Y013614D01*
X007680Y013773D02*
X007660Y013773D01*
X007656Y013931D02*
X007680Y013931D01*
X007731Y014090D02*
X007606Y014090D01*
X007473Y014248D02*
X007853Y014248D01*
X007900Y014407D02*
X000675Y014407D01*
X000675Y014565D02*
X007900Y014565D01*
X007860Y014724D02*
X000675Y014724D01*
X000675Y014882D02*
X007702Y014882D01*
X007680Y015300D02*
X008180Y014800D01*
X008180Y013568D01*
X008680Y013614D02*
X008680Y013614D01*
X008680Y013456D02*
X008680Y013456D01*
X008680Y013297D02*
X008680Y013297D01*
X008680Y013168D02*
X008680Y013967D01*
X008756Y014151D01*
X008897Y014292D01*
X009064Y014361D01*
X008925Y014419D01*
X008799Y014545D01*
X008440Y014903D01*
X008460Y014856D01*
X008460Y014293D01*
X008463Y014292D01*
X008604Y014151D01*
X008680Y013967D01*
X008680Y013168D01*
X008668Y013139D02*
X008692Y013139D01*
X008761Y012980D02*
X008599Y012980D01*
X008409Y012822D02*
X008951Y012822D01*
X009409Y012822D02*
X009951Y012822D01*
X009761Y012980D02*
X009599Y012980D01*
X009668Y013139D02*
X009692Y013139D01*
X009680Y013168D02*
X009680Y013967D01*
X009756Y014151D01*
X009897Y014292D01*
X010038Y014350D01*
X009322Y014350D01*
X009463Y014292D01*
X009604Y014151D01*
X009680Y013967D01*
X009680Y013168D01*
X009680Y013297D02*
X009680Y013297D01*
X009680Y013456D02*
X009680Y013456D01*
X009680Y013614D02*
X009680Y013614D01*
X009680Y013773D02*
X009680Y013773D01*
X009680Y013931D02*
X009680Y013931D01*
X009629Y014090D02*
X009731Y014090D01*
X009853Y014248D02*
X009507Y014248D01*
X008954Y014407D02*
X008460Y014407D01*
X008460Y014565D02*
X008779Y014565D01*
X008620Y014724D02*
X008460Y014724D01*
X008449Y014882D02*
X008462Y014882D01*
X008235Y015199D02*
X008177Y015199D01*
X008230Y015358D02*
X008018Y015358D01*
X007860Y015516D02*
X008230Y015516D01*
X008230Y015675D02*
X004201Y015675D01*
X004043Y015833D02*
X008230Y015833D01*
X008230Y015992D02*
X003960Y015992D01*
X003960Y016150D02*
X004378Y016150D01*
X004410Y016118D02*
X004585Y016046D01*
X004775Y016046D01*
X004950Y016118D01*
X005085Y016253D01*
X005157Y016428D01*
X005157Y017172D01*
X005085Y017347D01*
X004950Y017482D01*
X004775Y017554D01*
X004585Y017554D01*
X004410Y017482D01*
X004275Y017347D01*
X004203Y017172D01*
X004203Y016428D01*
X004275Y016253D01*
X004410Y016118D01*
X004252Y016309D02*
X003960Y016309D01*
X003960Y016467D02*
X004203Y016467D01*
X004203Y016626D02*
X003960Y016626D01*
X003960Y016784D02*
X004203Y016784D01*
X004203Y016943D02*
X003960Y016943D01*
X003960Y017101D02*
X004203Y017101D01*
X004239Y017260D02*
X003960Y017260D01*
X003960Y017418D02*
X004346Y017418D01*
X003960Y017577D02*
X009230Y017577D01*
X009230Y017735D02*
X003960Y017735D01*
X003960Y017894D02*
X009232Y017894D01*
X009230Y017890D02*
X009230Y017238D01*
X009203Y017172D01*
X009203Y016428D01*
X009275Y016253D01*
X009410Y016118D01*
X009585Y016046D01*
X009775Y016046D01*
X009950Y016118D01*
X010085Y016253D01*
X010157Y016428D01*
X010157Y017172D01*
X010130Y017238D01*
X010130Y017614D01*
X013366Y020850D01*
X021270Y020850D01*
X021435Y020919D01*
X021561Y021045D01*
X021630Y021210D01*
X021630Y024114D01*
X024866Y027350D01*
X030494Y027350D01*
X032799Y025045D01*
X032925Y024919D01*
X033090Y024850D01*
X035270Y024850D01*
X035435Y024919D01*
X035561Y025045D01*
X035630Y025210D01*
X035630Y027599D01*
X035640Y027609D01*
X035640Y027991D01*
X035371Y028260D01*
X034989Y028260D01*
X034720Y027991D01*
X034720Y027609D01*
X034730Y027599D01*
X034730Y025750D01*
X033366Y025750D01*
X030935Y028181D01*
X030770Y028250D01*
X024590Y028250D01*
X024425Y028181D01*
X024299Y028055D01*
X020799Y024555D01*
X020730Y024390D01*
X020730Y021750D01*
X013090Y021750D01*
X012925Y021681D01*
X012799Y021555D01*
X009299Y018055D01*
X009230Y017890D01*
X009297Y018052D02*
X003960Y018052D01*
X003960Y018211D02*
X009454Y018211D01*
X009613Y018369D02*
X003960Y018369D01*
X003960Y018528D02*
X009771Y018528D01*
X009930Y018686D02*
X003960Y018686D01*
X003960Y018845D02*
X010088Y018845D01*
X010247Y019003D02*
X003960Y019003D01*
X003960Y019162D02*
X010405Y019162D01*
X010564Y019320D02*
X003960Y019320D01*
X003960Y019479D02*
X010722Y019479D01*
X010881Y019637D02*
X003960Y019637D01*
X003960Y019796D02*
X011039Y019796D01*
X011198Y019954D02*
X003960Y019954D01*
X003960Y020113D02*
X011356Y020113D01*
X011515Y020271D02*
X003960Y020271D01*
X003960Y020430D02*
X011673Y020430D01*
X011832Y020588D02*
X003960Y020588D01*
X003960Y020747D02*
X011990Y020747D01*
X012149Y020905D02*
X003960Y020905D01*
X003960Y021064D02*
X012307Y021064D01*
X012466Y021222D02*
X003998Y021222D01*
X004157Y021381D02*
X012624Y021381D01*
X012783Y021539D02*
X004368Y021539D01*
X004487Y021698D02*
X012964Y021698D01*
X012775Y022046D02*
X012950Y022118D01*
X013085Y022253D01*
X013157Y022428D01*
X013157Y023172D01*
X013085Y023347D01*
X012950Y023482D01*
X012775Y023554D01*
X012585Y023554D01*
X012410Y023482D01*
X012275Y023347D01*
X012203Y023172D01*
X012203Y022428D01*
X012275Y022253D01*
X012410Y022118D01*
X012585Y022046D01*
X012775Y022046D01*
X013005Y022173D02*
X013355Y022173D01*
X013410Y022118D02*
X013585Y022046D01*
X013775Y022046D01*
X013950Y022118D01*
X014085Y022253D01*
X014157Y022428D01*
X014157Y023172D01*
X014085Y023347D01*
X013950Y023482D01*
X013775Y023554D01*
X013585Y023554D01*
X013410Y023482D01*
X013275Y023347D01*
X013203Y023172D01*
X013203Y022428D01*
X013275Y022253D01*
X013410Y022118D01*
X013243Y022332D02*
X013117Y022332D01*
X013157Y022490D02*
X013203Y022490D01*
X013203Y022649D02*
X013157Y022649D01*
X013157Y022807D02*
X013203Y022807D01*
X013203Y022966D02*
X013157Y022966D01*
X013157Y023124D02*
X013203Y023124D01*
X013249Y023283D02*
X013111Y023283D01*
X012991Y023441D02*
X013369Y023441D01*
X013991Y023441D02*
X014369Y023441D01*
X014410Y023482D02*
X014275Y023347D01*
X014203Y023172D01*
X014203Y022428D01*
X014275Y022253D01*
X014410Y022118D01*
X014585Y022046D01*
X014775Y022046D01*
X014950Y022118D01*
X015085Y022253D01*
X015157Y022428D01*
X015157Y023172D01*
X015085Y023347D01*
X014950Y023482D01*
X014775Y023554D01*
X014585Y023554D01*
X014410Y023482D01*
X014249Y023283D02*
X014111Y023283D01*
X014157Y023124D02*
X014203Y023124D01*
X014203Y022966D02*
X014157Y022966D01*
X014157Y022807D02*
X014203Y022807D01*
X014203Y022649D02*
X014157Y022649D01*
X014157Y022490D02*
X014203Y022490D01*
X014243Y022332D02*
X014117Y022332D01*
X014005Y022173D02*
X014355Y022173D01*
X015005Y022173D02*
X015384Y022173D01*
X015382Y022174D02*
X015440Y022132D01*
X015505Y022099D01*
X015573Y022077D01*
X015644Y022066D01*
X015671Y022066D01*
X015671Y022791D01*
X015223Y022791D01*
X015223Y022487D01*
X015234Y022416D01*
X015256Y022347D01*
X015289Y022283D01*
X015331Y022225D01*
X015382Y022174D01*
X015264Y022332D02*
X015117Y022332D01*
X015157Y022490D02*
X015223Y022490D01*
X015223Y022649D02*
X015157Y022649D01*
X015157Y022807D02*
X015671Y022807D01*
X015671Y022809D02*
X015671Y022791D01*
X015689Y022791D01*
X015689Y022809D01*
X015671Y022809D01*
X015671Y023534D01*
X015644Y023534D01*
X015573Y023523D01*
X015505Y023501D01*
X015440Y023468D01*
X015382Y023426D01*
X015331Y023375D01*
X015289Y023317D01*
X015256Y023253D01*
X015234Y023184D01*
X015223Y023113D01*
X015223Y022809D01*
X015671Y022809D01*
X015689Y022809D02*
X015689Y023534D01*
X015716Y023534D01*
X015787Y023523D01*
X015855Y023501D01*
X015920Y023468D01*
X015978Y023426D01*
X016029Y023375D01*
X016071Y023317D01*
X016104Y023253D01*
X016126Y023184D01*
X016137Y023113D01*
X016137Y022809D01*
X015689Y022809D01*
X015689Y022807D02*
X016203Y022807D01*
X016137Y022791D02*
X015689Y022791D01*
X015689Y022066D01*
X015716Y022066D01*
X015787Y022077D01*
X015855Y022099D01*
X015920Y022132D01*
X015978Y022174D01*
X016029Y022225D01*
X016071Y022283D01*
X016104Y022347D01*
X016126Y022416D01*
X016137Y022487D01*
X016137Y022791D01*
X016137Y022649D02*
X016203Y022649D01*
X016203Y022490D02*
X016137Y022490D01*
X016203Y022428D02*
X016275Y022253D01*
X016410Y022118D01*
X016585Y022046D01*
X016775Y022046D01*
X016950Y022118D01*
X017085Y022253D01*
X017157Y022428D01*
X017157Y023172D01*
X017085Y023347D01*
X016950Y023482D01*
X016775Y023554D01*
X016585Y023554D01*
X016410Y023482D01*
X016275Y023347D01*
X016203Y023172D01*
X016203Y022428D01*
X016243Y022332D02*
X016096Y022332D01*
X015976Y022173D02*
X016355Y022173D01*
X017005Y022173D02*
X017355Y022173D01*
X017410Y022118D02*
X017585Y022046D01*
X017775Y022046D01*
X017950Y022118D01*
X018085Y022253D01*
X018157Y022428D01*
X018157Y023172D01*
X018085Y023347D01*
X017950Y023482D01*
X017775Y023554D01*
X017585Y023554D01*
X017410Y023482D01*
X017275Y023347D01*
X017203Y023172D01*
X017203Y022428D01*
X017275Y022253D01*
X017410Y022118D01*
X017243Y022332D02*
X017117Y022332D01*
X017157Y022490D02*
X017203Y022490D01*
X017203Y022649D02*
X017157Y022649D01*
X017157Y022807D02*
X017203Y022807D01*
X017203Y022966D02*
X017157Y022966D01*
X017157Y023124D02*
X017203Y023124D01*
X017249Y023283D02*
X017111Y023283D01*
X016991Y023441D02*
X017369Y023441D01*
X017991Y023441D02*
X018369Y023441D01*
X018410Y023482D02*
X018275Y023347D01*
X018203Y023172D01*
X018203Y022428D01*
X018275Y022253D01*
X018410Y022118D01*
X018585Y022046D01*
X018775Y022046D01*
X018950Y022118D01*
X019085Y022253D01*
X019157Y022428D01*
X019157Y023172D01*
X019085Y023347D01*
X018950Y023482D01*
X018775Y023554D01*
X018585Y023554D01*
X018410Y023482D01*
X018249Y023283D02*
X018111Y023283D01*
X018157Y023124D02*
X018203Y023124D01*
X018203Y022966D02*
X018157Y022966D01*
X018157Y022807D02*
X018203Y022807D01*
X018203Y022649D02*
X018157Y022649D01*
X018157Y022490D02*
X018203Y022490D01*
X018243Y022332D02*
X018117Y022332D01*
X018005Y022173D02*
X018355Y022173D01*
X019005Y022173D02*
X020730Y022173D01*
X020730Y022015D02*
X004645Y022015D01*
X004566Y021856D02*
X020730Y021856D01*
X020730Y022332D02*
X019117Y022332D01*
X019157Y022490D02*
X020730Y022490D01*
X020730Y022649D02*
X019157Y022649D01*
X019157Y022807D02*
X020730Y022807D01*
X020730Y022966D02*
X019157Y022966D01*
X019157Y023124D02*
X020730Y023124D01*
X020730Y023283D02*
X019111Y023283D01*
X018991Y023441D02*
X020730Y023441D01*
X020730Y023600D02*
X000675Y023600D01*
X000675Y023758D02*
X020730Y023758D01*
X020730Y023917D02*
X019930Y023917D01*
X019935Y023919D02*
X020061Y024045D01*
X020130Y024210D01*
X020130Y026114D01*
X023366Y029350D01*
X030994Y029350D01*
X031799Y028545D01*
X031925Y028419D01*
X032090Y028350D01*
X035994Y028350D01*
X036230Y028114D01*
X036230Y024250D01*
X035381Y024250D01*
X035371Y024260D01*
X034989Y024260D01*
X034979Y024250D01*
X033881Y024250D01*
X033871Y024260D01*
X033489Y024260D01*
X033479Y024250D01*
X032366Y024250D01*
X029561Y027055D01*
X029435Y027181D01*
X029270Y027250D01*
X025590Y027250D01*
X025425Y027181D01*
X022425Y024181D01*
X022299Y024055D01*
X022230Y023890D01*
X022230Y020486D01*
X021994Y020250D01*
X017237Y020250D01*
X017205Y020258D01*
X017148Y020250D01*
X017090Y020250D01*
X017060Y020237D01*
X017028Y020233D01*
X016978Y020204D01*
X016925Y020181D01*
X016902Y020158D01*
X016874Y020142D01*
X016839Y020096D01*
X016799Y020055D01*
X016786Y020025D01*
X015339Y018096D01*
X015299Y018055D01*
X015286Y018025D01*
X015266Y017998D01*
X015252Y017943D01*
X015230Y017890D01*
X015230Y017857D01*
X015222Y017825D01*
X015230Y017768D01*
X015230Y017238D01*
X015203Y017172D01*
X015203Y016428D01*
X015275Y016253D01*
X015410Y016118D01*
X015585Y016046D01*
X015775Y016046D01*
X015950Y016118D01*
X016085Y016253D01*
X016157Y016428D01*
X016157Y017172D01*
X016130Y017238D01*
X016130Y017650D01*
X017405Y019350D01*
X022270Y019350D01*
X022435Y019419D01*
X022561Y019545D01*
X023061Y020045D01*
X023130Y020210D01*
X023130Y023614D01*
X025866Y026350D01*
X028994Y026350D01*
X031799Y023545D01*
X031925Y023419D01*
X032090Y023350D01*
X032780Y023350D01*
X031955Y022250D01*
X030090Y022250D01*
X029925Y022181D01*
X029799Y022055D01*
X029299Y021555D01*
X029230Y021390D01*
X029230Y015078D01*
X028574Y014750D01*
X022753Y014750D01*
X022737Y014755D01*
X022664Y014750D01*
X022590Y014750D01*
X022575Y014744D01*
X022559Y014743D01*
X022493Y014710D01*
X022425Y014681D01*
X022413Y014670D01*
X020574Y013750D01*
X019590Y013750D01*
X019425Y013681D01*
X019299Y013555D01*
X017799Y012055D01*
X017730Y011890D01*
X017730Y010501D01*
X017720Y010491D01*
X017720Y010109D01*
X017989Y009840D01*
X018371Y009840D01*
X018381Y009850D01*
X019479Y009850D01*
X019489Y009840D01*
X019871Y009840D01*
X020140Y010109D01*
X020140Y010491D01*
X019871Y010760D01*
X019489Y010760D01*
X019479Y010750D01*
X018630Y010750D01*
X018630Y011614D01*
X019866Y012850D01*
X020607Y012850D01*
X020623Y012845D01*
X020696Y012850D01*
X020770Y012850D01*
X020785Y012856D01*
X020801Y012857D01*
X020867Y012890D01*
X020935Y012919D01*
X020947Y012930D01*
X022786Y013850D01*
X028607Y013850D01*
X028623Y013845D01*
X028696Y013850D01*
X028770Y013850D01*
X028785Y013856D01*
X028801Y013857D01*
X028867Y013890D01*
X028935Y013919D01*
X028947Y013930D01*
X029867Y014390D01*
X029935Y014419D01*
X029947Y014430D01*
X029961Y014438D01*
X030009Y014493D01*
X030061Y014545D01*
X030068Y014560D01*
X030079Y014573D01*
X030102Y014643D01*
X030130Y014710D01*
X030130Y014727D01*
X030135Y014743D01*
X030130Y014816D01*
X030130Y021114D01*
X030366Y021350D01*
X032123Y021350D01*
X032155Y021342D01*
X032212Y021350D01*
X032270Y021350D01*
X032300Y021363D01*
X032332Y021367D01*
X032382Y021396D01*
X032435Y021419D01*
X032458Y021442D01*
X032486Y021458D01*
X032521Y021504D01*
X032561Y021545D01*
X032574Y021575D01*
X033905Y023350D01*
X034979Y023350D01*
X034989Y023340D01*
X035371Y023340D01*
X035381Y023350D01*
X036770Y023350D01*
X036935Y023419D01*
X037061Y023545D01*
X037130Y023710D01*
X037130Y028390D01*
X037061Y028555D01*
X036935Y028681D01*
X036435Y029181D01*
X036270Y029250D01*
X032366Y029250D01*
X031435Y030181D01*
X031270Y030250D01*
X023090Y030250D01*
X022925Y030181D01*
X022799Y030055D01*
X019299Y026555D01*
X019230Y026390D01*
X019230Y024750D01*
X003381Y024750D01*
X003371Y024760D01*
X002989Y024760D01*
X002979Y024750D01*
X001881Y024750D01*
X001871Y024760D01*
X001489Y024760D01*
X001220Y024491D01*
X001220Y024109D01*
X001489Y023840D01*
X001871Y023840D01*
X001881Y023850D01*
X002979Y023850D01*
X002989Y023840D01*
X003371Y023840D01*
X003381Y023850D01*
X019770Y023850D01*
X019935Y023919D01*
X020074Y024075D02*
X020730Y024075D01*
X020730Y024234D02*
X020130Y024234D01*
X020130Y024392D02*
X020731Y024392D01*
X020797Y024551D02*
X020130Y024551D01*
X020130Y024709D02*
X020953Y024709D01*
X021111Y024868D02*
X020130Y024868D01*
X020130Y025026D02*
X021270Y025026D01*
X021428Y025185D02*
X020130Y025185D01*
X020130Y025343D02*
X021587Y025343D01*
X021745Y025502D02*
X020130Y025502D01*
X020130Y025660D02*
X021904Y025660D01*
X022062Y025819D02*
X020130Y025819D01*
X020130Y025977D02*
X022221Y025977D01*
X022379Y026136D02*
X020152Y026136D01*
X020310Y026294D02*
X022538Y026294D01*
X022696Y026453D02*
X020469Y026453D01*
X020627Y026611D02*
X022855Y026611D01*
X023013Y026770D02*
X020786Y026770D01*
X020944Y026928D02*
X023172Y026928D01*
X023330Y027087D02*
X021103Y027087D01*
X021261Y027245D02*
X023489Y027245D01*
X023647Y027404D02*
X021420Y027404D01*
X021578Y027562D02*
X023806Y027562D01*
X023964Y027721D02*
X021737Y027721D01*
X021895Y027879D02*
X024123Y027879D01*
X024281Y028038D02*
X022054Y028038D01*
X022212Y028196D02*
X024460Y028196D01*
X024761Y027245D02*
X025579Y027245D01*
X025330Y027087D02*
X024603Y027087D01*
X024444Y026928D02*
X025172Y026928D01*
X025013Y026770D02*
X024286Y026770D01*
X024127Y026611D02*
X024855Y026611D01*
X024696Y026453D02*
X023969Y026453D01*
X023810Y026294D02*
X024538Y026294D01*
X024379Y026136D02*
X023652Y026136D01*
X023493Y025977D02*
X024221Y025977D01*
X024062Y025819D02*
X023335Y025819D01*
X023176Y025660D02*
X023904Y025660D01*
X023745Y025502D02*
X023018Y025502D01*
X022859Y025343D02*
X023587Y025343D01*
X023428Y025185D02*
X022701Y025185D01*
X022542Y025026D02*
X023270Y025026D01*
X023111Y024868D02*
X022384Y024868D01*
X022225Y024709D02*
X022953Y024709D01*
X022794Y024551D02*
X022067Y024551D01*
X021908Y024392D02*
X022636Y024392D01*
X022477Y024234D02*
X021750Y024234D01*
X021630Y024075D02*
X022319Y024075D01*
X022425Y024181D02*
X022425Y024181D01*
X022241Y023917D02*
X021630Y023917D01*
X021630Y023758D02*
X022230Y023758D01*
X022230Y023600D02*
X021630Y023600D01*
X021630Y023441D02*
X022230Y023441D01*
X022230Y023283D02*
X021630Y023283D01*
X021630Y023124D02*
X022230Y023124D01*
X022230Y022966D02*
X021630Y022966D01*
X021630Y022807D02*
X022230Y022807D01*
X022230Y022649D02*
X021630Y022649D01*
X021630Y022490D02*
X022230Y022490D01*
X022230Y022332D02*
X021630Y022332D01*
X021630Y022173D02*
X022230Y022173D01*
X022230Y022015D02*
X021630Y022015D01*
X021630Y021856D02*
X022230Y021856D01*
X022230Y021698D02*
X021630Y021698D01*
X021630Y021539D02*
X022230Y021539D01*
X022230Y021381D02*
X021630Y021381D01*
X021630Y021222D02*
X022230Y021222D01*
X022230Y021064D02*
X021569Y021064D01*
X021402Y020905D02*
X022230Y020905D01*
X022230Y020747D02*
X013263Y020747D01*
X013104Y020588D02*
X022230Y020588D01*
X022173Y020430D02*
X012946Y020430D01*
X012787Y020271D02*
X022015Y020271D01*
X022653Y019637D02*
X025299Y019637D01*
X025163Y019479D02*
X022495Y019479D01*
X022812Y019796D02*
X025435Y019796D01*
X025571Y019954D02*
X022970Y019954D01*
X023089Y020113D02*
X025707Y020113D01*
X025843Y020271D02*
X023130Y020271D01*
X023130Y020430D02*
X025978Y020430D01*
X026114Y020588D02*
X023130Y020588D01*
X023130Y020747D02*
X026250Y020747D01*
X026386Y020905D02*
X023130Y020905D01*
X023130Y021064D02*
X026522Y021064D01*
X026658Y021222D02*
X023130Y021222D01*
X023130Y021381D02*
X026794Y021381D01*
X026929Y021539D02*
X023130Y021539D01*
X023130Y021698D02*
X027065Y021698D01*
X027201Y021856D02*
X023130Y021856D01*
X023130Y022015D02*
X027280Y022015D01*
X027280Y022173D02*
X026957Y022173D01*
X026939Y022155D02*
X027068Y022283D01*
X027137Y022452D01*
X027137Y023148D01*
X027068Y023317D01*
X026939Y023445D01*
X026771Y023515D01*
X026589Y023515D01*
X026421Y023445D01*
X026292Y023317D01*
X026223Y023148D01*
X026223Y022452D01*
X026292Y022283D01*
X026421Y022155D01*
X026589Y022085D01*
X026771Y022085D01*
X026939Y022155D01*
X027088Y022332D02*
X027272Y022332D01*
X027223Y022490D02*
X027137Y022490D01*
X027137Y022649D02*
X027223Y022649D01*
X027223Y022807D02*
X027137Y022807D01*
X027137Y022966D02*
X027223Y022966D01*
X027223Y023124D02*
X027137Y023124D01*
X027082Y023283D02*
X027278Y023283D01*
X027417Y023441D02*
X026943Y023441D01*
X026417Y023441D02*
X025943Y023441D01*
X025939Y023445D02*
X025771Y023515D01*
X025589Y023515D01*
X025421Y023445D01*
X025292Y023317D01*
X025223Y023148D01*
X025223Y022452D01*
X025292Y022283D01*
X025421Y022155D01*
X025589Y022085D01*
X025771Y022085D01*
X025939Y022155D01*
X026068Y022283D01*
X026137Y022452D01*
X026137Y023148D01*
X026068Y023317D01*
X025939Y023445D01*
X026082Y023283D02*
X026278Y023283D01*
X026223Y023124D02*
X026137Y023124D01*
X026137Y022966D02*
X026223Y022966D01*
X026223Y022807D02*
X026137Y022807D01*
X026137Y022649D02*
X026223Y022649D01*
X026223Y022490D02*
X026137Y022490D01*
X026088Y022332D02*
X026272Y022332D01*
X026403Y022173D02*
X025957Y022173D01*
X025403Y022173D02*
X024957Y022173D01*
X024939Y022155D02*
X025068Y022283D01*
X025137Y022452D01*
X025137Y023148D01*
X025068Y023317D01*
X024939Y023445D01*
X024771Y023515D01*
X024589Y023515D01*
X024421Y023445D01*
X024292Y023317D01*
X024223Y023148D01*
X024223Y022452D01*
X024292Y022283D01*
X024421Y022155D01*
X024589Y022085D01*
X024771Y022085D01*
X024939Y022155D01*
X025088Y022332D02*
X025272Y022332D01*
X025223Y022490D02*
X025137Y022490D01*
X025137Y022649D02*
X025223Y022649D01*
X025223Y022807D02*
X025137Y022807D01*
X025137Y022966D02*
X025223Y022966D01*
X025223Y023124D02*
X025137Y023124D01*
X025082Y023283D02*
X025278Y023283D01*
X025417Y023441D02*
X024943Y023441D01*
X024417Y023441D02*
X023943Y023441D01*
X023939Y023445D02*
X023771Y023515D01*
X023589Y023515D01*
X023421Y023445D01*
X023292Y023317D01*
X023223Y023148D01*
X023223Y022452D01*
X023292Y022283D01*
X023421Y022155D01*
X023589Y022085D01*
X023771Y022085D01*
X023939Y022155D01*
X024068Y022283D01*
X024137Y022452D01*
X024137Y023148D01*
X024068Y023317D01*
X023939Y023445D01*
X024082Y023283D02*
X024278Y023283D01*
X024223Y023124D02*
X024137Y023124D01*
X024137Y022966D02*
X024223Y022966D01*
X024223Y022807D02*
X024137Y022807D01*
X024137Y022649D02*
X024223Y022649D01*
X024223Y022490D02*
X024137Y022490D01*
X024088Y022332D02*
X024272Y022332D01*
X024403Y022173D02*
X023957Y022173D01*
X023403Y022173D02*
X023130Y022173D01*
X023130Y022332D02*
X023272Y022332D01*
X023223Y022490D02*
X023130Y022490D01*
X023130Y022649D02*
X023223Y022649D01*
X023223Y022807D02*
X023130Y022807D01*
X023130Y022966D02*
X023223Y022966D01*
X023223Y023124D02*
X023130Y023124D01*
X023130Y023283D02*
X023278Y023283D01*
X023417Y023441D02*
X023130Y023441D01*
X023130Y023600D02*
X027914Y023600D01*
X028253Y022807D02*
X032373Y022807D01*
X032492Y022966D02*
X031468Y022966D01*
X031362Y022860D02*
X031620Y023118D01*
X031620Y023300D01*
X031620Y023482D01*
X031362Y023740D01*
X031180Y023740D01*
X031180Y023300D01*
X031620Y023300D01*
X031180Y023300D01*
X031180Y023300D01*
X031180Y023300D01*
X031180Y022860D01*
X031362Y022860D01*
X031180Y022860D02*
X031180Y023300D01*
X031180Y023300D01*
X031180Y023300D01*
X030740Y023300D01*
X030740Y023482D01*
X030998Y023740D01*
X031180Y023740D01*
X031180Y023300D01*
X030740Y023300D01*
X030740Y023118D01*
X030998Y022860D01*
X031180Y022860D01*
X031180Y022966D02*
X031180Y022966D01*
X031180Y023124D02*
X031180Y023124D01*
X031180Y023283D02*
X031180Y023283D01*
X031180Y023441D02*
X031180Y023441D01*
X031180Y023600D02*
X031180Y023600D01*
X031503Y023600D02*
X031744Y023600D01*
X031799Y023545D02*
X031799Y023545D01*
X031903Y023441D02*
X031620Y023441D01*
X031620Y023283D02*
X032729Y023283D01*
X032611Y023124D02*
X031620Y023124D01*
X031586Y023758D02*
X029373Y023758D01*
X029531Y023600D02*
X030857Y023600D01*
X030740Y023441D02*
X029640Y023441D01*
X029640Y023283D02*
X030740Y023283D01*
X030740Y023124D02*
X029640Y023124D01*
X029496Y022966D02*
X030892Y022966D01*
X029917Y022173D02*
X028080Y022173D01*
X028080Y022015D02*
X029758Y022015D01*
X029600Y021856D02*
X028080Y021856D01*
X028071Y021698D02*
X029441Y021698D01*
X029292Y021539D02*
X027985Y021539D01*
X027847Y021381D02*
X029230Y021381D01*
X029230Y021222D02*
X027711Y021222D01*
X027576Y021064D02*
X029230Y021064D01*
X029230Y020905D02*
X027440Y020905D01*
X027304Y020747D02*
X029230Y020747D01*
X029230Y020588D02*
X027168Y020588D01*
X027032Y020430D02*
X029230Y020430D01*
X029230Y020271D02*
X026896Y020271D01*
X026760Y020113D02*
X029230Y020113D01*
X029230Y019954D02*
X026625Y019954D01*
X026489Y019796D02*
X029230Y019796D01*
X029230Y019637D02*
X026353Y019637D01*
X026217Y019479D02*
X029230Y019479D01*
X029230Y019320D02*
X026081Y019320D01*
X025945Y019162D02*
X029230Y019162D01*
X029230Y019003D02*
X025809Y019003D01*
X025674Y018845D02*
X029230Y018845D01*
X029230Y018686D02*
X025538Y018686D01*
X025402Y018528D02*
X029230Y018528D01*
X029230Y018369D02*
X025266Y018369D01*
X025130Y018211D02*
X029230Y018211D01*
X029230Y018052D02*
X024998Y018052D01*
X024771Y017515D02*
X024589Y017515D01*
X024421Y017445D01*
X024292Y017317D01*
X024223Y017148D01*
X024223Y016452D01*
X024292Y016283D01*
X024421Y016155D01*
X024589Y016085D01*
X024771Y016085D01*
X024939Y016155D01*
X025068Y016283D01*
X025137Y016452D01*
X025137Y017148D01*
X025068Y017317D01*
X024939Y017445D01*
X024771Y017515D01*
X024966Y017418D02*
X025394Y017418D01*
X025421Y017445D02*
X025292Y017317D01*
X025223Y017148D01*
X025223Y016452D01*
X025292Y016283D01*
X025421Y016155D01*
X025589Y016085D01*
X025771Y016085D01*
X025939Y016155D01*
X026068Y016283D01*
X026137Y016452D01*
X026137Y017148D01*
X026068Y017317D01*
X025939Y017445D01*
X025771Y017515D01*
X025589Y017515D01*
X025421Y017445D01*
X025269Y017260D02*
X025091Y017260D01*
X025137Y017101D02*
X025223Y017101D01*
X025223Y016943D02*
X025137Y016943D01*
X025137Y016784D02*
X025223Y016784D01*
X025223Y016626D02*
X025137Y016626D01*
X025137Y016467D02*
X025223Y016467D01*
X025282Y016309D02*
X025078Y016309D01*
X024928Y016150D02*
X025432Y016150D01*
X025928Y016150D02*
X026432Y016150D01*
X026421Y016155D02*
X026589Y016085D01*
X026771Y016085D01*
X026939Y016155D01*
X027068Y016283D01*
X027137Y016452D01*
X027137Y017148D01*
X027068Y017317D01*
X026939Y017445D01*
X026771Y017515D01*
X026589Y017515D01*
X026421Y017445D01*
X026292Y017317D01*
X026223Y017148D01*
X026223Y016452D01*
X026292Y016283D01*
X026421Y016155D01*
X026282Y016309D02*
X026078Y016309D01*
X026137Y016467D02*
X026223Y016467D01*
X026223Y016626D02*
X026137Y016626D01*
X026137Y016784D02*
X026223Y016784D01*
X026223Y016943D02*
X026137Y016943D01*
X026137Y017101D02*
X026223Y017101D01*
X026269Y017260D02*
X026091Y017260D01*
X025966Y017418D02*
X026394Y017418D01*
X026966Y017418D02*
X027432Y017418D01*
X027451Y017432D02*
X027395Y017391D01*
X027346Y017342D01*
X027306Y017287D01*
X027275Y017225D01*
X027253Y017160D01*
X027243Y017092D01*
X027243Y016800D01*
X027243Y016508D01*
X027253Y016440D01*
X027275Y016375D01*
X027306Y016313D01*
X027346Y016258D01*
X027395Y016209D01*
X027451Y016168D01*
X027512Y016137D01*
X027578Y016116D01*
X027646Y016105D01*
X027680Y016105D01*
X027680Y016800D01*
X027680Y016800D01*
X027680Y017495D01*
X027646Y017495D01*
X027578Y017484D01*
X027512Y017463D01*
X027451Y017432D01*
X027680Y017418D02*
X027680Y017418D01*
X027680Y017495D02*
X027680Y016800D01*
X028117Y016800D01*
X028117Y017092D01*
X028107Y017160D01*
X028085Y017225D01*
X028054Y017287D01*
X028014Y017342D01*
X027965Y017391D01*
X027909Y017432D01*
X027848Y017463D01*
X027782Y017484D01*
X027714Y017495D01*
X027680Y017495D01*
X027680Y017260D02*
X027680Y017260D01*
X027680Y017101D02*
X027680Y017101D01*
X027680Y016943D02*
X027680Y016943D01*
X027680Y016800D02*
X027680Y016800D01*
X027680Y016800D01*
X027243Y016800D01*
X027680Y016800D01*
X028117Y016800D01*
X028117Y016508D01*
X028107Y016440D01*
X028085Y016375D01*
X028054Y016313D01*
X028014Y016258D01*
X027965Y016209D01*
X027909Y016168D01*
X027848Y016137D01*
X027782Y016116D01*
X027714Y016105D01*
X027680Y016105D01*
X027680Y016800D01*
X027680Y016800D01*
X027680Y016784D02*
X027680Y016784D01*
X027680Y016626D02*
X027680Y016626D01*
X027680Y016467D02*
X027680Y016467D01*
X027680Y016309D02*
X027680Y016309D01*
X027680Y016150D02*
X027680Y016150D01*
X027873Y016150D02*
X029230Y016150D01*
X029230Y015992D02*
X022175Y015992D01*
X022175Y015833D02*
X029230Y015833D01*
X029230Y015675D02*
X022175Y015675D01*
X022175Y015595D02*
X022175Y015800D01*
X021680Y015800D01*
X021680Y015800D01*
X021680Y015305D01*
X021885Y015305D01*
X022175Y015595D01*
X022096Y015516D02*
X029230Y015516D01*
X029230Y015358D02*
X021938Y015358D01*
X021680Y015358D02*
X021680Y015358D01*
X021680Y015305D02*
X021475Y015305D01*
X021185Y015595D01*
X021185Y015800D01*
X021680Y015800D01*
X021680Y015800D01*
X021680Y015800D01*
X021680Y015305D01*
X021680Y015516D02*
X021680Y015516D01*
X021680Y015675D02*
X021680Y015675D01*
X021422Y015358D02*
X018621Y015358D01*
X018674Y015516D02*
X021264Y015516D01*
X021185Y015675D02*
X018726Y015675D01*
X018779Y015833D02*
X021185Y015833D01*
X021185Y015992D02*
X018832Y015992D01*
X018982Y016150D02*
X021330Y016150D01*
X021521Y016309D02*
X019108Y016309D01*
X019157Y016467D02*
X021285Y016467D01*
X021195Y016626D02*
X019157Y016626D01*
X019157Y016784D02*
X021165Y016784D01*
X021182Y016943D02*
X019157Y016943D01*
X019157Y017101D02*
X021253Y017101D01*
X021280Y017260D02*
X019121Y017260D01*
X019080Y017418D02*
X021280Y017418D01*
X021280Y017577D02*
X019080Y017577D01*
X019080Y017735D02*
X021280Y017735D01*
X021280Y017894D02*
X019080Y017894D01*
X018280Y017894D02*
X016313Y017894D01*
X016432Y018052D02*
X018280Y018052D01*
X018280Y018211D02*
X016550Y018211D01*
X016669Y018369D02*
X018280Y018369D01*
X018342Y018528D02*
X016788Y018528D01*
X016907Y018686D02*
X018567Y018686D01*
X018280Y017735D02*
X016194Y017735D01*
X016130Y017577D02*
X018280Y017577D01*
X018280Y017418D02*
X017986Y017418D01*
X017978Y017426D02*
X017920Y017468D01*
X017855Y017501D01*
X017787Y017523D01*
X017716Y017534D01*
X017689Y017534D01*
X017689Y016809D01*
X017671Y016809D01*
X017671Y017534D01*
X017644Y017534D01*
X017573Y017523D01*
X017505Y017501D01*
X017440Y017468D01*
X017382Y017426D01*
X017331Y017375D01*
X017289Y017317D01*
X017256Y017253D01*
X017234Y017184D01*
X017223Y017113D01*
X017223Y016809D01*
X017671Y016809D01*
X017671Y016791D01*
X017223Y016791D01*
X017223Y016487D01*
X017234Y016416D01*
X017256Y016347D01*
X017289Y016283D01*
X017331Y016225D01*
X017382Y016174D01*
X017440Y016132D01*
X017505Y016099D01*
X017573Y016077D01*
X017644Y016066D01*
X017671Y016066D01*
X017671Y016791D01*
X017689Y016791D01*
X017689Y016809D01*
X018137Y016809D01*
X018137Y017113D01*
X018126Y017184D01*
X018104Y017253D01*
X018071Y017317D01*
X018029Y017375D01*
X017978Y017426D01*
X018100Y017260D02*
X018239Y017260D01*
X018203Y017101D02*
X018137Y017101D01*
X018137Y016943D02*
X018203Y016943D01*
X018203Y016784D02*
X018137Y016784D01*
X018137Y016791D02*
X017689Y016791D01*
X017689Y016066D01*
X017716Y016066D01*
X017787Y016077D01*
X017855Y016099D01*
X017920Y016132D01*
X017978Y016174D01*
X018029Y016225D01*
X018071Y016283D01*
X018104Y016347D01*
X018126Y016416D01*
X018137Y016487D01*
X018137Y016791D01*
X018137Y016626D02*
X018200Y016626D01*
X018147Y016467D02*
X018134Y016467D01*
X018095Y016309D02*
X018084Y016309D01*
X018042Y016150D02*
X017945Y016150D01*
X017989Y015992D02*
X009130Y015992D01*
X009130Y016150D02*
X009378Y016150D01*
X009252Y016309D02*
X009130Y016309D01*
X009157Y016467D02*
X009203Y016467D01*
X009203Y016626D02*
X009157Y016626D01*
X009157Y016784D02*
X009203Y016784D01*
X009203Y016943D02*
X009157Y016943D01*
X009157Y017101D02*
X009203Y017101D01*
X009230Y017260D02*
X009121Y017260D01*
X009014Y017418D02*
X009230Y017418D01*
X008346Y017418D02*
X008014Y017418D01*
X007950Y017482D02*
X008085Y017347D01*
X008157Y017172D01*
X008157Y016428D01*
X008085Y016253D01*
X007950Y016118D01*
X007775Y016046D01*
X007585Y016046D01*
X007410Y016118D01*
X007275Y016253D01*
X007203Y016428D01*
X007203Y017172D01*
X007275Y017347D01*
X007410Y017482D01*
X007585Y017554D01*
X007775Y017554D01*
X007950Y017482D01*
X008121Y017260D02*
X008239Y017260D01*
X008203Y017101D02*
X008157Y017101D01*
X008157Y016943D02*
X008203Y016943D01*
X008203Y016784D02*
X008157Y016784D01*
X008157Y016626D02*
X008203Y016626D01*
X008203Y016467D02*
X008157Y016467D01*
X008108Y016309D02*
X008230Y016309D01*
X008230Y016150D02*
X007982Y016150D01*
X007378Y016150D02*
X006982Y016150D01*
X006950Y016118D02*
X007085Y016253D01*
X007157Y016428D01*
X007157Y017172D01*
X007085Y017347D01*
X006950Y017482D01*
X006775Y017554D01*
X006585Y017554D01*
X006410Y017482D01*
X006275Y017347D01*
X006203Y017172D01*
X006203Y016428D01*
X006275Y016253D01*
X006410Y016118D01*
X006585Y016046D01*
X006775Y016046D01*
X006950Y016118D01*
X007108Y016309D02*
X007252Y016309D01*
X007203Y016467D02*
X007157Y016467D01*
X007157Y016626D02*
X007203Y016626D01*
X007203Y016784D02*
X007157Y016784D01*
X007157Y016943D02*
X007203Y016943D01*
X007203Y017101D02*
X007157Y017101D01*
X007121Y017260D02*
X007239Y017260D01*
X007346Y017418D02*
X007014Y017418D01*
X006346Y017418D02*
X006014Y017418D01*
X005950Y017482D02*
X005775Y017554D01*
X005585Y017554D01*
X005410Y017482D01*
X005275Y017347D01*
X005203Y017172D01*
X005203Y016428D01*
X005275Y016253D01*
X005410Y016118D01*
X005585Y016046D01*
X005775Y016046D01*
X005950Y016118D01*
X006085Y016253D01*
X006157Y016428D01*
X006157Y017172D01*
X006085Y017347D01*
X005950Y017482D01*
X006121Y017260D02*
X006239Y017260D01*
X006203Y017101D02*
X006157Y017101D01*
X006157Y016943D02*
X006203Y016943D01*
X006203Y016784D02*
X006157Y016784D01*
X006157Y016626D02*
X006203Y016626D01*
X006203Y016467D02*
X006157Y016467D01*
X006108Y016309D02*
X006252Y016309D01*
X006378Y016150D02*
X005982Y016150D01*
X005378Y016150D02*
X004982Y016150D01*
X005108Y016309D02*
X005252Y016309D01*
X005203Y016467D02*
X005157Y016467D01*
X005157Y016626D02*
X005203Y016626D01*
X005203Y016784D02*
X005157Y016784D01*
X005157Y016943D02*
X005203Y016943D01*
X005203Y017101D02*
X005157Y017101D01*
X005121Y017260D02*
X005239Y017260D01*
X005346Y017418D02*
X005014Y017418D01*
X003400Y017418D02*
X002095Y017418D01*
X002153Y017403D02*
X001891Y017473D01*
X001619Y017473D01*
X001357Y017403D01*
X001122Y017267D01*
X000930Y017075D01*
X000794Y016840D01*
X000724Y016577D01*
X000724Y016306D01*
X000794Y016044D01*
X000930Y015809D01*
X001122Y015617D01*
X001357Y015481D01*
X001619Y015411D01*
X001891Y015411D01*
X002153Y015481D01*
X002388Y015617D01*
X002580Y015809D01*
X002716Y016044D01*
X002786Y016306D01*
X002786Y016577D01*
X002716Y016840D01*
X002580Y017075D01*
X002388Y017267D01*
X002153Y017403D01*
X002395Y017260D02*
X003400Y017260D01*
X003400Y017101D02*
X002554Y017101D01*
X002656Y016943D02*
X003400Y016943D01*
X003400Y016784D02*
X002731Y016784D01*
X002773Y016626D02*
X003400Y016626D01*
X003400Y016467D02*
X002786Y016467D01*
X002786Y016309D02*
X003400Y016309D01*
X003400Y016150D02*
X002744Y016150D01*
X002686Y015992D02*
X003400Y015992D01*
X003400Y015833D02*
X002594Y015833D01*
X002446Y015675D02*
X003429Y015675D01*
X003568Y015516D02*
X002214Y015516D01*
X001296Y015516D02*
X000675Y015516D01*
X000675Y015358D02*
X003726Y015358D01*
X003885Y015199D02*
X000675Y015199D01*
X000675Y015041D02*
X004075Y015041D01*
X004180Y015300D02*
X007680Y015300D01*
X007200Y014248D02*
X007160Y014248D01*
X007160Y014090D02*
X007200Y014090D01*
X007200Y013931D02*
X007160Y013931D01*
X007160Y013773D02*
X007200Y013773D01*
X007200Y013614D02*
X007160Y013614D01*
X007160Y013456D02*
X007200Y013456D01*
X007200Y013297D02*
X007160Y013297D01*
X007160Y013139D02*
X007200Y013139D01*
X007200Y012980D02*
X007160Y012980D01*
X006796Y012980D02*
X000675Y012980D01*
X000675Y013139D02*
X006717Y013139D01*
X006700Y013297D02*
X000675Y013297D01*
X000675Y013456D02*
X006700Y013456D01*
X006700Y013614D02*
X000675Y013614D01*
X000675Y013773D02*
X006700Y013773D01*
X006704Y013931D02*
X000675Y013931D01*
X000675Y014090D02*
X006754Y014090D01*
X006887Y014248D02*
X000675Y014248D01*
X000675Y015675D02*
X001064Y015675D01*
X000916Y015833D02*
X000675Y015833D01*
X000675Y015992D02*
X000824Y015992D01*
X000765Y016150D02*
X000675Y016150D01*
X000675Y016309D02*
X000724Y016309D01*
X000724Y016467D02*
X000675Y016467D01*
X000675Y016626D02*
X000736Y016626D01*
X000779Y016784D02*
X000675Y016784D01*
X000675Y016943D02*
X000853Y016943D01*
X000956Y017101D02*
X000675Y017101D01*
X000675Y017260D02*
X001114Y017260D01*
X001414Y017418D02*
X000675Y017418D01*
X000675Y017577D02*
X003400Y017577D01*
X003400Y017735D02*
X000675Y017735D01*
X000675Y017894D02*
X003400Y017894D01*
X003400Y018052D02*
X000675Y018052D01*
X000675Y018211D02*
X003400Y018211D01*
X003400Y018369D02*
X000675Y018369D01*
X000675Y018528D02*
X003400Y018528D01*
X003400Y018686D02*
X000675Y018686D01*
X000675Y018845D02*
X003400Y018845D01*
X003400Y019003D02*
X000675Y019003D01*
X000675Y019162D02*
X003400Y019162D01*
X003400Y019320D02*
X000675Y019320D01*
X000675Y019479D02*
X003400Y019479D01*
X003400Y019637D02*
X000675Y019637D01*
X000675Y019796D02*
X003400Y019796D01*
X003400Y019954D02*
X000675Y019954D01*
X000675Y020113D02*
X003400Y020113D01*
X003400Y020271D02*
X000675Y020271D01*
X000675Y020430D02*
X003400Y020430D01*
X003400Y020588D02*
X000675Y020588D01*
X000675Y020747D02*
X003400Y020747D01*
X003400Y020905D02*
X000675Y020905D01*
X000675Y021064D02*
X003400Y021064D01*
X003400Y021222D02*
X000675Y021222D01*
X000675Y021381D02*
X003410Y021381D01*
X003523Y021539D02*
X000675Y021539D01*
X000675Y021698D02*
X003682Y021698D01*
X003840Y021856D02*
X000675Y021856D01*
X000675Y022015D02*
X003929Y022015D01*
X004009Y022173D02*
X000675Y022173D01*
X000675Y022332D02*
X004088Y022332D01*
X004167Y022490D02*
X000675Y022490D01*
X000675Y022649D02*
X004203Y022649D01*
X004203Y022807D02*
X000675Y022807D01*
X000675Y022966D02*
X004203Y022966D01*
X004203Y023124D02*
X000675Y023124D01*
X000675Y023283D02*
X004249Y023283D01*
X004369Y023441D02*
X000675Y023441D01*
X000675Y023917D02*
X001413Y023917D01*
X001254Y024075D02*
X000675Y024075D01*
X000675Y024234D02*
X001220Y024234D01*
X001220Y024392D02*
X000675Y024392D01*
X000675Y024551D02*
X001280Y024551D01*
X001439Y024709D02*
X000675Y024709D01*
X000675Y024868D02*
X019230Y024868D01*
X019230Y025026D02*
X000675Y025026D01*
X000675Y025185D02*
X019230Y025185D01*
X019230Y025343D02*
X000675Y025343D01*
X000675Y025502D02*
X019230Y025502D01*
X019230Y025660D02*
X000675Y025660D01*
X000675Y025819D02*
X019230Y025819D01*
X019230Y025977D02*
X000675Y025977D01*
X000675Y026136D02*
X019230Y026136D01*
X019230Y026294D02*
X000675Y026294D01*
X000675Y026453D02*
X019256Y026453D01*
X019355Y026611D02*
X000675Y026611D01*
X000675Y026770D02*
X019513Y026770D01*
X019672Y026928D02*
X000675Y026928D01*
X000675Y027087D02*
X019830Y027087D01*
X019989Y027245D02*
X000675Y027245D01*
X000675Y027404D02*
X020147Y027404D01*
X020306Y027562D02*
X000675Y027562D01*
X000675Y027721D02*
X020464Y027721D01*
X020623Y027879D02*
X003410Y027879D01*
X003371Y027840D02*
X003640Y028109D01*
X003640Y028491D01*
X003371Y028760D01*
X002989Y028760D01*
X002720Y028491D01*
X002720Y028109D01*
X002989Y027840D01*
X003371Y027840D01*
X003568Y028038D02*
X020781Y028038D01*
X020940Y028196D02*
X003640Y028196D01*
X003640Y028355D02*
X021098Y028355D01*
X021257Y028513D02*
X003617Y028513D01*
X003459Y028672D02*
X021415Y028672D01*
X021574Y028830D02*
X000675Y028830D01*
X000675Y028672D02*
X001401Y028672D01*
X001489Y028760D02*
X001220Y028491D01*
X001220Y028109D01*
X001489Y027840D01*
X001871Y027840D01*
X002140Y028109D01*
X002140Y028491D01*
X001871Y028760D01*
X001489Y028760D01*
X001243Y028513D02*
X000675Y028513D01*
X000675Y028355D02*
X001220Y028355D01*
X001220Y028196D02*
X000675Y028196D01*
X000675Y028038D02*
X001292Y028038D01*
X001450Y027879D02*
X000675Y027879D01*
X000675Y028989D02*
X021732Y028989D01*
X021891Y029147D02*
X000675Y029147D01*
X000675Y029306D02*
X022049Y029306D01*
X022208Y029464D02*
X004092Y029464D01*
X004040Y029412D02*
X004169Y029541D01*
X004239Y029709D01*
X004239Y029891D01*
X004169Y030059D01*
X004040Y030188D01*
X003872Y030257D01*
X003175Y030257D01*
X003007Y030188D01*
X002878Y030059D01*
X002809Y029891D01*
X002809Y029709D01*
X002878Y029541D01*
X003007Y029412D01*
X003175Y029343D01*
X003872Y029343D01*
X004040Y029412D01*
X004203Y029623D02*
X022366Y029623D01*
X022525Y029781D02*
X004239Y029781D01*
X004219Y029940D02*
X022683Y029940D01*
X022842Y030098D02*
X004130Y030098D01*
X003874Y030257D02*
X033972Y030257D01*
X033976Y030258D02*
X033911Y030237D01*
X033849Y030205D01*
X033794Y030165D01*
X033745Y030116D01*
X033705Y030061D01*
X033673Y029999D01*
X033652Y029934D01*
X033641Y029866D01*
X033641Y029831D01*
X033641Y029797D01*
X033652Y029729D01*
X033673Y029663D01*
X033705Y029602D01*
X033745Y029546D01*
X033794Y029498D01*
X033849Y029457D01*
X033911Y029426D01*
X033976Y029405D01*
X034044Y029394D01*
X034336Y029394D01*
X034336Y029831D01*
X034336Y029831D01*
X033641Y029831D01*
X034336Y029831D01*
X034336Y029831D01*
X034336Y029394D01*
X034628Y029394D01*
X034696Y029405D01*
X034762Y029426D01*
X034823Y029457D01*
X034879Y029498D01*
X034927Y029546D01*
X034968Y029602D01*
X034999Y029663D01*
X035020Y029729D01*
X035031Y029797D01*
X035031Y029831D01*
X034336Y029831D01*
X034336Y030269D01*
X034044Y030269D01*
X033976Y030258D01*
X033988Y030343D02*
X033820Y030412D01*
X033691Y030541D01*
X033621Y030709D01*
X033621Y030891D01*
X033691Y031059D01*
X033820Y031188D01*
X033988Y031257D01*
X034685Y031257D01*
X034853Y031188D01*
X034982Y031059D01*
X035051Y030891D01*
X035051Y030709D01*
X034982Y030541D01*
X034853Y030412D01*
X034685Y030343D01*
X033988Y030343D01*
X033817Y030415D02*
X004039Y030415D01*
X004066Y030435D02*
X004115Y030484D01*
X004155Y030539D01*
X004187Y030601D01*
X004208Y030666D01*
X004219Y030734D01*
X004219Y030769D01*
X004219Y030803D01*
X004208Y030871D01*
X004187Y030937D01*
X004155Y030998D01*
X004115Y031054D01*
X004066Y031102D01*
X004011Y031143D01*
X003949Y031174D01*
X003884Y031195D01*
X003816Y031206D01*
X003524Y031206D01*
X003524Y030769D01*
X003524Y030769D01*
X004219Y030769D01*
X003524Y030769D01*
X003524Y030769D01*
X003524Y031206D01*
X003232Y031206D01*
X003164Y031195D01*
X003098Y031174D01*
X003037Y031143D01*
X002981Y031102D01*
X002933Y031054D01*
X002892Y030998D01*
X002861Y030937D01*
X002840Y030871D01*
X002829Y030803D01*
X002829Y030769D01*
X003524Y030769D01*
X003524Y030331D01*
X003816Y030331D01*
X003884Y030342D01*
X003949Y030363D01*
X004011Y030395D01*
X004066Y030435D01*
X004173Y030574D02*
X033677Y030574D01*
X033621Y030732D02*
X004218Y030732D01*
X004202Y030891D02*
X033621Y030891D01*
X033687Y031049D02*
X004118Y031049D01*
X003524Y031049D02*
X003524Y031049D01*
X003524Y030891D02*
X003524Y030891D01*
X003524Y030769D02*
X003524Y030769D01*
X003524Y030769D01*
X003524Y030331D01*
X003232Y030331D01*
X003164Y030342D01*
X003098Y030363D01*
X003037Y030395D01*
X002981Y030435D01*
X002933Y030484D01*
X002892Y030539D01*
X002861Y030601D01*
X002840Y030666D01*
X002829Y030734D01*
X002829Y030769D01*
X003524Y030769D01*
X003524Y030732D02*
X003524Y030732D01*
X003524Y030574D02*
X003524Y030574D01*
X003524Y030415D02*
X003524Y030415D01*
X003173Y030257D02*
X000675Y030257D01*
X000675Y030415D02*
X001348Y030415D01*
X001382Y030381D02*
X001253Y030510D01*
X001184Y030678D01*
X001184Y030860D01*
X001253Y031028D01*
X001382Y031157D01*
X001550Y031226D01*
X002247Y031226D01*
X002415Y031157D01*
X002544Y031028D01*
X002614Y030860D01*
X002614Y030678D01*
X002544Y030510D01*
X002415Y030381D01*
X002247Y030311D01*
X001550Y030311D01*
X001382Y030381D01*
X001473Y030205D02*
X001412Y030174D01*
X001356Y030134D01*
X001308Y030085D01*
X001267Y030029D01*
X001236Y029968D01*
X001215Y029902D01*
X001204Y029834D01*
X001204Y029800D01*
X001204Y029766D01*
X001215Y029698D01*
X001236Y029632D01*
X001267Y029571D01*
X001308Y029515D01*
X001356Y029466D01*
X001412Y029426D01*
X001473Y029395D01*
X001539Y029373D01*
X001607Y029363D01*
X001899Y029363D01*
X002191Y029363D01*
X002259Y029373D01*
X002324Y029395D01*
X002386Y029426D01*
X002441Y029466D01*
X002490Y029515D01*
X002530Y029571D01*
X002562Y029632D01*
X002583Y029698D01*
X002594Y029766D01*
X002594Y029800D01*
X002594Y029834D01*
X002583Y029902D01*
X002562Y029968D01*
X002530Y030029D01*
X002490Y030085D01*
X002441Y030134D01*
X002386Y030174D01*
X002324Y030205D01*
X002259Y030227D01*
X002191Y030237D01*
X001899Y030237D01*
X001899Y029800D01*
X002594Y029800D01*
X001899Y029800D01*
X001899Y029800D01*
X001899Y029363D01*
X001899Y029800D01*
X001899Y029800D01*
X001899Y029800D01*
X001899Y030237D01*
X001607Y030237D01*
X001539Y030227D01*
X001473Y030205D01*
X001321Y030098D02*
X000675Y030098D01*
X000675Y029940D02*
X001227Y029940D01*
X001204Y029800D02*
X001899Y029800D01*
X001204Y029800D01*
X001204Y029781D02*
X000675Y029781D01*
X000675Y029623D02*
X001241Y029623D01*
X001359Y029464D02*
X000675Y029464D01*
X000675Y030574D02*
X001227Y030574D01*
X001184Y030732D02*
X000675Y030732D01*
X000675Y030891D02*
X001197Y030891D01*
X001275Y031049D02*
X000675Y031049D01*
X000675Y031208D02*
X001505Y031208D01*
X002292Y031208D02*
X033867Y031208D01*
X034805Y031208D02*
X035542Y031208D01*
X035536Y031205D02*
X035474Y031174D01*
X035419Y031134D01*
X035370Y031085D01*
X035330Y031029D01*
X035298Y030968D01*
X035277Y030902D01*
X035266Y030834D01*
X035266Y030800D01*
X035961Y030800D01*
X035266Y030800D01*
X035266Y030766D01*
X035277Y030698D01*
X035298Y030632D01*
X035330Y030571D01*
X035370Y030515D01*
X035419Y030466D01*
X035474Y030426D01*
X035536Y030395D01*
X035601Y030373D01*
X035669Y030363D01*
X035961Y030363D01*
X035961Y030800D01*
X035961Y030800D01*
X035961Y031237D01*
X035669Y031237D01*
X035601Y031227D01*
X035536Y031205D01*
X035344Y031049D02*
X034986Y031049D01*
X035051Y030891D02*
X035275Y030891D01*
X035272Y030732D02*
X035051Y030732D01*
X034995Y030574D02*
X035328Y030574D01*
X035496Y030415D02*
X034856Y030415D01*
X034762Y030237D02*
X034696Y030258D01*
X034628Y030269D01*
X034336Y030269D01*
X034336Y029831D01*
X034336Y029831D01*
X034336Y029831D01*
X035031Y029831D01*
X035031Y029866D01*
X035020Y029934D01*
X034999Y029999D01*
X034968Y030061D01*
X034927Y030116D01*
X034879Y030165D01*
X034823Y030205D01*
X034762Y030237D01*
X034701Y030257D02*
X035535Y030257D01*
X035613Y030289D02*
X035445Y030219D01*
X035316Y030090D01*
X035246Y029922D01*
X035246Y029740D01*
X035316Y029572D01*
X035445Y029443D01*
X035613Y029374D01*
X036310Y029374D01*
X036478Y029443D01*
X036607Y029572D01*
X036676Y029740D01*
X036676Y029922D01*
X036607Y030090D01*
X036478Y030219D01*
X036310Y030289D01*
X035613Y030289D01*
X035324Y030098D02*
X034941Y030098D01*
X035019Y029940D02*
X035253Y029940D01*
X035246Y029781D02*
X035029Y029781D01*
X034978Y029623D02*
X035295Y029623D01*
X035424Y029464D02*
X034833Y029464D01*
X034336Y029464D02*
X034336Y029464D01*
X034336Y029623D02*
X034336Y029623D01*
X034336Y029781D02*
X034336Y029781D01*
X034336Y029940D02*
X034336Y029940D01*
X034336Y030098D02*
X034336Y030098D01*
X034336Y030257D02*
X034336Y030257D01*
X033732Y030098D02*
X031518Y030098D01*
X031677Y029940D02*
X033654Y029940D01*
X033644Y029781D02*
X031835Y029781D01*
X031994Y029623D02*
X033694Y029623D01*
X033840Y029464D02*
X032152Y029464D01*
X032311Y029306D02*
X037205Y029306D01*
X037205Y029464D02*
X036499Y029464D01*
X036627Y029623D02*
X037205Y029623D01*
X037205Y029781D02*
X036676Y029781D01*
X036669Y029940D02*
X037205Y029940D01*
X037205Y030098D02*
X036599Y030098D01*
X036387Y030257D02*
X037205Y030257D01*
X037205Y030415D02*
X036427Y030415D01*
X036448Y030426D02*
X036504Y030466D01*
X036552Y030515D01*
X036593Y030571D01*
X036624Y030632D01*
X036645Y030698D01*
X036656Y030766D01*
X036656Y030800D01*
X036656Y030834D01*
X036645Y030902D01*
X036624Y030968D01*
X036593Y031029D01*
X036552Y031085D01*
X036504Y031134D01*
X036448Y031174D01*
X036387Y031205D01*
X036321Y031227D01*
X036253Y031237D01*
X035961Y031237D01*
X035961Y030800D01*
X035961Y030800D01*
X035961Y030800D01*
X035961Y030363D01*
X036253Y030363D01*
X036321Y030373D01*
X036387Y030395D01*
X036448Y030426D01*
X036594Y030574D02*
X037205Y030574D01*
X037205Y030732D02*
X036651Y030732D01*
X036656Y030800D02*
X035961Y030800D01*
X036656Y030800D01*
X036647Y030891D02*
X037205Y030891D01*
X037205Y031049D02*
X036579Y031049D01*
X036380Y031208D02*
X037205Y031208D01*
X035961Y031208D02*
X035961Y031208D01*
X035961Y031049D02*
X035961Y031049D01*
X035961Y030891D02*
X035961Y030891D01*
X035961Y030800D02*
X035961Y030800D01*
X035961Y030732D02*
X035961Y030732D01*
X035961Y030574D02*
X035961Y030574D01*
X035961Y030415D02*
X035961Y030415D01*
X036469Y029147D02*
X037205Y029147D01*
X037205Y028989D02*
X036628Y028989D01*
X036786Y028830D02*
X037205Y028830D01*
X037205Y028672D02*
X036945Y028672D01*
X037079Y028513D02*
X037205Y028513D01*
X037205Y028355D02*
X037130Y028355D01*
X037130Y028196D02*
X037205Y028196D01*
X037205Y028038D02*
X037130Y028038D01*
X037130Y027879D02*
X037205Y027879D01*
X037205Y027721D02*
X037130Y027721D01*
X037130Y027562D02*
X037205Y027562D01*
X037205Y027404D02*
X037130Y027404D01*
X037130Y027245D02*
X037205Y027245D01*
X037205Y027087D02*
X037130Y027087D01*
X037130Y026928D02*
X037205Y026928D01*
X037205Y026770D02*
X037130Y026770D01*
X037130Y026611D02*
X037205Y026611D01*
X037205Y026453D02*
X037130Y026453D01*
X037130Y026294D02*
X037205Y026294D01*
X037205Y026136D02*
X037130Y026136D01*
X037130Y025977D02*
X037205Y025977D01*
X037205Y025819D02*
X037130Y025819D01*
X037130Y025660D02*
X037205Y025660D01*
X037205Y025502D02*
X037130Y025502D01*
X037130Y025343D02*
X037205Y025343D01*
X037205Y025185D02*
X037130Y025185D01*
X037130Y025026D02*
X037205Y025026D01*
X037205Y024868D02*
X037130Y024868D01*
X037130Y024709D02*
X037205Y024709D01*
X037205Y024551D02*
X037130Y024551D01*
X037130Y024392D02*
X037205Y024392D01*
X037205Y024234D02*
X037130Y024234D01*
X037130Y024075D02*
X037205Y024075D01*
X037205Y023917D02*
X037130Y023917D01*
X037130Y023758D02*
X037205Y023758D01*
X037205Y023600D02*
X037084Y023600D01*
X037205Y023441D02*
X036957Y023441D01*
X037205Y023283D02*
X033854Y023283D01*
X033736Y023124D02*
X037205Y023124D01*
X037205Y022966D02*
X033617Y022966D01*
X033498Y022807D02*
X037205Y022807D01*
X037205Y022649D02*
X033379Y022649D01*
X033260Y022490D02*
X037205Y022490D01*
X037205Y022332D02*
X033141Y022332D01*
X033022Y022173D02*
X037205Y022173D01*
X037205Y022015D02*
X032903Y022015D01*
X032785Y021856D02*
X037205Y021856D01*
X037205Y021698D02*
X032666Y021698D01*
X032555Y021539D02*
X037205Y021539D01*
X037205Y021381D02*
X032355Y021381D01*
X031701Y020690D02*
X031531Y020760D01*
X030828Y020760D01*
X030659Y020690D01*
X030530Y020561D01*
X030460Y020391D01*
X030460Y020208D01*
X030530Y020039D01*
X030659Y019910D01*
X030828Y019840D01*
X031531Y019840D01*
X031701Y019910D01*
X031830Y020039D01*
X031900Y020208D01*
X031900Y020391D01*
X031830Y020561D01*
X031701Y020690D01*
X031803Y020588D02*
X033586Y020588D01*
X033584Y020587D02*
X033544Y020531D01*
X033512Y020469D01*
X033491Y020403D01*
X033480Y020335D01*
X033480Y020300D01*
X034180Y020300D01*
X034180Y020300D01*
X034180Y020740D01*
X034475Y020740D01*
X034543Y020729D01*
X034609Y020708D01*
X034671Y020676D01*
X034727Y020636D01*
X034776Y020587D01*
X034816Y020531D01*
X034848Y020469D01*
X034869Y020403D01*
X034880Y020335D01*
X034880Y020300D01*
X034180Y020300D01*
X034180Y020300D01*
X034180Y019860D01*
X034475Y019860D01*
X034543Y019871D01*
X034609Y019892D01*
X034671Y019924D01*
X034727Y019964D01*
X034776Y020013D01*
X034816Y020069D01*
X034848Y020131D01*
X034869Y020197D01*
X034880Y020265D01*
X034880Y020300D01*
X034180Y020300D01*
X034180Y020300D01*
X034180Y020300D01*
X034180Y020740D01*
X033885Y020740D01*
X033817Y020729D01*
X033751Y020708D01*
X033689Y020676D01*
X033633Y020636D01*
X033584Y020587D01*
X033499Y020430D02*
X031884Y020430D01*
X031900Y020271D02*
X033480Y020271D01*
X033480Y020265D02*
X033491Y020197D01*
X033512Y020131D01*
X033544Y020069D01*
X033584Y020013D01*
X033633Y019964D01*
X033689Y019924D01*
X033751Y019892D01*
X033817Y019871D01*
X033885Y019860D01*
X034180Y019860D01*
X034180Y020300D01*
X033480Y020300D01*
X033480Y020265D01*
X033522Y020113D02*
X031860Y020113D01*
X031745Y019954D02*
X033648Y019954D01*
X033751Y019708D02*
X033689Y019676D01*
X033633Y019636D01*
X033584Y019587D01*
X033544Y019531D01*
X033512Y019469D01*
X033491Y019403D01*
X033480Y019335D01*
X033480Y019300D01*
X034180Y019300D01*
X034180Y019300D01*
X034180Y019740D01*
X034475Y019740D01*
X034543Y019729D01*
X034609Y019708D01*
X034671Y019676D01*
X034727Y019636D01*
X034776Y019587D01*
X034816Y019531D01*
X034848Y019469D01*
X034869Y019403D01*
X034880Y019335D01*
X034880Y019300D01*
X034180Y019300D01*
X034180Y019300D01*
X034180Y018860D01*
X034475Y018860D01*
X034543Y018871D01*
X034609Y018892D01*
X034671Y018924D01*
X034727Y018964D01*
X034776Y019013D01*
X034816Y019069D01*
X034848Y019131D01*
X034869Y019197D01*
X034880Y019265D01*
X034880Y019300D01*
X034180Y019300D01*
X034180Y019300D01*
X034180Y019300D01*
X034180Y019740D01*
X033885Y019740D01*
X033817Y019729D01*
X033751Y019708D01*
X033635Y019637D02*
X031754Y019637D01*
X031701Y019690D02*
X031531Y019760D01*
X030828Y019760D01*
X030659Y019690D01*
X030530Y019561D01*
X030460Y019391D01*
X030460Y019208D01*
X030530Y019039D01*
X030659Y018910D01*
X030828Y018840D01*
X031531Y018840D01*
X031701Y018910D01*
X031830Y019039D01*
X031900Y019208D01*
X031900Y019391D01*
X031830Y019561D01*
X031701Y019690D01*
X031864Y019479D02*
X033517Y019479D01*
X033480Y019320D02*
X031900Y019320D01*
X031881Y019162D02*
X033502Y019162D01*
X033512Y019131D02*
X033544Y019069D01*
X033584Y019013D01*
X033633Y018964D01*
X033689Y018924D01*
X033751Y018892D01*
X033817Y018871D01*
X033885Y018860D01*
X034180Y018860D01*
X034180Y019300D01*
X033480Y019300D01*
X033480Y019265D01*
X033491Y019197D01*
X033512Y019131D01*
X033595Y019003D02*
X031794Y019003D01*
X031542Y018845D02*
X037205Y018845D01*
X037205Y019003D02*
X034765Y019003D01*
X034858Y019162D02*
X037205Y019162D01*
X037205Y019320D02*
X034880Y019320D01*
X034843Y019479D02*
X037205Y019479D01*
X037205Y019637D02*
X034725Y019637D01*
X034712Y019954D02*
X037205Y019954D01*
X037205Y019796D02*
X030130Y019796D01*
X030130Y019954D02*
X030615Y019954D01*
X030500Y020113D02*
X030130Y020113D01*
X030130Y020271D02*
X030460Y020271D01*
X030476Y020430D02*
X030130Y020430D01*
X030130Y020588D02*
X030557Y020588D01*
X030796Y020747D02*
X030130Y020747D01*
X030130Y020905D02*
X037205Y020905D01*
X037205Y020747D02*
X031564Y020747D01*
X030606Y019637D02*
X030130Y019637D01*
X030130Y019479D02*
X030496Y019479D01*
X030460Y019320D02*
X030130Y019320D01*
X030130Y019162D02*
X030479Y019162D01*
X030566Y019003D02*
X030130Y019003D01*
X030130Y018845D02*
X030818Y018845D01*
X030828Y018760D02*
X030659Y018690D01*
X030530Y018561D01*
X030460Y018391D01*
X030460Y018208D01*
X030530Y018039D01*
X030659Y017910D01*
X030828Y017840D01*
X031531Y017840D01*
X031701Y017910D01*
X031830Y018039D01*
X031900Y018208D01*
X031900Y018391D01*
X031830Y018561D01*
X031701Y018690D01*
X031531Y018760D01*
X030828Y018760D01*
X030655Y018686D02*
X030130Y018686D01*
X030130Y018528D02*
X030516Y018528D01*
X030460Y018369D02*
X030130Y018369D01*
X030130Y018211D02*
X030460Y018211D01*
X030525Y018052D02*
X030130Y018052D01*
X030130Y017894D02*
X030699Y017894D01*
X030768Y017735D02*
X030130Y017735D01*
X030130Y017577D02*
X030546Y017577D01*
X030530Y017561D02*
X030460Y017391D01*
X030460Y017208D01*
X030530Y017039D01*
X030659Y016910D01*
X030828Y016840D01*
X031531Y016840D01*
X031701Y016910D01*
X031830Y017039D01*
X031900Y017208D01*
X031900Y017391D01*
X031830Y017561D01*
X031701Y017690D01*
X031531Y017760D01*
X030828Y017760D01*
X030659Y017690D01*
X030530Y017561D01*
X030471Y017418D02*
X030130Y017418D01*
X030130Y017260D02*
X030460Y017260D01*
X030505Y017101D02*
X030130Y017101D01*
X030130Y016943D02*
X030627Y016943D01*
X030130Y016784D02*
X035031Y016784D01*
X035046Y016840D02*
X034976Y016577D01*
X034976Y016306D01*
X035046Y016044D01*
X035182Y015809D01*
X035374Y015617D01*
X035609Y015481D01*
X035871Y015411D01*
X036143Y015411D01*
X036405Y015481D01*
X036640Y015617D01*
X036832Y015809D01*
X036968Y016044D01*
X037038Y016306D01*
X037038Y016577D01*
X036968Y016840D01*
X036832Y017075D01*
X036640Y017267D01*
X036405Y017403D01*
X036143Y017473D01*
X035871Y017473D01*
X035609Y017403D01*
X035374Y017267D01*
X035182Y017075D01*
X035046Y016840D01*
X035105Y016943D02*
X034697Y016943D01*
X034671Y016924D02*
X034727Y016964D01*
X034776Y017013D01*
X034816Y017069D01*
X034848Y017131D01*
X034869Y017197D01*
X034880Y017265D01*
X034880Y017300D01*
X034880Y017335D01*
X034869Y017403D01*
X034848Y017469D01*
X034816Y017531D01*
X034776Y017587D01*
X034727Y017636D01*
X034671Y017676D01*
X034609Y017708D01*
X034543Y017729D01*
X034475Y017740D01*
X034180Y017740D01*
X034180Y017300D01*
X034180Y017300D01*
X034880Y017300D01*
X034180Y017300D01*
X034180Y017300D01*
X034180Y016860D01*
X034475Y016860D01*
X034543Y016871D01*
X034609Y016892D01*
X034671Y016924D01*
X034832Y017101D02*
X035208Y017101D01*
X035366Y017260D02*
X034879Y017260D01*
X034864Y017418D02*
X035666Y017418D01*
X036347Y017418D02*
X037205Y017418D01*
X037205Y017260D02*
X036647Y017260D01*
X036806Y017101D02*
X037205Y017101D01*
X037205Y016943D02*
X036908Y016943D01*
X036983Y016784D02*
X037205Y016784D01*
X037205Y016626D02*
X037025Y016626D01*
X037038Y016467D02*
X037205Y016467D01*
X037205Y016309D02*
X037038Y016309D01*
X036996Y016150D02*
X037205Y016150D01*
X037205Y015992D02*
X036938Y015992D01*
X036846Y015833D02*
X037205Y015833D01*
X037205Y015675D02*
X036698Y015675D01*
X036466Y015516D02*
X037205Y015516D01*
X037205Y015358D02*
X030130Y015358D01*
X030130Y015516D02*
X035548Y015516D01*
X035316Y015675D02*
X030130Y015675D01*
X030130Y015833D02*
X035168Y015833D01*
X035076Y015992D02*
X030130Y015992D01*
X030130Y016150D02*
X035017Y016150D01*
X034976Y016309D02*
X030130Y016309D01*
X030130Y016467D02*
X034976Y016467D01*
X034988Y016626D02*
X030130Y016626D01*
X029230Y016626D02*
X028117Y016626D01*
X028117Y016784D02*
X029230Y016784D01*
X029230Y016943D02*
X028117Y016943D01*
X028116Y017101D02*
X029230Y017101D01*
X029230Y017260D02*
X028068Y017260D01*
X027928Y017418D02*
X029230Y017418D01*
X029230Y017577D02*
X022080Y017577D01*
X022080Y017735D02*
X029230Y017735D01*
X029230Y017894D02*
X022080Y017894D01*
X022080Y017418D02*
X023394Y017418D01*
X023421Y017445D02*
X023292Y017317D01*
X023223Y017148D01*
X023223Y016452D01*
X023292Y016283D01*
X023421Y016155D01*
X023589Y016085D01*
X023771Y016085D01*
X023939Y016155D01*
X024068Y016283D01*
X024137Y016452D01*
X024137Y017148D01*
X024068Y017317D01*
X023939Y017445D01*
X023771Y017515D01*
X023589Y017515D01*
X023421Y017445D01*
X023269Y017260D02*
X022080Y017260D01*
X022107Y017101D02*
X023223Y017101D01*
X023223Y016943D02*
X022178Y016943D01*
X022195Y016784D02*
X023223Y016784D01*
X023223Y016626D02*
X022165Y016626D01*
X022075Y016467D02*
X023223Y016467D01*
X023282Y016309D02*
X021839Y016309D01*
X022030Y016150D02*
X023432Y016150D01*
X023928Y016150D02*
X024432Y016150D01*
X024282Y016309D02*
X024078Y016309D01*
X024137Y016467D02*
X024223Y016467D01*
X024223Y016626D02*
X024137Y016626D01*
X024137Y016784D02*
X024223Y016784D01*
X024223Y016943D02*
X024137Y016943D01*
X024137Y017101D02*
X024223Y017101D01*
X024269Y017260D02*
X024091Y017260D01*
X023966Y017418D02*
X024394Y017418D01*
X024620Y018845D02*
X017026Y018845D01*
X017145Y019003D02*
X024756Y019003D01*
X024892Y019162D02*
X017264Y019162D01*
X017383Y019320D02*
X025027Y019320D01*
X027091Y017260D02*
X027292Y017260D01*
X027244Y017101D02*
X027137Y017101D01*
X027137Y016943D02*
X027243Y016943D01*
X027243Y016784D02*
X027137Y016784D01*
X027137Y016626D02*
X027243Y016626D01*
X027249Y016467D02*
X027137Y016467D01*
X027078Y016309D02*
X027309Y016309D01*
X027487Y016150D02*
X026928Y016150D01*
X028051Y016309D02*
X029230Y016309D01*
X029230Y016467D02*
X028111Y016467D01*
X029230Y015199D02*
X018571Y015199D01*
X018486Y015041D02*
X029155Y015041D01*
X028838Y014882D02*
X018328Y014882D01*
X018169Y014724D02*
X022521Y014724D01*
X022204Y014565D02*
X018011Y014565D01*
X017852Y014407D02*
X021887Y014407D01*
X021570Y014248D02*
X017694Y014248D01*
X017630Y014090D02*
X021253Y014090D01*
X020936Y013931D02*
X017630Y013931D01*
X017630Y013773D02*
X020619Y013773D01*
X021363Y013139D02*
X037205Y013139D01*
X037205Y013297D02*
X021680Y013297D01*
X021997Y013456D02*
X037205Y013456D01*
X037205Y013614D02*
X022314Y013614D01*
X022631Y013773D02*
X037205Y013773D01*
X037205Y013931D02*
X028948Y013931D01*
X029265Y014090D02*
X037205Y014090D01*
X037205Y014248D02*
X029582Y014248D01*
X029906Y014407D02*
X037205Y014407D01*
X037205Y014565D02*
X030072Y014565D01*
X030130Y014724D02*
X037205Y014724D01*
X037205Y014882D02*
X030130Y014882D01*
X030130Y015041D02*
X037205Y015041D01*
X037205Y015199D02*
X030130Y015199D01*
X031733Y016943D02*
X033663Y016943D01*
X033689Y016924D02*
X033751Y016892D01*
X033817Y016871D01*
X033885Y016860D01*
X034180Y016860D01*
X034180Y017300D01*
X034180Y017300D01*
X034180Y017300D01*
X033480Y017300D01*
X033480Y017335D01*
X033491Y017403D01*
X033512Y017469D01*
X033544Y017531D01*
X033584Y017587D01*
X033633Y017636D01*
X033689Y017676D01*
X033751Y017708D01*
X033817Y017729D01*
X033885Y017740D01*
X034180Y017740D01*
X034180Y017300D01*
X033480Y017300D01*
X033480Y017265D01*
X033491Y017197D01*
X033512Y017131D01*
X033544Y017069D01*
X033584Y017013D01*
X033633Y016964D01*
X033689Y016924D01*
X033528Y017101D02*
X031855Y017101D01*
X031900Y017260D02*
X033481Y017260D01*
X033496Y017418D02*
X031889Y017418D01*
X031814Y017577D02*
X033577Y017577D01*
X033854Y017735D02*
X031592Y017735D01*
X031661Y017894D02*
X033749Y017894D01*
X033751Y017892D02*
X033817Y017871D01*
X033885Y017860D01*
X034180Y017860D01*
X034475Y017860D01*
X034543Y017871D01*
X034609Y017892D01*
X034671Y017924D01*
X034727Y017964D01*
X034776Y018013D01*
X034816Y018069D01*
X034848Y018131D01*
X034869Y018197D01*
X034880Y018265D01*
X034880Y018300D01*
X034880Y018335D01*
X034869Y018403D01*
X034848Y018469D01*
X034816Y018531D01*
X034776Y018587D01*
X034727Y018636D01*
X034671Y018676D01*
X034609Y018708D01*
X034543Y018729D01*
X034475Y018740D01*
X034180Y018740D01*
X034180Y018300D01*
X034180Y018300D01*
X034880Y018300D01*
X034180Y018300D01*
X034180Y018300D01*
X034180Y017860D01*
X034180Y018300D01*
X034180Y018300D01*
X034180Y018300D01*
X033480Y018300D01*
X033480Y018335D01*
X033491Y018403D01*
X033512Y018469D01*
X033544Y018531D01*
X033584Y018587D01*
X033633Y018636D01*
X033689Y018676D01*
X033751Y018708D01*
X033817Y018729D01*
X033885Y018740D01*
X034180Y018740D01*
X034180Y018300D01*
X033480Y018300D01*
X033480Y018265D01*
X033491Y018197D01*
X033512Y018131D01*
X033544Y018069D01*
X033584Y018013D01*
X033633Y017964D01*
X033689Y017924D01*
X033751Y017892D01*
X033556Y018052D02*
X031835Y018052D01*
X031900Y018211D02*
X033489Y018211D01*
X033485Y018369D02*
X031900Y018369D01*
X031844Y018528D02*
X033542Y018528D01*
X033708Y018686D02*
X031705Y018686D01*
X034180Y018686D02*
X034180Y018686D01*
X034180Y018528D02*
X034180Y018528D01*
X034180Y018369D02*
X034180Y018369D01*
X034180Y018211D02*
X034180Y018211D01*
X034180Y018052D02*
X034180Y018052D01*
X034180Y017894D02*
X034180Y017894D01*
X034180Y017735D02*
X034180Y017735D01*
X034180Y017577D02*
X034180Y017577D01*
X034180Y017418D02*
X034180Y017418D01*
X034180Y017260D02*
X034180Y017260D01*
X034180Y017101D02*
X034180Y017101D01*
X034180Y016943D02*
X034180Y016943D01*
X034783Y017577D02*
X037205Y017577D01*
X037205Y017735D02*
X034506Y017735D01*
X034611Y017894D02*
X037205Y017894D01*
X037205Y018052D02*
X034804Y018052D01*
X034871Y018211D02*
X037205Y018211D01*
X037205Y018369D02*
X034875Y018369D01*
X034818Y018528D02*
X037205Y018528D01*
X037205Y018686D02*
X034652Y018686D01*
X034180Y019003D02*
X034180Y019003D01*
X034180Y019162D02*
X034180Y019162D01*
X034180Y019320D02*
X034180Y019320D01*
X034180Y019479D02*
X034180Y019479D01*
X034180Y019637D02*
X034180Y019637D01*
X034180Y019954D02*
X034180Y019954D01*
X034180Y020113D02*
X034180Y020113D01*
X034180Y020271D02*
X034180Y020271D01*
X034180Y020430D02*
X034180Y020430D01*
X034180Y020588D02*
X034180Y020588D01*
X034774Y020588D02*
X037205Y020588D01*
X037205Y020430D02*
X034861Y020430D01*
X034880Y020271D02*
X037205Y020271D01*
X037205Y020113D02*
X034838Y020113D01*
X037205Y021064D02*
X030130Y021064D01*
X030238Y021222D02*
X037205Y021222D01*
X036230Y024392D02*
X032224Y024392D01*
X032066Y024551D02*
X036230Y024551D01*
X036230Y024709D02*
X031907Y024709D01*
X031749Y024868D02*
X033048Y024868D01*
X032818Y025026D02*
X031590Y025026D01*
X031432Y025185D02*
X032659Y025185D01*
X032501Y025343D02*
X031273Y025343D01*
X031115Y025502D02*
X032342Y025502D01*
X032184Y025660D02*
X030956Y025660D01*
X030798Y025819D02*
X032025Y025819D01*
X031867Y025977D02*
X030639Y025977D01*
X030481Y026136D02*
X031708Y026136D01*
X031550Y026294D02*
X030322Y026294D01*
X030164Y026453D02*
X031391Y026453D01*
X031233Y026611D02*
X030005Y026611D01*
X029847Y026770D02*
X031074Y026770D01*
X030916Y026928D02*
X029688Y026928D01*
X029561Y027055D02*
X029561Y027055D01*
X029530Y027087D02*
X030757Y027087D01*
X030599Y027245D02*
X029281Y027245D01*
X029050Y026294D02*
X025810Y026294D01*
X025652Y026136D02*
X029208Y026136D01*
X029367Y025977D02*
X025493Y025977D01*
X025335Y025819D02*
X029525Y025819D01*
X029684Y025660D02*
X025176Y025660D01*
X025018Y025502D02*
X029842Y025502D01*
X030001Y025343D02*
X024859Y025343D01*
X024701Y025185D02*
X030159Y025185D01*
X030318Y025026D02*
X024542Y025026D01*
X024384Y024868D02*
X030476Y024868D01*
X030635Y024709D02*
X024225Y024709D01*
X024067Y024551D02*
X030793Y024551D01*
X030952Y024392D02*
X023908Y024392D01*
X023750Y024234D02*
X031110Y024234D01*
X031269Y024075D02*
X023591Y024075D01*
X023433Y023917D02*
X031427Y023917D01*
X032254Y022649D02*
X028137Y022649D01*
X028137Y022490D02*
X032135Y022490D01*
X032016Y022332D02*
X028088Y022332D01*
X028987Y023758D02*
X023274Y023758D01*
X022371Y028355D02*
X032080Y028355D01*
X031831Y028513D02*
X022529Y028513D01*
X022688Y028672D02*
X031672Y028672D01*
X031514Y028830D02*
X022846Y028830D01*
X023005Y028989D02*
X031355Y028989D01*
X031197Y029147D02*
X023163Y029147D01*
X023322Y029306D02*
X031038Y029306D01*
X030900Y028196D02*
X033426Y028196D01*
X033489Y028260D02*
X033220Y027991D01*
X033220Y027609D01*
X033489Y027340D01*
X033871Y027340D01*
X034140Y027609D01*
X034140Y027991D01*
X033871Y028260D01*
X033489Y028260D01*
X033267Y028038D02*
X031079Y028038D01*
X031237Y027879D02*
X033220Y027879D01*
X033220Y027721D02*
X031396Y027721D01*
X031554Y027562D02*
X033267Y027562D01*
X033426Y027404D02*
X031713Y027404D01*
X031871Y027245D02*
X034730Y027245D01*
X034730Y027087D02*
X032030Y027087D01*
X032188Y026928D02*
X034730Y026928D01*
X034730Y026770D02*
X032347Y026770D01*
X032505Y026611D02*
X034730Y026611D01*
X034730Y026453D02*
X032664Y026453D01*
X032822Y026294D02*
X034730Y026294D01*
X034730Y026136D02*
X032981Y026136D01*
X033139Y025977D02*
X034730Y025977D01*
X034730Y025819D02*
X033298Y025819D01*
X033934Y027404D02*
X034730Y027404D01*
X034730Y027562D02*
X034093Y027562D01*
X034140Y027721D02*
X034720Y027721D01*
X034720Y027879D02*
X034140Y027879D01*
X034093Y028038D02*
X034767Y028038D01*
X034926Y028196D02*
X033934Y028196D01*
X035434Y028196D02*
X036148Y028196D01*
X036230Y028038D02*
X035593Y028038D01*
X035640Y027879D02*
X036230Y027879D01*
X036230Y027721D02*
X035640Y027721D01*
X035630Y027562D02*
X036230Y027562D01*
X036230Y027404D02*
X035630Y027404D01*
X035630Y027245D02*
X036230Y027245D01*
X036230Y027087D02*
X035630Y027087D01*
X035630Y026928D02*
X036230Y026928D01*
X036230Y026770D02*
X035630Y026770D01*
X035630Y026611D02*
X036230Y026611D01*
X036230Y026453D02*
X035630Y026453D01*
X035630Y026294D02*
X036230Y026294D01*
X036230Y026136D02*
X035630Y026136D01*
X035630Y025977D02*
X036230Y025977D01*
X036230Y025819D02*
X035630Y025819D01*
X035630Y025660D02*
X036230Y025660D01*
X036230Y025502D02*
X035630Y025502D01*
X035630Y025343D02*
X036230Y025343D01*
X036230Y025185D02*
X035619Y025185D01*
X035542Y025026D02*
X036230Y025026D01*
X036230Y024868D02*
X035312Y024868D01*
X037205Y012980D02*
X021046Y012980D01*
X019838Y012822D02*
X037205Y012822D01*
X037205Y012663D02*
X019679Y012663D01*
X019521Y012505D02*
X029519Y012505D01*
X029387Y012346D02*
X019362Y012346D01*
X019204Y012188D02*
X029331Y012188D01*
X029331Y012029D02*
X026451Y012029D01*
X026463Y012024D02*
X026279Y012100D01*
X026081Y012100D01*
X025897Y012024D01*
X025756Y011883D01*
X025680Y011699D01*
X025604Y011883D01*
X025463Y012024D01*
X025279Y012100D01*
X025081Y012100D01*
X024897Y012024D01*
X024756Y011883D01*
X024680Y011699D01*
X024680Y010901D01*
X024756Y010717D01*
X024897Y010576D01*
X025081Y010500D01*
X025279Y010500D01*
X025463Y010576D01*
X025604Y010717D01*
X025680Y010901D01*
X025680Y011699D01*
X025680Y010901D01*
X025756Y010717D01*
X025897Y010576D01*
X026081Y010500D01*
X026279Y010500D01*
X026463Y010576D01*
X026604Y010717D01*
X026680Y010901D01*
X026680Y011699D01*
X026604Y011883D01*
X026463Y012024D01*
X026609Y011871D02*
X029331Y011871D01*
X029331Y011712D02*
X026675Y011712D01*
X026680Y011554D02*
X029331Y011554D01*
X029331Y011395D02*
X026680Y011395D01*
X026680Y011237D02*
X029331Y011237D01*
X029331Y011078D02*
X026680Y011078D01*
X026680Y010920D02*
X029331Y010920D01*
X029331Y010761D02*
X026622Y010761D01*
X026490Y010603D02*
X029331Y010603D01*
X029331Y010444D02*
X020140Y010444D01*
X020140Y010286D02*
X022489Y010286D01*
X022493Y010287D02*
X022159Y010149D01*
X021904Y009893D01*
X021765Y009559D01*
X021765Y009198D01*
X021904Y008864D01*
X022159Y008608D01*
X022493Y008470D01*
X022855Y008470D01*
X023189Y008608D01*
X023444Y008864D01*
X023583Y009198D01*
X023583Y009559D01*
X023444Y009893D01*
X023189Y010149D01*
X022855Y010287D01*
X022493Y010287D01*
X022859Y010286D02*
X028001Y010286D01*
X028005Y010287D02*
X027671Y010149D01*
X027416Y009893D01*
X027277Y009559D01*
X027277Y009198D01*
X027416Y008864D01*
X027671Y008608D01*
X028005Y008470D01*
X028367Y008470D01*
X028701Y008608D01*
X028956Y008864D01*
X029095Y009198D01*
X029095Y009559D01*
X028956Y009893D01*
X028701Y010149D01*
X028367Y010287D01*
X028005Y010287D01*
X028371Y010286D02*
X029331Y010286D01*
X029331Y010127D02*
X028723Y010127D01*
X028881Y009969D02*
X029331Y009969D01*
X029331Y009810D02*
X028991Y009810D01*
X029056Y009652D02*
X029331Y009652D01*
X029331Y009493D02*
X029095Y009493D01*
X029095Y009335D02*
X029331Y009335D01*
X029331Y009176D02*
X029085Y009176D01*
X029020Y009018D02*
X029331Y009018D01*
X029331Y008859D02*
X028951Y008859D01*
X028793Y008701D02*
X029331Y008701D01*
X029331Y008542D02*
X028540Y008542D01*
X027831Y008542D02*
X023029Y008542D01*
X023281Y008701D02*
X027579Y008701D01*
X027421Y008859D02*
X023439Y008859D01*
X023508Y009018D02*
X027352Y009018D01*
X027286Y009176D02*
X023574Y009176D01*
X023583Y009335D02*
X027277Y009335D01*
X027277Y009493D02*
X023583Y009493D01*
X023545Y009652D02*
X027315Y009652D01*
X027381Y009810D02*
X023479Y009810D01*
X023369Y009969D02*
X027491Y009969D01*
X027649Y010127D02*
X023211Y010127D01*
X022137Y010127D02*
X020140Y010127D01*
X019999Y009969D02*
X021979Y009969D01*
X021869Y009810D02*
X016491Y009810D01*
X016456Y009893D02*
X016201Y010149D01*
X015867Y010287D01*
X015505Y010287D01*
X015171Y010149D01*
X014916Y009893D01*
X014777Y009559D01*
X014777Y009198D01*
X014916Y008864D01*
X015171Y008608D01*
X015505Y008470D01*
X015867Y008470D01*
X016201Y008608D01*
X016456Y008864D01*
X016595Y009198D01*
X016595Y009559D01*
X016456Y009893D01*
X016381Y009969D02*
X017861Y009969D01*
X017720Y010127D02*
X016223Y010127D01*
X015871Y010286D02*
X017720Y010286D01*
X017720Y010444D02*
X017460Y010444D01*
X017585Y010603D02*
X017730Y010603D01*
X017730Y010761D02*
X017630Y010761D01*
X017630Y010920D02*
X017730Y010920D01*
X017730Y011078D02*
X017630Y011078D01*
X017630Y011237D02*
X017730Y011237D01*
X017730Y011395D02*
X017630Y011395D01*
X017630Y011554D02*
X017730Y011554D01*
X017730Y011712D02*
X017630Y011712D01*
X017630Y011871D02*
X017730Y011871D01*
X017788Y012029D02*
X017630Y012029D01*
X017630Y012188D02*
X017931Y012188D01*
X018090Y012346D02*
X017630Y012346D01*
X017630Y012505D02*
X018248Y012505D01*
X018407Y012663D02*
X017630Y012663D01*
X017630Y012822D02*
X018565Y012822D01*
X018724Y012980D02*
X017630Y012980D01*
X017630Y013139D02*
X018882Y013139D01*
X019041Y013297D02*
X017630Y013297D01*
X017630Y013456D02*
X019199Y013456D01*
X019358Y013614D02*
X017630Y013614D01*
X016730Y013614D02*
X016630Y013614D01*
X016630Y013456D02*
X016730Y013456D01*
X016730Y013297D02*
X016630Y013297D01*
X016630Y013139D02*
X016730Y013139D01*
X016730Y012980D02*
X016630Y012980D01*
X016630Y012822D02*
X016730Y012822D01*
X016730Y012663D02*
X016630Y012663D01*
X016630Y012505D02*
X016730Y012505D01*
X016730Y012346D02*
X016630Y012346D01*
X016620Y012188D02*
X016730Y012188D01*
X016730Y012029D02*
X016545Y012029D01*
X016730Y011871D02*
X016319Y011871D01*
X016730Y011712D02*
X011228Y011712D01*
X011130Y011554D02*
X011968Y011554D01*
X011768Y011395D02*
X011130Y011395D01*
X011130Y011237D02*
X011695Y011237D01*
X011680Y011078D02*
X011075Y011078D01*
X010936Y010920D02*
X011680Y010920D01*
X011409Y012822D02*
X011951Y012822D01*
X011761Y012980D02*
X011599Y012980D01*
X011668Y013139D02*
X011692Y013139D01*
X011680Y013168D02*
X011680Y013967D01*
X011756Y014151D01*
X011897Y014292D01*
X012038Y014350D01*
X011322Y014350D01*
X011463Y014292D01*
X011604Y014151D01*
X011680Y013967D01*
X011680Y013168D01*
X011680Y013297D02*
X011680Y013297D01*
X011680Y013456D02*
X011680Y013456D01*
X011680Y013614D02*
X011680Y013614D01*
X011680Y013773D02*
X011680Y013773D01*
X011680Y013931D02*
X011680Y013931D01*
X011629Y014090D02*
X011731Y014090D01*
X011853Y014248D02*
X011507Y014248D01*
X011038Y014350D02*
X010897Y014292D01*
X010756Y014151D01*
X010680Y013967D01*
X010680Y013168D01*
X010680Y013967D01*
X010604Y014151D01*
X010463Y014292D01*
X010322Y014350D01*
X011038Y014350D01*
X010853Y014248D02*
X010507Y014248D01*
X010629Y014090D02*
X010731Y014090D01*
X010680Y013931D02*
X010680Y013931D01*
X010680Y013773D02*
X010680Y013773D01*
X010680Y013614D02*
X010680Y013614D01*
X010680Y013456D02*
X010680Y013456D01*
X010680Y013297D02*
X010680Y013297D01*
X010668Y013139D02*
X010692Y013139D01*
X010761Y012980D02*
X010599Y012980D01*
X010409Y012822D02*
X010951Y012822D01*
X012409Y012822D02*
X012951Y012822D01*
X012761Y012980D02*
X012599Y012980D01*
X012668Y013139D02*
X012692Y013139D01*
X012680Y013168D02*
X012680Y013967D01*
X012756Y014151D01*
X012897Y014292D01*
X013038Y014350D01*
X012322Y014350D01*
X012463Y014292D01*
X012604Y014151D01*
X012680Y013967D01*
X012680Y013168D01*
X012680Y013297D02*
X012680Y013297D01*
X012680Y013456D02*
X012680Y013456D01*
X012680Y013614D02*
X012680Y013614D01*
X012680Y013773D02*
X012680Y013773D01*
X012680Y013931D02*
X012680Y013931D01*
X012629Y014090D02*
X012731Y014090D01*
X012853Y014248D02*
X012507Y014248D01*
X013322Y014350D02*
X014038Y014350D01*
X013897Y014292D01*
X013756Y014151D01*
X013680Y013967D01*
X013680Y013168D01*
X013680Y013967D01*
X013604Y014151D01*
X013463Y014292D01*
X013322Y014350D01*
X013507Y014248D02*
X013853Y014248D01*
X013731Y014090D02*
X013629Y014090D01*
X013680Y013931D02*
X013680Y013931D01*
X013680Y013773D02*
X013680Y013773D01*
X013680Y013614D02*
X013680Y013614D01*
X013680Y013456D02*
X013680Y013456D01*
X013680Y013297D02*
X013680Y013297D01*
X013668Y013139D02*
X013692Y013139D01*
X013761Y012980D02*
X013599Y012980D01*
X013409Y012822D02*
X013951Y012822D01*
X014409Y012822D02*
X014951Y012822D01*
X014761Y012980D02*
X014599Y012980D01*
X014668Y013139D02*
X014692Y013139D01*
X014680Y013168D02*
X014680Y013967D01*
X014756Y014151D01*
X014897Y014292D01*
X015038Y014350D01*
X014322Y014350D01*
X014463Y014292D01*
X014604Y014151D01*
X014680Y013967D01*
X014680Y013168D01*
X014680Y013297D02*
X014680Y013297D01*
X014680Y013456D02*
X014680Y013456D01*
X014680Y013614D02*
X014680Y013614D01*
X014680Y013773D02*
X014680Y013773D01*
X014680Y013931D02*
X014680Y013931D01*
X014629Y014090D02*
X014731Y014090D01*
X014853Y014248D02*
X014507Y014248D01*
X015507Y014248D02*
X015596Y014248D01*
X015629Y014090D02*
X015730Y014090D01*
X015730Y013931D02*
X015680Y013931D01*
X015680Y013773D02*
X015730Y013773D01*
X015730Y013614D02*
X015680Y013614D01*
X015680Y013456D02*
X015730Y013456D01*
X015730Y013297D02*
X015680Y013297D01*
X015668Y013139D02*
X015730Y013139D01*
X015730Y012980D02*
X015599Y012980D01*
X015730Y012822D02*
X015409Y012822D01*
X016630Y013773D02*
X016730Y013773D01*
X016730Y013931D02*
X016630Y013931D01*
X016630Y014090D02*
X016730Y014090D01*
X016730Y014248D02*
X016630Y014248D01*
X016623Y014407D02*
X016737Y014407D01*
X016809Y014565D02*
X016551Y014565D01*
X016393Y014724D02*
X017027Y014724D01*
X017196Y014882D02*
X016234Y014882D01*
X016076Y015041D02*
X017355Y015041D01*
X017513Y015199D02*
X015893Y015199D01*
X015982Y016150D02*
X016378Y016150D01*
X016410Y016118D02*
X016585Y016046D01*
X016775Y016046D01*
X016950Y016118D01*
X017085Y016253D01*
X017157Y016428D01*
X017157Y017172D01*
X017085Y017347D01*
X016950Y017482D01*
X016775Y017554D01*
X016585Y017554D01*
X016410Y017482D01*
X016275Y017347D01*
X016203Y017172D01*
X016203Y016428D01*
X016275Y016253D01*
X016410Y016118D01*
X016252Y016309D02*
X016108Y016309D01*
X016157Y016467D02*
X016203Y016467D01*
X016203Y016626D02*
X016157Y016626D01*
X016157Y016784D02*
X016203Y016784D01*
X016203Y016943D02*
X016157Y016943D01*
X016157Y017101D02*
X016203Y017101D01*
X016239Y017260D02*
X016130Y017260D01*
X016130Y017418D02*
X016346Y017418D01*
X017014Y017418D02*
X017374Y017418D01*
X017260Y017260D02*
X017121Y017260D01*
X017157Y017101D02*
X017223Y017101D01*
X017223Y016943D02*
X017157Y016943D01*
X017157Y016784D02*
X017223Y016784D01*
X017223Y016626D02*
X017157Y016626D01*
X017157Y016467D02*
X017226Y016467D01*
X017276Y016309D02*
X017108Y016309D01*
X016982Y016150D02*
X017415Y016150D01*
X017671Y016150D02*
X017689Y016150D01*
X017689Y016309D02*
X017671Y016309D01*
X017671Y016467D02*
X017689Y016467D01*
X017689Y016626D02*
X017671Y016626D01*
X017671Y016784D02*
X017689Y016784D01*
X017689Y016943D02*
X017671Y016943D01*
X017671Y017101D02*
X017689Y017101D01*
X017689Y017260D02*
X017671Y017260D01*
X017671Y017418D02*
X017689Y017418D01*
X017936Y015833D02*
X009130Y015833D01*
X009130Y015675D02*
X017883Y015675D01*
X015378Y016150D02*
X014982Y016150D01*
X014950Y016118D02*
X015085Y016253D01*
X015157Y016428D01*
X015157Y017172D01*
X015085Y017347D01*
X014950Y017482D01*
X014775Y017554D01*
X014585Y017554D01*
X014410Y017482D01*
X014275Y017347D01*
X014203Y017172D01*
X014203Y016428D01*
X014275Y016253D01*
X014410Y016118D01*
X014585Y016046D01*
X014775Y016046D01*
X014950Y016118D01*
X015108Y016309D02*
X015252Y016309D01*
X015203Y016467D02*
X015157Y016467D01*
X015157Y016626D02*
X015203Y016626D01*
X015203Y016784D02*
X015157Y016784D01*
X015157Y016943D02*
X015203Y016943D01*
X015203Y017101D02*
X015157Y017101D01*
X015121Y017260D02*
X015230Y017260D01*
X015230Y017418D02*
X015014Y017418D01*
X015230Y017577D02*
X010130Y017577D01*
X010130Y017418D02*
X010346Y017418D01*
X010410Y017482D02*
X010275Y017347D01*
X010203Y017172D01*
X010203Y016428D01*
X010275Y016253D01*
X010410Y016118D01*
X010585Y016046D01*
X010775Y016046D01*
X010950Y016118D01*
X011085Y016253D01*
X011157Y016428D01*
X011157Y017172D01*
X011085Y017347D01*
X010950Y017482D01*
X010775Y017554D01*
X010585Y017554D01*
X010410Y017482D01*
X010239Y017260D02*
X010130Y017260D01*
X010157Y017101D02*
X010203Y017101D01*
X010203Y016943D02*
X010157Y016943D01*
X010157Y016784D02*
X010203Y016784D01*
X010203Y016626D02*
X010157Y016626D01*
X010157Y016467D02*
X010203Y016467D01*
X010252Y016309D02*
X010108Y016309D01*
X009982Y016150D02*
X010378Y016150D01*
X010982Y016150D02*
X011378Y016150D01*
X011410Y016118D02*
X011585Y016046D01*
X011775Y016046D01*
X011950Y016118D01*
X012085Y016253D01*
X012157Y016428D01*
X012157Y017172D01*
X012085Y017347D01*
X011950Y017482D01*
X011775Y017554D01*
X011585Y017554D01*
X011410Y017482D01*
X011275Y017347D01*
X011203Y017172D01*
X011203Y016428D01*
X011275Y016253D01*
X011410Y016118D01*
X011252Y016309D02*
X011108Y016309D01*
X011157Y016467D02*
X011203Y016467D01*
X011203Y016626D02*
X011157Y016626D01*
X011157Y016784D02*
X011203Y016784D01*
X011203Y016943D02*
X011157Y016943D01*
X011157Y017101D02*
X011203Y017101D01*
X011239Y017260D02*
X011121Y017260D01*
X011014Y017418D02*
X011346Y017418D01*
X012014Y017418D02*
X012346Y017418D01*
X012410Y017482D02*
X012275Y017347D01*
X012203Y017172D01*
X012203Y016428D01*
X012275Y016253D01*
X012410Y016118D01*
X012585Y016046D01*
X012775Y016046D01*
X012950Y016118D01*
X013085Y016253D01*
X013157Y016428D01*
X013157Y017172D01*
X013085Y017347D01*
X012950Y017482D01*
X012775Y017554D01*
X012585Y017554D01*
X012410Y017482D01*
X012239Y017260D02*
X012121Y017260D01*
X012157Y017101D02*
X012203Y017101D01*
X012203Y016943D02*
X012157Y016943D01*
X012157Y016784D02*
X012203Y016784D01*
X012203Y016626D02*
X012157Y016626D01*
X012157Y016467D02*
X012203Y016467D01*
X012252Y016309D02*
X012108Y016309D01*
X011982Y016150D02*
X012378Y016150D01*
X012982Y016150D02*
X013378Y016150D01*
X013410Y016118D02*
X013585Y016046D01*
X013775Y016046D01*
X013950Y016118D01*
X014085Y016253D01*
X014157Y016428D01*
X014157Y017172D01*
X014085Y017347D01*
X013950Y017482D01*
X013775Y017554D01*
X013585Y017554D01*
X013410Y017482D01*
X013275Y017347D01*
X013203Y017172D01*
X013203Y016428D01*
X013275Y016253D01*
X013410Y016118D01*
X013252Y016309D02*
X013108Y016309D01*
X013157Y016467D02*
X013203Y016467D01*
X013203Y016626D02*
X013157Y016626D01*
X013157Y016784D02*
X013203Y016784D01*
X013203Y016943D02*
X013157Y016943D01*
X013157Y017101D02*
X013203Y017101D01*
X013239Y017260D02*
X013121Y017260D01*
X013014Y017418D02*
X013346Y017418D01*
X014014Y017418D02*
X014346Y017418D01*
X014239Y017260D02*
X014121Y017260D01*
X014157Y017101D02*
X014203Y017101D01*
X014203Y016943D02*
X014157Y016943D01*
X014157Y016784D02*
X014203Y016784D01*
X014203Y016626D02*
X014157Y016626D01*
X014157Y016467D02*
X014203Y016467D01*
X014252Y016309D02*
X014108Y016309D01*
X013982Y016150D02*
X014378Y016150D01*
X015230Y017735D02*
X010251Y017735D01*
X010410Y017894D02*
X015232Y017894D01*
X015297Y018052D02*
X010568Y018052D01*
X010727Y018211D02*
X015425Y018211D01*
X015544Y018369D02*
X010885Y018369D01*
X011044Y018528D02*
X015663Y018528D01*
X015782Y018686D02*
X011202Y018686D01*
X011361Y018845D02*
X015901Y018845D01*
X016020Y019003D02*
X011519Y019003D01*
X011678Y019162D02*
X016139Y019162D01*
X016258Y019320D02*
X011836Y019320D01*
X011995Y019479D02*
X016376Y019479D01*
X016495Y019637D02*
X012153Y019637D01*
X012312Y019796D02*
X016614Y019796D01*
X016733Y019954D02*
X012470Y019954D01*
X012629Y020113D02*
X016852Y020113D01*
X015689Y022173D02*
X015671Y022173D01*
X015671Y022332D02*
X015689Y022332D01*
X015689Y022490D02*
X015671Y022490D01*
X015671Y022649D02*
X015689Y022649D01*
X015671Y022966D02*
X015689Y022966D01*
X015689Y023124D02*
X015671Y023124D01*
X015671Y023283D02*
X015689Y023283D01*
X015689Y023441D02*
X015671Y023441D01*
X015403Y023441D02*
X014991Y023441D01*
X015111Y023283D02*
X015272Y023283D01*
X015225Y023124D02*
X015157Y023124D01*
X015157Y022966D02*
X015223Y022966D01*
X015957Y023441D02*
X016369Y023441D01*
X016249Y023283D02*
X016088Y023283D01*
X016135Y023124D02*
X016203Y023124D01*
X016203Y022966D02*
X016137Y022966D01*
X012369Y023441D02*
X011991Y023441D01*
X011950Y023482D02*
X011775Y023554D01*
X011585Y023554D01*
X011410Y023482D01*
X011275Y023347D01*
X011203Y023172D01*
X011203Y022428D01*
X011275Y022253D01*
X011410Y022118D01*
X011585Y022046D01*
X011775Y022046D01*
X011950Y022118D01*
X012085Y022253D01*
X012157Y022428D01*
X012157Y023172D01*
X012085Y023347D01*
X011950Y023482D01*
X012111Y023283D02*
X012249Y023283D01*
X012203Y023124D02*
X012157Y023124D01*
X012157Y022966D02*
X012203Y022966D01*
X012203Y022807D02*
X012157Y022807D01*
X012157Y022649D02*
X012203Y022649D01*
X012203Y022490D02*
X012157Y022490D01*
X012117Y022332D02*
X012243Y022332D01*
X012355Y022173D02*
X012005Y022173D01*
X011355Y022173D02*
X011005Y022173D01*
X010950Y022118D02*
X011085Y022253D01*
X011157Y022428D01*
X011157Y023172D01*
X011085Y023347D01*
X010950Y023482D01*
X010775Y023554D01*
X010585Y023554D01*
X010410Y023482D01*
X010275Y023347D01*
X010203Y023172D01*
X010203Y022428D01*
X010275Y022253D01*
X010410Y022118D01*
X010585Y022046D01*
X010775Y022046D01*
X010950Y022118D01*
X011117Y022332D02*
X011243Y022332D01*
X011203Y022490D02*
X011157Y022490D01*
X011157Y022649D02*
X011203Y022649D01*
X011203Y022807D02*
X011157Y022807D01*
X011157Y022966D02*
X011203Y022966D01*
X011203Y023124D02*
X011157Y023124D01*
X011111Y023283D02*
X011249Y023283D01*
X011369Y023441D02*
X010991Y023441D01*
X010369Y023441D02*
X009991Y023441D01*
X009950Y023482D02*
X009775Y023554D01*
X009585Y023554D01*
X009410Y023482D01*
X009275Y023347D01*
X009203Y023172D01*
X009203Y022428D01*
X009275Y022253D01*
X009410Y022118D01*
X009585Y022046D01*
X009775Y022046D01*
X009950Y022118D01*
X010085Y022253D01*
X010157Y022428D01*
X010157Y023172D01*
X010085Y023347D01*
X009950Y023482D01*
X010111Y023283D02*
X010249Y023283D01*
X010203Y023124D02*
X010157Y023124D01*
X010157Y022966D02*
X010203Y022966D01*
X010203Y022807D02*
X010157Y022807D01*
X010157Y022649D02*
X010203Y022649D01*
X010203Y022490D02*
X010157Y022490D01*
X010117Y022332D02*
X010243Y022332D01*
X010355Y022173D02*
X010005Y022173D01*
X009355Y022173D02*
X009005Y022173D01*
X008950Y022118D02*
X009085Y022253D01*
X009157Y022428D01*
X009157Y023172D01*
X009085Y023347D01*
X008950Y023482D01*
X008775Y023554D01*
X008585Y023554D01*
X008410Y023482D01*
X008275Y023347D01*
X008203Y023172D01*
X008203Y022428D01*
X008275Y022253D01*
X008410Y022118D01*
X008585Y022046D01*
X008775Y022046D01*
X008950Y022118D01*
X009117Y022332D02*
X009243Y022332D01*
X009203Y022490D02*
X009157Y022490D01*
X009157Y022649D02*
X009203Y022649D01*
X009203Y022807D02*
X009157Y022807D01*
X009157Y022966D02*
X009203Y022966D01*
X009203Y023124D02*
X009157Y023124D01*
X009111Y023283D02*
X009249Y023283D01*
X009369Y023441D02*
X008991Y023441D01*
X008369Y023441D02*
X007991Y023441D01*
X007950Y023482D02*
X008085Y023347D01*
X008157Y023172D01*
X008157Y022428D01*
X008085Y022253D01*
X007950Y022118D01*
X007775Y022046D01*
X007585Y022046D01*
X007410Y022118D01*
X007275Y022253D01*
X007203Y022428D01*
X007203Y023172D01*
X007275Y023347D01*
X007410Y023482D01*
X007585Y023554D01*
X007775Y023554D01*
X007950Y023482D01*
X008111Y023283D02*
X008249Y023283D01*
X008203Y023124D02*
X008157Y023124D01*
X008157Y022966D02*
X008203Y022966D01*
X008203Y022807D02*
X008157Y022807D01*
X008157Y022649D02*
X008203Y022649D01*
X008203Y022490D02*
X008157Y022490D01*
X008117Y022332D02*
X008243Y022332D01*
X008355Y022173D02*
X008005Y022173D01*
X007355Y022173D02*
X007005Y022173D01*
X006950Y022118D02*
X007085Y022253D01*
X007157Y022428D01*
X007157Y023172D01*
X007085Y023347D01*
X006950Y023482D01*
X006775Y023554D01*
X006585Y023554D01*
X006410Y023482D01*
X006275Y023347D01*
X006203Y023172D01*
X006203Y022428D01*
X006275Y022253D01*
X006410Y022118D01*
X006585Y022046D01*
X006775Y022046D01*
X006950Y022118D01*
X007117Y022332D02*
X007243Y022332D01*
X007203Y022490D02*
X007157Y022490D01*
X007157Y022649D02*
X007203Y022649D01*
X007203Y022807D02*
X007157Y022807D01*
X007157Y022966D02*
X007203Y022966D01*
X007203Y023124D02*
X007157Y023124D01*
X007111Y023283D02*
X007249Y023283D01*
X007369Y023441D02*
X006991Y023441D01*
X006369Y023441D02*
X005991Y023441D01*
X005950Y023482D02*
X005775Y023554D01*
X005585Y023554D01*
X005410Y023482D01*
X005275Y023347D01*
X005203Y023172D01*
X005203Y022428D01*
X005275Y022253D01*
X005410Y022118D01*
X005585Y022046D01*
X005775Y022046D01*
X005950Y022118D01*
X006085Y022253D01*
X006157Y022428D01*
X006157Y023172D01*
X006085Y023347D01*
X005950Y023482D01*
X006111Y023283D02*
X006249Y023283D01*
X006203Y023124D02*
X006157Y023124D01*
X006157Y022966D02*
X006203Y022966D01*
X006203Y022807D02*
X006157Y022807D01*
X006157Y022649D02*
X006203Y022649D01*
X006203Y022490D02*
X006157Y022490D01*
X006117Y022332D02*
X006243Y022332D01*
X006355Y022173D02*
X006005Y022173D01*
X005355Y022173D02*
X005005Y022173D01*
X005117Y022332D02*
X005243Y022332D01*
X005203Y022490D02*
X005157Y022490D01*
X005157Y022649D02*
X005203Y022649D01*
X005203Y022807D02*
X005157Y022807D01*
X005157Y022966D02*
X005203Y022966D01*
X005203Y023124D02*
X005157Y023124D01*
X005111Y023283D02*
X005249Y023283D01*
X005369Y023441D02*
X004991Y023441D01*
X004180Y021800D02*
X003680Y021300D01*
X003680Y015800D01*
X004180Y015300D01*
X008507Y014248D02*
X008853Y014248D01*
X008731Y014090D02*
X008629Y014090D01*
X008680Y013931D02*
X008680Y013931D01*
X008680Y013773D02*
X008680Y013773D01*
X014630Y010286D02*
X015501Y010286D01*
X015149Y010127D02*
X014630Y010127D01*
X014630Y009969D02*
X014991Y009969D01*
X014881Y009810D02*
X014630Y009810D01*
X014630Y009652D02*
X014815Y009652D01*
X014777Y009493D02*
X014630Y009493D01*
X014630Y009335D02*
X014777Y009335D01*
X014786Y009176D02*
X014630Y009176D01*
X014630Y009018D02*
X014852Y009018D01*
X014921Y008859D02*
X014630Y008859D01*
X014630Y008701D02*
X015079Y008701D01*
X015331Y008542D02*
X014630Y008542D01*
X014630Y008384D02*
X029331Y008384D01*
X029331Y008225D02*
X021830Y008225D01*
X022050Y008067D02*
X029331Y008067D01*
X029331Y007908D02*
X022208Y007908D01*
X022367Y007750D02*
X029331Y007750D01*
X029331Y007591D02*
X022525Y007591D01*
X022684Y007433D02*
X029331Y007433D01*
X029331Y007274D02*
X022842Y007274D01*
X023001Y007116D02*
X029331Y007116D01*
X029331Y006957D02*
X023159Y006957D01*
X023318Y006799D02*
X029331Y006799D01*
X029331Y006640D02*
X023476Y006640D01*
X023635Y006482D02*
X029331Y006482D01*
X029331Y006323D02*
X023793Y006323D01*
X023952Y006165D02*
X029331Y006165D01*
X029331Y006006D02*
X024110Y006006D01*
X024269Y005848D02*
X029331Y005848D01*
X029331Y005689D02*
X024427Y005689D01*
X024586Y005531D02*
X029331Y005531D01*
X029331Y005372D02*
X024744Y005372D01*
X024986Y005130D02*
X025041Y005083D01*
X025049Y005068D01*
X025061Y005055D01*
X024244Y004600D02*
X024445Y001986D01*
X024430Y001949D01*
X024430Y001151D01*
X024506Y000967D01*
X024647Y000826D01*
X024722Y000795D01*
X013638Y000795D01*
X013713Y000826D01*
X013854Y000967D01*
X013930Y001151D01*
X013930Y001949D01*
X013880Y002070D01*
X013880Y004614D01*
X016616Y007350D01*
X021494Y007350D01*
X024244Y004600D01*
X024246Y004580D02*
X019577Y004580D01*
X019546Y004694D02*
X019411Y004929D01*
X019219Y005121D01*
X018984Y005257D01*
X018721Y005327D01*
X018450Y005327D01*
X018187Y005257D01*
X017952Y005121D01*
X017760Y004929D01*
X017625Y004694D01*
X017554Y004432D01*
X017554Y004160D01*
X017625Y003898D01*
X017760Y003663D01*
X017952Y003471D01*
X018187Y003335D01*
X018450Y003265D01*
X018721Y003265D01*
X018984Y003335D01*
X019219Y003471D01*
X019411Y003663D01*
X019546Y003898D01*
X019617Y004160D01*
X019617Y004432D01*
X019546Y004694D01*
X019521Y004738D02*
X024106Y004738D01*
X023947Y004897D02*
X019430Y004897D01*
X019285Y005055D02*
X023789Y005055D01*
X023630Y005214D02*
X019059Y005214D01*
X019489Y005840D02*
X019871Y005840D01*
X020140Y006109D01*
X020140Y006491D01*
X019871Y006760D01*
X019489Y006760D01*
X019220Y006491D01*
X019220Y006109D01*
X019489Y005840D01*
X019482Y005848D02*
X018378Y005848D01*
X018371Y005840D02*
X018640Y006109D01*
X018640Y006491D01*
X018371Y006760D01*
X017989Y006760D01*
X017720Y006491D01*
X017720Y006109D01*
X017989Y005840D01*
X018371Y005840D01*
X018537Y006006D02*
X019323Y006006D01*
X019220Y006165D02*
X018640Y006165D01*
X018640Y006323D02*
X019220Y006323D01*
X019220Y006482D02*
X018640Y006482D01*
X018491Y006640D02*
X019369Y006640D01*
X019991Y006640D02*
X022204Y006640D01*
X022362Y006482D02*
X020140Y006482D01*
X020140Y006323D02*
X022521Y006323D01*
X022679Y006165D02*
X020140Y006165D01*
X020037Y006006D02*
X022838Y006006D01*
X022996Y005848D02*
X019878Y005848D01*
X021570Y007274D02*
X016540Y007274D01*
X016382Y007116D02*
X021728Y007116D01*
X021887Y006957D02*
X016223Y006957D01*
X016065Y006799D02*
X022045Y006799D01*
X023155Y005689D02*
X014955Y005689D01*
X014797Y005531D02*
X023313Y005531D01*
X023472Y005372D02*
X014638Y005372D01*
X014480Y005214D02*
X018112Y005214D01*
X017886Y005055D02*
X014321Y005055D01*
X014163Y004897D02*
X017741Y004897D01*
X017650Y004738D02*
X014004Y004738D01*
X013880Y004580D02*
X017594Y004580D01*
X017554Y004421D02*
X013880Y004421D01*
X013880Y004263D02*
X017554Y004263D01*
X017569Y004104D02*
X013880Y004104D01*
X013880Y003946D02*
X017612Y003946D01*
X017689Y003787D02*
X013880Y003787D01*
X013880Y003629D02*
X017795Y003629D01*
X017954Y003470D02*
X013880Y003470D01*
X013880Y003312D02*
X018276Y003312D01*
X018050Y003226D02*
X017882Y003157D01*
X017753Y003028D01*
X017684Y002860D01*
X017684Y002678D01*
X017753Y002510D01*
X017882Y002381D01*
X018050Y002311D01*
X018747Y002311D01*
X018915Y002381D01*
X019044Y002510D01*
X019114Y002678D01*
X019114Y002860D01*
X019044Y003028D01*
X018915Y003157D01*
X018747Y003226D01*
X018050Y003226D01*
X017879Y003153D02*
X013880Y003153D01*
X013880Y002995D02*
X017740Y002995D01*
X017684Y002836D02*
X013880Y002836D01*
X013880Y002678D02*
X017684Y002678D01*
X017750Y002519D02*
X016134Y002519D01*
X016201Y002492D02*
X015867Y002630D01*
X015505Y002630D01*
X015171Y002492D01*
X014916Y002236D01*
X014777Y001902D01*
X014777Y001541D01*
X014916Y001207D01*
X015171Y000951D01*
X015505Y000813D01*
X015867Y000813D01*
X016201Y000951D01*
X016456Y001207D01*
X016595Y001541D01*
X016595Y001902D01*
X016456Y002236D01*
X016201Y002492D01*
X016332Y002361D02*
X017931Y002361D01*
X017973Y002205D02*
X017912Y002174D01*
X017856Y002134D01*
X017808Y002085D01*
X017767Y002029D01*
X017736Y001968D01*
X017715Y001902D01*
X017704Y001834D01*
X017704Y001800D01*
X017704Y001766D01*
X017715Y001698D01*
X017736Y001632D01*
X017767Y001571D01*
X017808Y001515D01*
X017856Y001466D01*
X017912Y001426D01*
X017973Y001395D01*
X018039Y001373D01*
X018107Y001363D01*
X018399Y001363D01*
X018691Y001363D01*
X018759Y001373D01*
X018824Y001395D01*
X018886Y001426D01*
X018941Y001466D01*
X018990Y001515D01*
X019030Y001571D01*
X019062Y001632D01*
X019083Y001698D01*
X019094Y001766D01*
X019094Y001800D01*
X019094Y001834D01*
X019083Y001902D01*
X019062Y001968D01*
X019030Y002029D01*
X018990Y002085D01*
X018941Y002134D01*
X018886Y002174D01*
X018824Y002205D01*
X018759Y002227D01*
X018691Y002237D01*
X018399Y002237D01*
X018399Y001800D01*
X019094Y001800D01*
X018399Y001800D01*
X018399Y001800D01*
X018399Y001363D01*
X018399Y001800D01*
X018399Y001800D01*
X018399Y001800D01*
X018399Y002237D01*
X018107Y002237D01*
X018039Y002227D01*
X017973Y002205D01*
X017967Y002202D02*
X016470Y002202D01*
X016536Y002044D02*
X017777Y002044D01*
X017712Y001885D02*
X016595Y001885D01*
X016595Y001727D02*
X017710Y001727D01*
X017704Y001800D02*
X018399Y001800D01*
X018399Y001800D01*
X017704Y001800D01*
X017769Y001568D02*
X016595Y001568D01*
X016540Y001410D02*
X017944Y001410D01*
X018399Y001410D02*
X018399Y001410D01*
X018399Y001568D02*
X018399Y001568D01*
X018399Y001727D02*
X018399Y001727D01*
X018399Y001885D02*
X018399Y001885D01*
X018399Y002044D02*
X018399Y002044D01*
X018399Y002202D02*
X018399Y002202D01*
X018831Y002202D02*
X019541Y002202D01*
X019507Y002188D02*
X019378Y002059D01*
X019309Y001891D01*
X019309Y001709D01*
X019378Y001541D01*
X019507Y001412D01*
X019675Y001343D01*
X020372Y001343D01*
X020540Y001412D01*
X020669Y001541D01*
X020739Y001709D01*
X020739Y001891D01*
X020669Y002059D01*
X020540Y002188D01*
X020372Y002257D01*
X019675Y002257D01*
X019507Y002188D01*
X019598Y002363D02*
X019664Y002342D01*
X019732Y002331D01*
X020024Y002331D01*
X020316Y002331D01*
X020384Y002342D01*
X020449Y002363D01*
X020511Y002395D01*
X020566Y002435D01*
X020615Y002484D01*
X020655Y002539D01*
X020687Y002601D01*
X020708Y002666D01*
X020719Y002734D01*
X020719Y002769D01*
X020719Y002803D01*
X020708Y002871D01*
X020687Y002937D01*
X020655Y002998D01*
X020615Y003054D01*
X020566Y003102D01*
X020511Y003143D01*
X020449Y003174D01*
X020384Y003195D01*
X020316Y003206D01*
X020024Y003206D01*
X020024Y002769D01*
X020024Y002769D01*
X020719Y002769D01*
X020024Y002769D01*
X020024Y002769D01*
X020024Y003206D01*
X019732Y003206D01*
X019664Y003195D01*
X019598Y003174D01*
X019537Y003143D01*
X019481Y003102D01*
X019433Y003054D01*
X019392Y002998D01*
X019361Y002937D01*
X019340Y002871D01*
X019329Y002803D01*
X019329Y002769D01*
X020024Y002769D01*
X020024Y002331D01*
X020024Y002769D01*
X020024Y002769D01*
X020024Y002769D01*
X019329Y002769D01*
X019329Y002734D01*
X019340Y002666D01*
X019361Y002601D01*
X019392Y002539D01*
X019433Y002484D01*
X019481Y002435D01*
X019537Y002395D01*
X019598Y002363D01*
X019607Y002361D02*
X018866Y002361D01*
X019048Y002519D02*
X019407Y002519D01*
X019338Y002678D02*
X019114Y002678D01*
X019114Y002836D02*
X019334Y002836D01*
X019390Y002995D02*
X019058Y002995D01*
X018919Y003153D02*
X019557Y003153D01*
X019217Y003470D02*
X024331Y003470D01*
X024343Y003312D02*
X018895Y003312D01*
X019376Y003629D02*
X024319Y003629D01*
X024307Y003787D02*
X019482Y003787D01*
X019559Y003946D02*
X024294Y003946D01*
X024282Y004104D02*
X019602Y004104D01*
X019617Y004263D02*
X024270Y004263D01*
X024258Y004421D02*
X019617Y004421D01*
X020024Y003153D02*
X020024Y003153D01*
X020024Y002995D02*
X020024Y002995D01*
X020024Y002836D02*
X020024Y002836D01*
X020024Y002678D02*
X020024Y002678D01*
X020024Y002519D02*
X020024Y002519D01*
X020024Y002361D02*
X020024Y002361D01*
X020440Y002361D02*
X022028Y002361D01*
X021904Y002236D02*
X022159Y002492D01*
X022493Y002630D01*
X022855Y002630D01*
X023189Y002492D01*
X023444Y002236D01*
X023583Y001902D01*
X023583Y001541D01*
X023444Y001207D01*
X023189Y000951D01*
X022855Y000813D01*
X022493Y000813D01*
X022159Y000951D01*
X021904Y001207D01*
X021765Y001541D01*
X021765Y001902D01*
X021904Y002236D01*
X021890Y002202D02*
X020506Y002202D01*
X020676Y002044D02*
X021824Y002044D01*
X021765Y001885D02*
X020739Y001885D01*
X020739Y001727D02*
X021765Y001727D01*
X021765Y001568D02*
X020680Y001568D01*
X020534Y001410D02*
X021820Y001410D01*
X021885Y001251D02*
X016475Y001251D01*
X016342Y001093D02*
X022018Y001093D01*
X022200Y000934D02*
X016160Y000934D01*
X015212Y000934D02*
X013821Y000934D01*
X013906Y001093D02*
X015030Y001093D01*
X014897Y001251D02*
X013930Y001251D01*
X013930Y001410D02*
X014832Y001410D01*
X014777Y001568D02*
X013930Y001568D01*
X013930Y001727D02*
X014777Y001727D01*
X014777Y001885D02*
X013930Y001885D01*
X013891Y002044D02*
X014836Y002044D01*
X014902Y002202D02*
X013880Y002202D01*
X013880Y002361D02*
X015040Y002361D01*
X015237Y002519D02*
X013880Y002519D01*
X012980Y002519D02*
X012830Y002519D01*
X012830Y002361D02*
X012980Y002361D01*
X012980Y002202D02*
X012830Y002202D01*
X012891Y002044D02*
X012969Y002044D01*
X012930Y001949D02*
X012930Y001151D01*
X012854Y000967D01*
X012713Y000826D01*
X012638Y000795D01*
X013222Y000795D01*
X013147Y000826D01*
X013006Y000967D01*
X012930Y001151D01*
X012930Y001949D01*
X012930Y001885D02*
X012930Y001885D01*
X012930Y001727D02*
X012930Y001727D01*
X012930Y001568D02*
X012930Y001568D01*
X012930Y001410D02*
X012930Y001410D01*
X012930Y001251D02*
X012930Y001251D01*
X012906Y001093D02*
X012954Y001093D01*
X013039Y000934D02*
X012821Y000934D01*
X012039Y000934D02*
X010648Y000934D01*
X010830Y001093D02*
X011954Y001093D01*
X011930Y001251D02*
X010963Y001251D01*
X011028Y001410D02*
X011930Y001410D01*
X011930Y001568D02*
X011083Y001568D01*
X011083Y001727D02*
X011930Y001727D01*
X011930Y001885D02*
X011083Y001885D01*
X011024Y002044D02*
X011969Y002044D01*
X012030Y002202D02*
X010958Y002202D01*
X010820Y002361D02*
X012030Y002361D01*
X012030Y002519D02*
X010623Y002519D01*
X009265Y001568D02*
X008943Y001568D01*
X008943Y001410D02*
X009320Y001410D01*
X009385Y001251D02*
X008943Y001251D01*
X008943Y001093D02*
X009518Y001093D01*
X009700Y000934D02*
X008943Y000934D01*
X012830Y002678D02*
X012980Y002678D01*
X012980Y002836D02*
X012830Y002836D01*
X012830Y002995D02*
X012980Y002995D01*
X012980Y003153D02*
X012830Y003153D01*
X012830Y003312D02*
X012980Y003312D01*
X012980Y003470D02*
X012830Y003470D01*
X012830Y003629D02*
X012980Y003629D01*
X012980Y003787D02*
X012830Y003787D01*
X012830Y003946D02*
X012980Y003946D01*
X012980Y004104D02*
X012830Y004104D01*
X012830Y004263D02*
X012980Y004263D01*
X012980Y004421D02*
X012830Y004421D01*
X012830Y004580D02*
X012980Y004580D01*
X012980Y004738D02*
X012830Y004738D01*
X012980Y004890D02*
X013049Y005055D01*
X013207Y005214D02*
X012830Y005214D01*
X012830Y005372D02*
X013366Y005372D01*
X013524Y005531D02*
X012830Y005531D01*
X012830Y005689D02*
X013683Y005689D01*
X013841Y005848D02*
X012830Y005848D01*
X012830Y006006D02*
X014000Y006006D01*
X014158Y006165D02*
X012830Y006165D01*
X012830Y006323D02*
X014317Y006323D01*
X014475Y006482D02*
X012830Y006482D01*
X012830Y006640D02*
X014634Y006640D01*
X014792Y006799D02*
X012830Y006799D01*
X012830Y006957D02*
X014951Y006957D01*
X015109Y007116D02*
X012830Y007116D01*
X012830Y007274D02*
X015268Y007274D01*
X015426Y007433D02*
X013171Y007433D01*
X013541Y007591D02*
X015585Y007591D01*
X015743Y007750D02*
X013911Y007750D01*
X014410Y007908D02*
X015902Y007908D01*
X016060Y008067D02*
X014570Y008067D01*
X014630Y008225D02*
X016365Y008225D01*
X016115Y008122D02*
X016115Y008122D01*
X016040Y008542D02*
X022320Y008542D01*
X022067Y008701D02*
X016293Y008701D01*
X016451Y008859D02*
X021909Y008859D01*
X021840Y009018D02*
X016520Y009018D01*
X016585Y009176D02*
X021775Y009176D01*
X021765Y009335D02*
X016595Y009335D01*
X016595Y009493D02*
X021765Y009493D01*
X021804Y009652D02*
X016556Y009652D01*
X018630Y010761D02*
X024738Y010761D01*
X024680Y010920D02*
X018630Y010920D01*
X018630Y011078D02*
X024680Y011078D01*
X024680Y011237D02*
X018630Y011237D01*
X018630Y011395D02*
X024680Y011395D01*
X024680Y011554D02*
X018630Y011554D01*
X018728Y011712D02*
X024685Y011712D01*
X024751Y011871D02*
X018887Y011871D01*
X019045Y012029D02*
X024909Y012029D01*
X025451Y012029D02*
X025909Y012029D01*
X025751Y011871D02*
X025609Y011871D01*
X025675Y011712D02*
X025685Y011712D01*
X025680Y011554D02*
X025680Y011554D01*
X025680Y011395D02*
X025680Y011395D01*
X025680Y011237D02*
X025680Y011237D01*
X025680Y011078D02*
X025680Y011078D01*
X025680Y010920D02*
X025680Y010920D01*
X025622Y010761D02*
X025738Y010761D01*
X025870Y010603D02*
X025490Y010603D01*
X024870Y010603D02*
X020028Y010603D01*
X017869Y006640D02*
X015906Y006640D01*
X015748Y006482D02*
X017720Y006482D01*
X017720Y006323D02*
X015589Y006323D01*
X015431Y006165D02*
X017720Y006165D01*
X017823Y006006D02*
X015272Y006006D01*
X015114Y005848D02*
X017982Y005848D01*
X020491Y003153D02*
X024355Y003153D01*
X024368Y002995D02*
X020657Y002995D01*
X020714Y002836D02*
X024380Y002836D01*
X024392Y002678D02*
X020710Y002678D01*
X020641Y002519D02*
X022226Y002519D01*
X023123Y002519D02*
X024404Y002519D01*
X024416Y002361D02*
X023320Y002361D01*
X023458Y002202D02*
X024429Y002202D01*
X024441Y002044D02*
X023524Y002044D01*
X023583Y001885D02*
X024430Y001885D01*
X024430Y001727D02*
X023583Y001727D01*
X023583Y001568D02*
X024430Y001568D01*
X024430Y001410D02*
X023528Y001410D01*
X023463Y001251D02*
X024430Y001251D01*
X024454Y001093D02*
X023330Y001093D01*
X023148Y000934D02*
X024539Y000934D01*
X025321Y000934D02*
X025567Y000934D01*
X025476Y001093D02*
X025406Y001093D01*
X025430Y001251D02*
X025450Y001251D01*
X025450Y001410D02*
X025430Y001410D01*
X025910Y001727D02*
X025950Y001727D01*
X025950Y001885D02*
X025910Y001885D01*
X025910Y002044D02*
X025950Y002044D01*
X025950Y002202D02*
X025910Y002202D01*
X019514Y001410D02*
X018853Y001410D01*
X019028Y001568D02*
X019367Y001568D01*
X019309Y001727D02*
X019088Y001727D01*
X019086Y001885D02*
X019309Y001885D01*
X019372Y002044D02*
X019020Y002044D01*
X002950Y027879D02*
X001910Y027879D01*
X002068Y028038D02*
X002792Y028038D01*
X002720Y028196D02*
X002140Y028196D01*
X002140Y028355D02*
X002720Y028355D01*
X002743Y028513D02*
X002117Y028513D01*
X001959Y028672D02*
X002901Y028672D01*
X002955Y029464D02*
X002438Y029464D01*
X002557Y029623D02*
X002845Y029623D01*
X002809Y029781D02*
X002594Y029781D01*
X002571Y029940D02*
X002829Y029940D01*
X002917Y030098D02*
X002477Y030098D01*
X002450Y030415D02*
X003009Y030415D01*
X002875Y030574D02*
X002571Y030574D01*
X002614Y030732D02*
X002829Y030732D01*
X002846Y030891D02*
X002601Y030891D01*
X002523Y031049D02*
X002929Y031049D01*
X001899Y030098D02*
X001899Y030098D01*
X001899Y029940D02*
X001899Y029940D01*
X001899Y029800D02*
X001899Y029800D01*
X001899Y029781D02*
X001899Y029781D01*
X001899Y029623D02*
X001899Y029623D01*
X001899Y029464D02*
X001899Y029464D01*
D21*
X001680Y024300D02*
X003180Y024300D01*
X019680Y024300D01*
X019680Y026300D01*
X023180Y029800D01*
X031180Y029800D01*
X032180Y028800D01*
X036180Y028800D01*
X036680Y028300D01*
X036680Y023800D01*
X035180Y023800D01*
X033680Y023800D01*
X032180Y021800D01*
X030180Y021800D01*
X029680Y021300D01*
X029680Y014800D01*
X028680Y014300D01*
X022680Y014300D01*
X020680Y013300D01*
X019680Y013300D01*
X018180Y011800D01*
X018180Y010300D01*
X019680Y010300D01*
X017180Y010800D02*
X017180Y014300D01*
X016180Y014300D02*
X016180Y012300D01*
X011180Y012300D01*
X010680Y011800D01*
X010680Y011300D01*
X014180Y010800D02*
X017180Y010800D01*
X014180Y010800D02*
X014180Y008300D01*
X016315Y007685D02*
X013430Y004800D01*
X013430Y001550D01*
X016314Y007685D02*
X016343Y007711D01*
X016374Y007734D01*
X016407Y007753D01*
X016442Y007770D01*
X016479Y007783D01*
X016516Y007792D01*
X016554Y007798D01*
X016593Y007800D01*
X021680Y007800D01*
X024680Y004800D01*
X024930Y001550D01*
X016180Y014300D02*
X015680Y014800D01*
X009180Y014800D01*
X008680Y015300D01*
X008680Y016800D01*
X009680Y016800D02*
X009680Y017800D01*
X013180Y021300D01*
X021180Y021300D01*
X021180Y024300D01*
X024680Y027800D01*
X030680Y027800D01*
X033180Y025300D01*
X035180Y025300D01*
X035180Y027800D01*
X033680Y023800D02*
X032180Y023800D01*
X029180Y026800D01*
X025680Y026800D01*
X022680Y023800D01*
X022680Y020300D01*
X022180Y019800D01*
X017180Y019800D01*
X015680Y017800D01*
X015680Y016800D01*
D22*
X018180Y015300D02*
X018680Y016800D01*
X018680Y018300D01*
X021680Y018300D01*
X021680Y016800D01*
X021680Y018300D02*
X024680Y018300D01*
X027680Y021800D01*
X027680Y022800D01*
X028180Y023300D01*
X029180Y023300D01*
X018180Y015300D02*
X017180Y014300D01*
X014180Y008300D02*
X012430Y007550D01*
X012430Y001550D01*
D23*
X010680Y011300D03*
D24*
X004180Y021800D02*
X004680Y022800D01*
M02*
